<?xml version="1.0" encoding="utf-8"?>
<!-- Generator: Adobe Illustrator 22.0.0, SVG Export Plug-In . SVG Version: 6.00 Build 0)  -->
<svg version="1.1" xmlns="http://www.w3.org/2000/svg" xmlns:xlink="http://www.w3.org/1999/xlink" x="0px" y="0px"
	 viewBox="0 0 64 64" style="enable-background:new 0 0 64 64;" xml:space="preserve">
<style type="text/css">
	.st0{opacity:0.3;}
	.st1{fill:#FF9E1F;}
	.st2{fill:#3CC451;}
	.st3{fill:#E13455;}
	.st4{opacity:0.2;}
	.st5{fill:#2394FB;}
</style>
<g id="Layer_1">
</g>
<g id="travel_Insurance">
</g>
<g id="Home_Insurance">
</g>
<g id="Female_Insurance">
</g>
<g id="Funerals_Insurance">
</g>
<g id="Sinking">
</g>
<g id="money_Insurance">
</g>
<g id="Education_Insurance">
</g>
<g id="Employee_Insurance">
</g>
<g id="car_insurance">
</g>
<g id="_Flight_Insurance">
</g>
<g id="Dental_Insurance">
</g>
<g id="Eye_Insurance">
</g>
<g id="life_Insurance">
</g>
<g id="Health_Insurance">
</g>
<g id="Family_Insurance">
</g>
<g id="Child_Insurance">
</g>
<g id="Salesman_Insurance">
</g>
<g id="Search_Insurance">
</g>
<g id="Call_Center">
</g>
<g id="User_Insurance">
	<g class="st4">
		<path class="st5" d="M59,23c0,2.2-0.6,4.3-1.7,6.1c-0.4,0.6-0.8,1.2-1.2,1.7c-1,1.2-2.2,2.1-3.6,2.8c-0.6,0.3-1.2,0.6-1.9,0.8
			C49.5,34.8,48.3,35,47,35c-6.6,0-12-5.4-12-12c0-1.3,0.2-2.5,0.6-3.7c0.2-0.7,0.5-1.3,0.8-1.9c2-3.8,6-6.5,10.7-6.5
			C53.6,11,59,16.4,59,23z"/>
	</g>
	<g>
		<path d="M55,57H9c-2.8,0-5-2.2-5-5V23c0-2.8,2.2-5,5-5h19c0.6,0,1,0.4,1,1v2c0,1.7,1.3,3,3,3s3-1.3,3-3v-2c0-0.6,0.4-1,1-1h19
			c2.8,0,5,2.2,5,5v29C60,54.8,57.8,57,55,57z M9,20c-1.7,0-3,1.3-3,3v29c0,1.7,1.3,3,3,3h46c1.7,0,3-1.3,3-3V23c0-1.7-1.3-3-3-3H37
			v1c0,2.8-2.2,5-5,5s-5-2.2-5-5v-1H9z"/>
	</g>
	<g>
		<path class="st5" d="M32,26c-2.8,0-5-2.2-5-5v-6c0-2.8,2.2-5,5-5c1.3,0,2.6,0.5,3.5,1.5c1,1,1.5,2.2,1.5,3.5v6
			C37,23.8,34.8,26,32,26z M32,12c-1.7,0-3,1.3-3,3v6c0,1.7,1.3,3,3,3s3-1.3,3-3v-6c0-0.8-0.3-1.6-0.9-2.1C33.6,12.3,32.8,12,32,12z
			"/>
	</g>
	<g>
		<path class="st5" d="M52,36H35c-0.6,0-1-0.4-1-1v-5c0-0.6,0.4-1,1-1h17c0.6,0,1,0.4,1,1v5C53,35.6,52.6,36,52,36z M36,34h15v-3H36
			V34z"/>
	</g>
	<g>
		<path class="st5" d="M52,42H35c-0.6,0-1-0.4-1-1s0.4-1,1-1h17c0.6,0,1,0.4,1,1S52.6,42,52,42z"/>
	</g>
	<g>
		<path class="st5" d="M52,48H35c-0.6,0-1-0.4-1-1s0.4-1,1-1h17c0.6,0,1,0.4,1,1S52.6,48,52,48z"/>
	</g>
	<g>
		<path class="st5" d="M20,41c-2.8,0-5-2.2-5-5s2.2-5,5-5s5,2.2,5,5S22.8,41,20,41z M20,33c-1.7,0-3,1.3-3,3s1.3,3,3,3s3-1.3,3-3
			S21.7,33,20,33z"/>
	</g>
	<g>
		<path class="st5" d="M20,51c-0.1,0-0.2,0-0.3,0c-3-0.8-5.6-2.7-7.3-5.2c-0.2-0.2-0.2-0.5-0.1-0.8c0.9-3.5,4.1-6,7.7-6
			c2.1,0,4.1,0.8,5.7,2.3c1,1,1.7,2.3,2.1,3.6c0.1,0.3,0,0.6-0.1,0.8c-1.7,2.5-4.3,4.3-7.3,5.2C20.2,51,20.1,51,20,51z M14.3,45
			c1.4,1.9,3.4,3.2,5.7,3.9c2.3-0.7,4.2-2.1,5.7-3.9c-0.3-0.8-0.8-1.6-1.4-2.3C23.1,41.6,21.6,41,20,41C17.4,41,15.2,42.6,14.3,45z"
			/>
	</g>
	<g>
		<path d="M20,51c-0.1,0-0.2,0-0.3,0c-3-0.8-5.6-2.7-7.3-5.2c-1.6-2.3-2.4-4.9-2.4-7.6v-8.6c0-0.4,0.3-0.8,0.7-1l9-2.6
			c0.2-0.1,0.4-0.1,0.5,0l9,2.6c0.4,0.1,0.7,0.5,0.7,1v8.6c0,2.7-0.8,5.4-2.4,7.6c-1.7,2.5-4.3,4.3-7.3,5.2C20.2,51,20.1,51,20,51z
			 M12,30.3v7.8c0,2.3,0.7,4.6,2.1,6.5c1.4,2,3.5,3.6,5.9,4.3c2.4-0.8,4.5-2.3,5.9-4.3c1.3-1.9,2.1-4.2,2.1-6.5v-7.8L20,28L12,30.3z
			"/>
	</g>
</g>
<g id="Profile_Information">
</g>
<g id="Approved_Sign_Insurance">
</g>
<g id="calendar">
</g>
<g id="World_Wide_Protection">
</g>
<g id="Shield">
</g>
</svg>
