<?xml version="1.0" encoding="utf-8"?>
<!-- Generator: Adobe Illustrator 22.0.0, SVG Export Plug-In . SVG Version: 6.00 Build 0)  -->
<svg version="1.1" xmlns="http://www.w3.org/2000/svg" xmlns:xlink="http://www.w3.org/1999/xlink" x="0px" y="0px"
	 viewBox="0 0 64 64" style="enable-background:new 0 0 64 64;" xml:space="preserve">
<style type="text/css">
	.st0{opacity:0.3;}
	.st1{fill:#FF9E1F;}
	.st2{fill:#3CC451;}
	.st3{fill:#E13455;}
	.st4{opacity:0.2;}
	.st5{fill:#2394FB;}
</style>
<g id="Layer_1">
</g>
<g id="travel_Insurance">
</g>
<g id="Home_Insurance">
</g>
<g id="Female_Insurance">
</g>
<g id="Funerals_Insurance">
</g>
<g id="Sinking">
</g>
<g id="money_Insurance">
</g>
<g id="Education_Insurance">
</g>
<g id="Employee_Insurance">
</g>
<g id="car_insurance">
</g>
<g id="_Flight_Insurance">
</g>
<g id="Dental_Insurance">
</g>
<g id="Eye_Insurance">
</g>
<g id="life_Insurance">
</g>
<g id="Health_Insurance">
</g>
<g id="Family_Insurance">
	<g class="st0">
		<path class="st2" d="M29,47c0,2.2-0.6,4.3-1.7,6.1c-0.4,0.6-0.8,1.2-1.2,1.7c-1,1.2-2.2,2.1-3.6,2.8c-0.6,0.3-1.2,0.6-1.9,0.8
			C19.5,58.8,18.3,59,17,59c-6.6,0-12-5.4-12-12c0-1.3,0.2-2.5,0.6-3.7c0.2-0.7,0.5-1.3,0.8-1.9c2-3.8,6-6.5,10.7-6.5
			C23.6,35,29,40.4,29,47z"/>
	</g>
	<g>
		<path d="M32,60c-0.1,0-0.2,0-0.3,0c-0.7-0.2-1.4-0.4-2.1-0.7c-2.6-0.9-5-2.2-7.2-3.8c-5.5-4-9.5-9.7-11.3-16.2
			c-0.7-2.6-1.1-5.3-1.1-8V11c0-0.4,0.3-0.8,0.7-1l21-6C31.9,4,32.1,4,32.3,4l21,6c0.4,0.1,0.7,0.5,0.7,1v20.2
			c0,3.4-0.6,6.7-1.7,9.8c0,0,0,0.1,0,0.1c-2,5.8-5.8,10.8-10.7,14.4c-2.2,1.6-4.6,2.9-7.2,3.8c-0.6,0.2-1.4,0.5-2.1,0.7
			C32.2,60,32.1,60,32,60z M12,11.8v19.4c0,2.5,0.3,5.1,1,7.5c1.7,6.1,5.4,11.5,10.6,15.2c2,1.5,4.3,2.7,6.7,3.6
			c0.5,0.2,1.1,0.4,1.7,0.6c0.6-0.2,1.1-0.4,1.6-0.6c2.4-0.9,4.7-2.1,6.8-3.6c4.6-3.4,8.1-8,10-13.4c0,0,0-0.1,0-0.1
			c1-3,1.6-6.1,1.6-9.2V11.8L32,6L12,11.8z"/>
	</g>
	<g>
		<path d="M32,60c-0.1,0-0.2,0-0.3,0c-0.7-0.2-1.4-0.4-2.1-0.7c-2.6-0.9-5-2.2-7.2-3.8c-0.3-0.2-0.4-0.5-0.4-0.8
			c0.2-4.5,3.4-8.3,7.8-9.3c1.5-0.3,3-0.3,4.4,0c1.9,0.4,3.5,1.4,4.9,2.7c1.8,1.8,2.8,4.1,2.9,6.7c0,0.3-0.1,0.6-0.4,0.8
			c-2.2,1.6-4.6,2.9-7.2,3.8c-0.6,0.2-1.4,0.5-2.1,0.7C32.2,60,32.1,60,32,60z M24,54.1c1.9,1.3,4,2.4,6.3,3.3
			c0.5,0.2,1.1,0.4,1.7,0.6c0.6-0.2,1.1-0.4,1.6-0.6c2.3-0.8,4.4-1.9,6.3-3.3c-0.2-1.8-1-3.5-2.3-4.8c-1.1-1.1-2.4-1.8-3.9-2.2
			c-1.2-0.3-2.4-0.3-3.6,0C26.9,48,24.4,50.8,24,54.1z"/>
	</g>
	<g>
		<path d="M41,55.6c-0.1,0-0.3,0-0.4-0.1C40.2,55.4,40,55,40,54.7c-0.1-2-0.9-3.9-2.3-5.3c-1.1-1.1-2.4-1.8-3.9-2.2
			C33.2,47.1,32.6,47,32,47c-0.6,0-1-0.4-1-1s0.4-1,1-1c0.5,0,1.1-0.1,1.5-0.4c1-0.5,1.7-1.5,1.8-2.7l0.2-2.2c0-0.5,0-0.9-0.2-1.4
			c-0.1-0.3,0-0.7,0.2-1c0.4-0.5,0.9-0.9,1.4-1.3c1.7-1.3,3.8-2,6-2c2.7,0,5.2,1,7.1,2.9c1,1,1.7,2.1,2.2,3.4c0,0.1,0.1,0.2,0.1,0.4
			v0c0,0.1,0,0.2-0.1,0.3c-2,5.8-5.8,10.8-10.7,14.4C41.4,55.6,41.2,55.6,41,55.6z M35.6,45.7c1.3,0.5,2.5,1.3,3.5,2.3
			c1.3,1.3,2.3,3,2.7,4.8c3.9-3.2,6.8-7.3,8.6-12c-0.4-0.9-1-1.7-1.7-2.4C47.1,36.8,45.1,36,43,36c-1.8,0-3.4,0.6-4.8,1.6
			c-0.3,0.2-0.5,0.4-0.7,0.6c0.1,0.5,0.2,1.1,0.1,1.6l-0.2,2.2C37.2,43.5,36.6,44.8,35.6,45.7z"/>
	</g>
	<g>
		<path d="M23,55.6c-0.2,0-0.4-0.1-0.6-0.2c-5.5-4-9.5-9.7-11.3-16.2c0-0.1,0-0.3,0-0.4c0.6-5,4.9-8.8,9.9-8.8
			c2.7,0,5.2,1.1,7.1,2.9c0.3,0.3,0.6,0.6,0.8,0.9c0.4,0.5,0.8,1.1,1.1,1.7c0.2,0.4,0.1,0.9-0.3,1.2c-0.9,0.7-1.3,1.8-1.2,2.9
			l0.2,2.2c0.1,1.2,0.8,2.2,1.8,2.7c0.5,0.2,1,0.4,1.5,0.4c0.6,0,1,0.4,1,1s-0.4,1-1,1c-0.6,0-1.2,0.1-1.8,0.2
			c-3.5,0.8-6.1,3.9-6.2,7.5c0,0.4-0.2,0.7-0.6,0.9C23.3,55.6,23.2,55.6,23,55.6z M13.1,38.9c1.5,5.5,4.8,10.3,9.2,13.9
			c0.7-3.2,3.1-5.9,6.2-7.1c-1-0.9-1.7-2.2-1.8-3.5l-0.2-2.2c-0.1-1.5,0.4-3,1.4-4.1c-0.1-0.2-0.3-0.5-0.5-0.7
			c-0.2-0.3-0.4-0.5-0.6-0.7C25.2,32.9,23.1,32,21,32C17,32,13.6,34.9,13.1,38.9z"/>
	</g>
	<g>
		<path class="st2" d="M32,47c-0.9,0-1.7-0.2-2.5-0.6c-1.6-0.8-2.7-2.5-2.9-4.3l-0.2-2.2c-0.2-1.8,0.6-3.5,2-4.7
			c1-0.8,2.2-1.2,3.4-1.2h0.4c2.3,0,4.3,1.5,5.1,3.6c0.3,0.7,0.3,1.5,0.3,2.2l0,0l-0.2,2.2c-0.2,1.8-1.3,3.4-2.9,4.3
			C33.7,46.8,32.9,47,32,47z M31.8,36c-0.8,0-1.5,0.3-2.1,0.8c-0.9,0.7-1.3,1.8-1.2,2.9l0.2,2.2c0.1,1.2,0.8,2.2,1.8,2.7
			c0.9,0.5,2.1,0.5,3.1,0c1-0.5,1.7-1.5,1.8-2.7l0.2-2.2c0-0.5,0-0.9-0.2-1.4c-0.5-1.4-1.8-2.3-3.2-2.3H31.8z"/>
	</g>
	<g>
		<path class="st2" d="M43,36c-3.3,0-6.1-2.6-6.4-5.9l-0.2-2.2c-0.1-1.8,0.5-3.5,1.7-4.8c1.2-1.3,2.9-2.1,4.7-2.1h0.3
			c1.8,0,3.5,0.7,4.7,2.1c1.2,1.3,1.8,3.1,1.7,4.8l-0.2,2.2C49.1,33.4,46.3,36,43,36z M42.8,23c-1.2,0-2.4,0.5-3.2,1.4
			c-0.8,0.9-1.3,2.1-1.2,3.3l0.2,2.2c0.2,2.3,2.1,4.1,4.4,4.1s4.2-1.8,4.4-4.1l0.2-2.2c0.1-1.2-0.3-2.4-1.2-3.3
			c-0.8-0.9-2-1.4-3.2-1.4H42.8z"/>
	</g>
	<g>
		<path class="st2" d="M21,32c-3.4,0-6.1-2.6-6.4-5.9l-0.2-2.2c-0.1-1.8,0.5-3.5,1.7-4.8c1.2-1.3,2.9-2.1,4.7-2.1h0.3
			c1.8,0,3.5,0.7,4.7,2.1c1.2,1.3,1.8,3.1,1.7,4.8c0,0,0,0,0,0l-0.2,2.2C27.2,29.4,24.4,32,21,32z M20.9,19c-1.2,0-2.4,0.5-3.2,1.4
			c-0.8,0.9-1.3,2.1-1.2,3.3l0.2,2.2c0.2,2.3,2.1,4.1,4.4,4.1c2.3,0,4.2-1.8,4.4-4.1l0.2-2.2c0.1-1.2-0.3-2.4-1.2-3.3
			c-0.8-0.9-2-1.4-3.2-1.4H20.9z"/>
	</g>
</g>
<g id="Child_Insurance">
</g>
<g id="Salesman_Insurance">
</g>
<g id="Search_Insurance">
</g>
<g id="Call_Center">
</g>
<g id="User_Insurance">
</g>
<g id="Profile_Information">
</g>
<g id="Approved_Sign_Insurance">
</g>
<g id="calendar">
</g>
<g id="World_Wide_Protection">
</g>
<g id="Shield">
</g>
</svg>
