<?xml version="1.0" encoding="utf-8"?>
<!-- Generator: Adobe Illustrator 22.0.0, SVG Export Plug-In . SVG Version: 6.00 Build 0)  -->
<svg version="1.1" xmlns="http://www.w3.org/2000/svg" xmlns:xlink="http://www.w3.org/1999/xlink" x="0px" y="0px"
	 viewBox="0 0 64 64" style="enable-background:new 0 0 64 64;" xml:space="preserve">
<style type="text/css">
	.st0{opacity:0.3;}
	.st1{fill:#FF9E1F;}
	.st2{fill:#3CC451;}
	.st3{fill:#E13455;}
	.st4{opacity:0.2;}
	.st5{fill:#2394FB;}
</style>
<g id="Layer_1">
</g>
<g id="travel_Insurance">
	<g class="st0">
		<g>
			<path class="st1" d="M36,27c0,2.2-0.6,4.3-1.7,6.1c-0.4,0.6-0.8,1.2-1.2,1.7c-1,1.2-2.2,2.1-3.6,2.8c-0.6,0.3-1.2,0.6-1.9,0.8
				C26.5,38.8,25.3,39,24,39c-6.6,0-12-5.4-12-12c0-1.3,0.2-2.5,0.6-3.7c0.2-0.7,0.5-1.3,0.8-1.9c2-3.8,6-6.5,10.7-6.5
				C30.6,15,36,20.4,36,27z"/>
		</g>
	</g>
	<g>
		<path d="M15,51h-2.6c-3,0-5.4-2.4-5.4-5.4V19.4c0-3,2.4-5.4,5.4-5.4H15c0.6,0,1,0.4,1,1v35C16,50.6,15.6,51,15,51z M12.4,16
			C10.5,16,9,17.5,9,19.4v26.2c0,1.9,1.5,3.4,3.4,3.4H14V16H12.4z"/>
	</g>
	<g>
		<path d="M39.5,51H20c-0.6,0-1-0.4-1-1V15c0-0.6,0.4-1,1-1h24c0.6,0,1,0.4,1,1v18.8c0,0.4-0.3,0.8-0.7,1L39,36.3v7.8
			c0,0.2,0,0.4,0,0.7c0.1,1,0.2,1.9,0.6,2.9c0.2,0.6,0.4,1.2,0.8,1.8c0.2,0.3,0.2,0.7,0,1C40.2,50.8,39.9,51,39.5,51z M21,49h16.9
			c-0.1-0.2-0.2-0.5-0.2-0.7c-0.4-1.1-0.6-2.2-0.6-3.4c0-0.3,0-0.5,0-0.8v-8.6c0-0.4,0.3-0.8,0.7-1l5.3-1.5V16H21V49z"/>
	</g>
	<g>
		<path d="M56,36.6c-0.1,0-0.2,0-0.3,0l-7-2c-0.4-0.1-0.7-0.5-0.7-1V15c0-0.6,0.4-1,1-1h2.6c3,0,5.4,2.4,5.4,5.4v16.2
			c0,0.3-0.1,0.6-0.4,0.8C56.4,36.5,56.2,36.6,56,36.6z M50,32.8l5,1.4V19.4c0-1.9-1.5-3.4-3.4-3.4H50V32.8z"/>
	</g>
	<g>
		<path d="M39,16H25c-0.6,0-1-0.4-1-1v-4.3c0-2,1.6-3.7,3.7-3.7h8.7c2,0,3.7,1.6,3.7,3.7V15C40,15.6,39.6,16,39,16z M26,14h12v-3.3
			C38,9.7,37.3,9,36.3,9h-8.7C26.7,9,26,9.7,26,10.7V14z"/>
	</g>
	<g>
		<path class="st1" d="M44,34.8c-0.2,0-0.4-0.1-0.6-0.2c-0.3-0.2-0.4-0.5-0.4-0.8V15c0-1.1,0.9-2,2-2h3c1.1,0,2,0.9,2,2v18.6
			c0,0.3-0.1,0.6-0.4,0.8c-0.3,0.2-0.6,0.2-0.9,0.2L47,34l-2.7,0.8C44.2,34.8,44.1,34.8,44,34.8z M45,15v17.5l1.7-0.5
			c0.2,0,0.4,0,0.5,0l0.7,0.2V15L45,15z M48,15h1H48L48,15L48,15z"/>
	</g>
	<g>
		<path class="st1" d="M46,48c-0.3,0-0.5-0.1-0.7-0.3l-2.5-2.5c-0.4-0.4-0.4-1,0-1.4s1-0.4,1.4,0l1.8,1.8l4.3-4.3
			c0.4-0.4,1-0.4,1.4,0s0.4,1,0,1.4l-5,5C46.5,47.9,46.3,48,46,48z"/>
	</g>
	<g>
		<path d="M47,57c-0.1,0-0.2,0-0.3,0c-1.6-0.5-3.1-1.2-4.4-2.2c-0.1-0.1-0.2-0.1-0.3-0.2c-0.3-0.2-0.6-0.5-1-0.8
			c-0.9-0.9-1.7-2-2.4-3.1c0-0.1-0.1-0.1-0.1-0.2c-0.4-0.7-0.7-1.4-0.9-2.1c-0.4-1.1-0.6-2.2-0.6-3.4c0-0.3,0-0.5,0-0.8v-8.6
			c0-0.4,0.3-0.8,0.7-1l9-2.6c0.2,0,0.4,0,0.5,0l9,2.6c0.4,0.1,0.7,0.5,0.7,1v8.6c0,1.3-0.2,2.7-0.6,3.9c-0.5,1.8-1.5,3.5-2.7,4.9
			c-0.2,0.3-0.5,0.6-0.8,0.8c-1.6,1.5-3.5,2.6-5.6,3.2C47.2,57,47.1,57,47,57z M39,36.3v7.8c0,0.2,0,0.4,0,0.7
			c0.1,1,0.2,1.9,0.6,2.9c0.2,0.6,0.4,1.2,0.8,1.8c0,0,0,0.1,0.1,0.1c0.6,1,1.2,1.9,2,2.6c0.3,0.2,0.5,0.5,0.8,0.7
			c0.1,0.1,0.2,0.1,0.2,0.2c1.1,0.8,2.2,1.4,3.5,1.8c1.7-0.5,3.3-1.5,4.5-2.7c0.2-0.2,0.5-0.5,0.7-0.7c1-1.2,1.8-2.6,2.3-4.2
			c0.3-1,0.5-2.1,0.5-3.3v-7.8L47,34L39,36.3z"/>
	</g>
	<g>
		<path class="st1" d="M19,52h-3c-1.1,0-2-0.9-2-2V15c0-1.1,0.9-2,2-2h3c1.1,0,2,0.9,2,2v35C21,51.1,20.1,52,19,52z M16,15v35h3V15
			L16,15z M19,15h1H19L19,15L19,15z"/>
	</g>
</g>
<g id="Home_Insurance">
</g>
<g id="Female_Insurance">
</g>
<g id="Funerals_Insurance">
</g>
<g id="Sinking">
</g>
<g id="money_Insurance">
</g>
<g id="Education_Insurance">
</g>
<g id="Employee_Insurance">
</g>
<g id="car_insurance">
</g>
<g id="_Flight_Insurance">
</g>
<g id="Dental_Insurance">
</g>
<g id="Eye_Insurance">
</g>
<g id="life_Insurance">
</g>
<g id="Health_Insurance">
</g>
<g id="Family_Insurance">
</g>
<g id="Child_Insurance">
</g>
<g id="Salesman_Insurance">
</g>
<g id="Search_Insurance">
</g>
<g id="Call_Center">
</g>
<g id="User_Insurance">
</g>
<g id="Profile_Information">
</g>
<g id="Approved_Sign_Insurance">
</g>
<g id="calendar">
</g>
<g id="World_Wide_Protection">
</g>
<g id="Shield">
</g>
</svg>
