<?xml version="1.0" encoding="utf-8"?>
<!-- Generator: Adobe Illustrator 22.0.0, SVG Export Plug-In . SVG Version: 6.00 Build 0)  -->
<svg version="1.1" xmlns="http://www.w3.org/2000/svg" xmlns:xlink="http://www.w3.org/1999/xlink" x="0px" y="0px"
	 viewBox="0 0 64 64" style="enable-background:new 0 0 64 64;" xml:space="preserve">
<style type="text/css">
	.st0{opacity:0.3;}
	.st1{fill:#FF9E1F;}
	.st2{fill:#3CC451;}
	.st3{fill:#E13455;}
	.st4{opacity:0.2;}
	.st5{fill:#2394FB;}
</style>
<g id="Layer_1">
</g>
<g id="travel_Insurance">
</g>
<g id="Home_Insurance">
</g>
<g id="Female_Insurance">
</g>
<g id="Funerals_Insurance">
	<g class="st4">
		<path class="st5" d="M37,39c0,2.2-0.6,4.3-1.7,6.1c-0.4,0.6-0.8,1.2-1.2,1.7c-1,1.2-2.2,2.1-3.6,2.8c-0.6,0.3-1.2,0.6-1.9,0.8
			C27.5,50.8,26.3,51,25,51c-6.6,0-12-5.4-12-12c0-1.3,0.2-2.5,0.6-3.7c0.2-0.7,0.5-1.3,0.8-1.9c2-3.8,6-6.5,10.7-6.5
			C31.6,27,37,32.4,37,39z"/>
	</g>
	<g>
		<path d="M41.8,54H11c-0.6,0-1-0.4-1-1c0-2.9,1.1-5.7,3.2-7.8c1.2-1.2,2.8-2.2,4.5-2.7c1.1-0.3,2.2-0.5,3.3-0.5h17c0.6,0,1,0.4,1,1
			v1.1c0,1.9,0.5,3.8,1.4,5.5c0.5,1,1.2,1.9,2,2.6c0.3,0.3,0.4,0.7,0.2,1.1C42.6,53.8,42.2,54,41.8,54z M12.1,52h27.5
			c-0.3-0.4-0.6-0.9-0.9-1.4c-1.1-2-1.7-4.2-1.7-6.5V44H21c-0.9,0-1.8,0.1-2.7,0.4c-1.4,0.4-2.6,1.2-3.7,2.2
			C13.2,48.1,12.3,50,12.1,52z"/>
	</g>
	<g>
		<path d="M41.8,54H8c-0.6,0-1-0.4-1-1s0.4-1,1-1h33.8c0.6,0,1,0.4,1,1S42.3,54,41.8,54z"/>
	</g>
	<g>
		<path d="M18,44.5c-0.2,0-0.4-0.1-0.6-0.2c-0.3-0.2-0.4-0.5-0.4-0.8V20c0-2,1.5-3.6,3.4-3.9C21.7,10.8,26.5,7,32,7
			s10.3,3.8,11.6,9.1c1.9,0.3,3.4,2,3.4,3.9v13.3c0,0.4-0.3,0.8-0.7,1L39,36.3V43c0,0.6-0.4,1-1,1H21c-0.9,0-1.8,0.1-2.7,0.4
			C18.2,44.4,18.1,44.5,18,44.5z M21,18c-1.1,0-2,0.9-2,2v22.2c0.7-0.1,1.3-0.2,2-0.2h16v-6.4c0-0.4,0.3-0.8,0.7-1l7.3-2.1V20
			c0-1.1-0.9-2-2-2h-0.2c-0.5,0-0.9-0.3-1-0.8C41,12.4,36.8,9,32,9s-9,3.4-9.8,8.2c-0.1,0.5-0.5,0.8-1,0.8H21z M46,33.3L46,33.3
			L46,33.3z"/>
	</g>
	<g>
		<path class="st5" d="M46,48c-0.3,0-0.5-0.1-0.7-0.3l-2.5-2.5c-0.4-0.4-0.4-1,0-1.4s1-0.4,1.4,0l1.8,1.8l4.3-4.3
			c0.4-0.4,1-0.4,1.4,0s0.4,1,0,1.4l-5,5C46.5,47.9,46.3,48,46,48z"/>
	</g>
	<g>
		<path d="M47,57c-0.1,0-0.2,0-0.3,0c-1.7-0.5-3.3-1.3-4.7-2.4c-0.3-0.2-0.6-0.5-1-0.8c-0.9-0.9-1.7-2-2.4-3.1
			c-1.1-2-1.7-4.2-1.7-6.5v-8.6c0-0.4,0.3-0.8,0.7-1l9-2.6c0.2,0,0.4,0,0.5,0l9,2.6c0.4,0.1,0.7,0.5,0.7,1v8.6
			c0,3.2-1.2,6.3-3.3,8.7c-0.2,0.3-0.5,0.6-0.8,0.8c-1.6,1.5-3.5,2.6-5.6,3.2C47.2,57,47.1,57,47,57z M39,36.3v7.8
			c0,1.9,0.5,3.8,1.4,5.5c0.5,1,1.2,1.9,2,2.6c0.3,0.2,0.5,0.5,0.8,0.7c1.1,0.9,2.4,1.6,3.7,2c1.7-0.5,3.3-1.5,4.5-2.7
			c0.2-0.2,0.5-0.5,0.7-0.7c1.8-2.1,2.8-4.7,2.8-7.4v-7.8L47,34L39,36.3z"/>
	</g>
	<g>
		<path class="st5" d="M32,35c-0.6,0-1-0.4-1-1V17c0-0.6,0.4-1,1-1s1,0.4,1,1v17C33,34.6,32.6,35,32,35z"/>
	</g>
	<g>
		<path class="st5" d="M37,24H27c-0.6,0-1-0.4-1-1s0.4-1,1-1h10c0.6,0,1,0.4,1,1S37.6,24,37,24z"/>
	</g>
</g>
<g id="Sinking">
</g>
<g id="money_Insurance">
</g>
<g id="Education_Insurance">
</g>
<g id="Employee_Insurance">
</g>
<g id="car_insurance">
</g>
<g id="_Flight_Insurance">
</g>
<g id="Dental_Insurance">
</g>
<g id="Eye_Insurance">
</g>
<g id="life_Insurance">
</g>
<g id="Health_Insurance">
</g>
<g id="Family_Insurance">
</g>
<g id="Child_Insurance">
</g>
<g id="Salesman_Insurance">
</g>
<g id="Search_Insurance">
</g>
<g id="Call_Center">
</g>
<g id="User_Insurance">
</g>
<g id="Profile_Information">
</g>
<g id="Approved_Sign_Insurance">
</g>
<g id="calendar">
</g>
<g id="World_Wide_Protection">
</g>
<g id="Shield">
</g>
</svg>
