<svg xmlns="http://www.w3.org/2000/svg" xmlns:xlink="http://www.w3.org/1999/xlink" x="0" y="0" version="1.1" viewBox="0 0 64 64" xml:space="preserve" style="enable-background:new 0 0 64 64"><style type="text/css">.st0{opacity:.3}.st1{fill:#ff9e1f}</style><g id="Shield"><g class="st0"><g><circle cx="17" cy="47" r="12" class="st1"/></g></g><g><g><g><path d="M30,38c-0.3,0-0.5-0.1-0.7-0.3l-6-6c-0.4-0.4-0.4-1,0-1.4s1-0.4,1.4,0l5.3,5.3l9.3-9.3c0.4-0.4,1-0.4,1.4,0 s0.4,1,0,1.4l-10,10C30.5,37.9,30.3,38,30,38z" class="st1"/></g></g></g><g><path d="M32,60c-0.1,0-0.2,0-0.3,0C18.9,56.3,10,44.5,10,31.2V11c0-0.4,0.3-0.8,0.7-1l21-6C31.9,4,32.1,4,32.3,4l21,6 c0.4,0.1,0.7,0.5,0.7,1v20.2c0,13.3-8.9,25.1-21.7,28.8C32.2,60,32.1,60,32,60z M12,11.8v19.4c0,12.3,8.2,23.3,20,26.8 c11.8-3.5,20-14.5,20-26.8V11.8L32,6L12,11.8z"/></g><g><path d="M32,55.8c-0.1,0-0.2,0-0.3-0.1C21.1,52.2,14,42.3,14,31.2V14c0-0.4,0.3-0.8,0.7-1l17-4.9c0.2-0.1,0.4-0.1,0.5,0l17,4.9 c0.4,0.1,0.7,0.5,0.7,1v17.1c0,11.2-7.1,21-17.7,24.6C32.2,55.8,32.1,55.8,32,55.8z M16,14.8v16.4c0,10.2,6.4,19.2,16,22.6 c9.6-3.4,16-12.4,16-22.6V14.8l-16-4.6L16,14.8z"/></g></g></svg>