<?xml version="1.0" encoding="utf-8"?>
<!-- Generator: Adobe Illustrator 22.0.0, SVG Export Plug-In . SVG Version: 6.00 Build 0)  -->
<svg version="1.1" xmlns="http://www.w3.org/2000/svg" xmlns:xlink="http://www.w3.org/1999/xlink" x="0px" y="0px"
	 viewBox="0 0 64 64" style="enable-background:new 0 0 64 64;" xml:space="preserve">
<style type="text/css">
	.st0{opacity:0.3;}
	.st1{fill:#FF9E1F;}
	.st2{fill:#3CC451;}
	.st3{fill:#E13455;}
	.st4{opacity:0.2;}
	.st5{fill:#2394FB;}
</style>
<g id="Layer_1">
</g>
<g id="travel_Insurance">
</g>
<g id="Home_Insurance">
</g>
<g id="Female_Insurance">
</g>
<g id="Funerals_Insurance">
</g>
<g id="Sinking">
</g>
<g id="money_Insurance">
</g>
<g id="Education_Insurance">
</g>
<g id="Employee_Insurance">
</g>
<g id="car_insurance">
</g>
<g id="_Flight_Insurance">
</g>
<g id="Dental_Insurance">
</g>
<g id="Eye_Insurance">
</g>
<g id="life_Insurance">
</g>
<g id="Health_Insurance">
</g>
<g id="Family_Insurance">
</g>
<g id="Child_Insurance">
</g>
<g id="Salesman_Insurance">
</g>
<g id="Search_Insurance">
</g>
<g id="Call_Center">
</g>
<g id="User_Insurance">
</g>
<g id="Profile_Information">
</g>
<g id="Approved_Sign_Insurance">
	<g class="st0">
		<path class="st2" d="M29,17c0,2.2-0.6,4.3-1.7,6.1c-0.4,0.6-0.8,1.2-1.2,1.7c-1,1.2-2.2,2.1-3.6,2.8c-0.6,0.3-1.2,0.6-1.9,0.8
			C19.5,28.8,18.3,29,17,29c-6.6,0-12-5.4-12-12c0-1.3,0.2-2.5,0.6-3.7c0.2-0.7,0.5-1.3,0.8-1.9C8.3,7.6,12.4,5,17,5
			C23.6,5,29,10.4,29,17z"/>
	</g>
	<g>
		<path d="M59,20H47c-0.6,0-1-0.4-1-1v-2c0-1.9,0.7-3.6,2.1-5c1.3-1.3,3.1-2,4.9-2c3.9,0,7,3.1,7,7v2C60,19.6,59.6,20,59,20z M48,18
			h10v-1c0-2.8-2.2-5-5-5c-1.3,0-2.6,0.5-3.5,1.5c-1,0.9-1.5,2.2-1.5,3.5V18z"/>
	</g>
	<g>
		<path d="M41,54H11c-3.9,0-7-3.1-7-7v-2c0-0.6,0.4-1,1-1h30c0.6,0,1,0.4,1,1v2c0,2.8,2.2,5,5,5c0.6,0,1,0.4,1,1S41.6,54,41,54z
			 M6,46v1c0,2.8,2.2,5,5,5h25.1c-1.3-1.3-2.1-3-2.1-5v-1H6z"/>
	</g>
	<g>
		<path d="M41,54c-3.9,0-7-3.1-7-7v-1H17c-0.6,0-1-0.4-1-1V17c0-3.9,3.1-7,7-7h30c0.6,0,1,0.4,1,1s-0.4,1-1,1
			c-1.3,0-2.6,0.5-3.5,1.5c-1,0.9-1.5,2.2-1.5,3.5v13.9c0,0.4-0.3,0.8-0.7,1L42,33.3v7.8c0,3.5,1.6,6.7,4.3,8.8
			c0.2,0.2,0.3,0.4,0.4,0.7s0,0.5-0.2,0.7c-0.2,0.2-0.3,0.4-0.5,0.5C44.6,53.3,42.9,54,41,54z M18,44h17c0.6,0,1,0.4,1,1v2
			c0,2.8,2.2,5,5,5c1.2,0,2.3-0.4,3.2-1.2c-2.7-2.5-4.2-6-4.2-9.7v-8.6c0-0.4,0.3-0.8,0.7-1l5.3-1.5V17c0-1.9,0.7-3.6,2.1-5
			c0,0,0,0,0,0H23c-2.8,0-5,2.2-5,5V44z"/>
	</g>
	<g>
		<g>
			<path class="st2" d="M41,21H23c-0.6,0-1-0.4-1-1s0.4-1,1-1h18c0.6,0,1,0.4,1,1S41.6,21,41,21z"/>
		</g>
	</g>
	<g>
		<g>
			<path class="st2" d="M41,27H23c-0.6,0-1-0.4-1-1s0.4-1,1-1h18c0.6,0,1,0.4,1,1S41.6,27,41,27z"/>
		</g>
	</g>
	<g>
		<g>
			<path class="st2" d="M37,33H23c-0.6,0-1-0.4-1-1s0.4-1,1-1h14c0.6,0,1,0.4,1,1S37.6,33,37,33z"/>
		</g>
	</g>
	<g>
		<g>
			<path class="st2" d="M37,39H23c-0.6,0-1-0.4-1-1s0.4-1,1-1h14c0.6,0,1,0.4,1,1S37.6,39,37,39z"/>
		</g>
	</g>
	<g>
		<path d="M50,54c-0.1,0-0.2,0-0.3,0c-1.7-0.5-3.3-1.3-4.7-2.4c-3.2-2.5-5-6.3-5-10.4v-8.6c0-0.4,0.3-0.8,0.7-1l9-2.6
			c0.2-0.1,0.4-0.1,0.5,0l9,2.6c0.4,0.1,0.7,0.5,0.7,1v8.6c0,5.9-4,11.2-9.7,12.8C50.2,54,50.1,54,50,54z M42,33.3v7.8
			c0,3.5,1.6,6.7,4.3,8.8c1.1,0.9,2.4,1.6,3.7,2c4.7-1.5,8-5.9,8-10.8v-7.8L50,31L42,33.3z"/>
	</g>
	<g>
		<g>
			<path class="st2" d="M49,45c-0.3,0-0.5-0.1-0.7-0.3l-2.5-2.5c-0.4-0.4-0.4-1,0-1.4s1-0.4,1.4,0l1.8,1.8l4.3-4.3
				c0.4-0.4,1-0.4,1.4,0s0.4,1,0,1.4l-5,5C49.5,44.9,49.3,45,49,45z"/>
		</g>
	</g>
</g>
<g id="calendar">
</g>
<g id="World_Wide_Protection">
</g>
<g id="Shield">
</g>
</svg>
