<?xml version="1.0" encoding="utf-8"?>
<!-- Generator: Adobe Illustrator 22.0.0, SVG Export Plug-In . SVG Version: 6.00 Build 0)  -->
<svg version="1.1" xmlns="http://www.w3.org/2000/svg" xmlns:xlink="http://www.w3.org/1999/xlink" x="0px" y="0px"
	 viewBox="0 0 64 64" style="enable-background:new 0 0 64 64;" xml:space="preserve">
<style type="text/css">
	.st0{opacity:0.3;}
	.st1{fill:#FF9E1F;}
	.st2{fill:#3CC451;}
	.st3{fill:#E13455;}
	.st4{opacity:0.2;}
	.st5{fill:#2394FB;}
</style>
<g id="Layer_1">
</g>
<g id="travel_Insurance">
</g>
<g id="Home_Insurance">
</g>
<g id="Female_Insurance">
</g>
<g id="Funerals_Insurance">
</g>
<g id="Sinking">
</g>
<g id="money_Insurance">
</g>
<g id="Education_Insurance">
</g>
<g id="Employee_Insurance">
</g>
<g id="car_insurance">
</g>
<g id="_Flight_Insurance">
</g>
<g id="Dental_Insurance">
</g>
<g id="Eye_Insurance">
</g>
<g id="life_Insurance">
</g>
<g id="Health_Insurance">
</g>
<g id="Family_Insurance">
</g>
<g id="Child_Insurance">
</g>
<g id="Salesman_Insurance">
</g>
<g id="Search_Insurance">
</g>
<g id="Call_Center">
</g>
<g id="User_Insurance">
</g>
<g id="Profile_Information">
</g>
<g id="Approved_Sign_Insurance">
</g>
<g id="calendar">
</g>
<g id="World_Wide_Protection">
</g>
<g id="Shield">
	<g class="st0">
		<g>
			<circle class="st1" cx="17" cy="47" r="12"/>
		</g>
	</g>
	<g>
		<g>
			<g>
				<path class="st1" d="M30,38c-0.3,0-0.5-0.1-0.7-0.3l-6-6c-0.4-0.4-0.4-1,0-1.4s1-0.4,1.4,0l5.3,5.3l9.3-9.3c0.4-0.4,1-0.4,1.4,0
					s0.4,1,0,1.4l-10,10C30.5,37.9,30.3,38,30,38z"/>
			</g>
		</g>
	</g>
	<g>
		<path d="M32,60c-0.1,0-0.2,0-0.3,0C18.9,56.3,10,44.5,10,31.2V11c0-0.4,0.3-0.8,0.7-1l21-6C31.9,4,32.1,4,32.3,4l21,6
			c0.4,0.1,0.7,0.5,0.7,1v20.2c0,13.3-8.9,25.1-21.7,28.8C32.2,60,32.1,60,32,60z M12,11.8v19.4c0,12.3,8.2,23.3,20,26.8
			c11.8-3.5,20-14.5,20-26.8V11.8L32,6L12,11.8z"/>
	</g>
	<g>
		<path d="M32,55.8c-0.1,0-0.2,0-0.3-0.1C21.1,52.2,14,42.3,14,31.2V14c0-0.4,0.3-0.8,0.7-1l17-4.9c0.2-0.1,0.4-0.1,0.5,0l17,4.9
			c0.4,0.1,0.7,0.5,0.7,1v17.1c0,11.2-7.1,21-17.7,24.6C32.2,55.8,32.1,55.8,32,55.8z M16,14.8v16.4c0,10.2,6.4,19.2,16,22.6
			c9.6-3.4,16-12.4,16-22.6V14.8l-16-4.6L16,14.8z"/>
	</g>
</g>
</svg>
