<?xml version="1.0" encoding="utf-8"?>
<!-- Generator: Adobe Illustrator 22.0.0, SVG Export Plug-In . SVG Version: 6.00 Build 0)  -->
<svg version="1.1" xmlns="http://www.w3.org/2000/svg" xmlns:xlink="http://www.w3.org/1999/xlink" x="0px" y="0px"
	 viewBox="0 0 64 64" style="enable-background:new 0 0 64 64;" xml:space="preserve">
<style type="text/css">
	.st0{opacity:0.3;}
	.st1{fill:#FF9E1F;}
	.st2{fill:#3CC451;}
	.st3{fill:#E13455;}
	.st4{opacity:0.2;}
	.st5{fill:#2394FB;}
</style>
<g id="Layer_1">
</g>
<g id="travel_Insurance">
</g>
<g id="Home_Insurance">
	<g class="st0">
		<g>
			<path class="st2" d="M25,41c0,2.2-0.6,4.3-1.7,6.1c-0.4,0.6-0.8,1.2-1.2,1.7c-1,1.2-2.2,2.1-3.6,2.8c-0.6,0.3-1.2,0.6-1.9,0.8
				C15.5,52.8,14.3,53,13,53C6.4,53,1,47.6,1,41c0-1.3,0.2-2.5,0.6-3.7c0.2-0.7,0.5-1.3,0.8-1.9c2-3.8,6-6.5,10.7-6.5
				C19.6,29,25,34.4,25,41z"/>
		</g>
	</g>
	<g>
		<path class="st2" d="M45,48c-0.3,0-0.5-0.1-0.7-0.3l-2.5-2.5c-0.4-0.4-0.4-1,0-1.4s1-0.4,1.4,0l1.8,1.8l4.3-4.3
			c0.4-0.4,1-0.4,1.4,0s0.4,1,0,1.4l-5,5C45.5,47.9,45.3,48,45,48z"/>
	</g>
	<g>
		<path d="M54.2,25c-0.5,0-1-0.1-1.4-0.4l-3.3-1.8c0,0-0.1,0-0.1-0.1l-17-9.2c-0.3-0.2-0.7-0.2-0.9,0l-20.3,11
			c-1.4,0.8-3.3,0.2-4.1-1.2c-0.2-0.4-0.4-0.9-0.4-1.4c0-1.1,0.6-2.1,1.6-2.6l20.3-11c2.1-1.1,4.6-1.1,6.7,0l20.3,11
			c0.7,0.4,1.2,1,1.5,1.8c0.2,0.8,0.1,1.6-0.2,2.3C56.3,24.5,55.3,25,54.2,25z M32,11.5c0.5,0,1,0.1,1.4,0.4l17,9.2
			c0,0,0.1,0,0.1,0.1l3.2,1.8c0.5,0.3,1.1,0.1,1.4-0.4c0.1-0.2,0.2-0.5,0.1-0.8c-0.1-0.3-0.2-0.5-0.5-0.6l-20.3-11
			c-1.5-0.8-3.3-0.8-4.8,0l-20.3,11C9,21.3,8.8,21.7,8.8,22c0,0.2,0,0.3,0.1,0.5c0.3,0.5,0.9,0.7,1.4,0.4l20.3-11
			C31,11.7,31.5,11.5,32,11.5z"/>
	</g>
	<g>
		<path class="st2" d="M37.6,49H25c-0.6,0-1-0.4-1-1V30c0-1.7,1.3-3,3-3h10c1.7,0,3,1.3,3,3v5c0,0.4-0.3,0.8-0.7,1L38,36.3v7.8
			c0,0.2,0,0.4,0,0.7c0.1,1,0.2,1.9,0.6,2.9c0.1,0.3,0.1,0.6-0.1,0.9C38.3,48.8,38,49,37.6,49z M26,47h10.3
			c-0.2-0.7-0.2-1.4-0.3-2.1c0-0.3,0-0.5,0-0.8v-8.6c0-0.4,0.3-0.8,0.7-1l1.3-0.4V30c0-0.6-0.4-1-1-1H27c-0.6,0-1,0.4-1,1V47z"/>
	</g>
	<g>
		<path d="M46,57c-0.1,0-0.2,0-0.3,0c-1.6-0.5-3.1-1.2-4.4-2.2c-0.1-0.1-0.2-0.1-0.3-0.2c-0.3-0.2-0.6-0.5-1-0.8
			c-0.9-0.9-1.7-2-2.4-3.1c-0.4-0.8-0.8-1.5-1-2.3c-0.4-1.1-0.6-2.2-0.6-3.4c0-0.3,0-0.5,0-0.8v-8.6c0-0.4,0.3-0.8,0.7-1l9-2.6
			c0.2,0,0.4,0,0.5,0l9,2.6c0.4,0.1,0.7,0.5,0.7,1v8.6c0,3.2-1.2,6.3-3.3,8.7c-0.2,0.3-0.5,0.6-0.8,0.8c-1.6,1.5-3.5,2.6-5.6,3.2
			C46.2,57,46.1,57,46,57z M38,36.3v7.8c0,0.2,0,0.4,0,0.7c0.1,1,0.2,1.9,0.6,2.9c0.2,0.7,0.5,1.3,0.9,2c0.5,1,1.2,1.9,2,2.6
			c0.3,0.2,0.5,0.5,0.8,0.7c0.1,0.1,0.2,0.1,0.2,0.2c1.1,0.8,2.2,1.4,3.5,1.8c1.7-0.5,3.3-1.5,4.5-2.7c0.2-0.2,0.5-0.5,0.7-0.7
			c1.8-2.1,2.8-4.7,2.8-7.4v-7.8L46,34L38,36.3z"/>
	</g>
	<g>
		<path d="M37.6,49H16c-1.7,0-3-1.3-3-3V22c0-0.3,0.2-0.7,0.5-0.9c0,0,0.1,0,0.1-0.1l17-9.2c0.9-0.5,2-0.5,2.9,0l17,9.2
			c0,0,0.1,0,0.1,0.1c0.3,0.2,0.5,0.5,0.5,0.9v12.1c0,0.3-0.1,0.6-0.4,0.8c-0.3,0.2-0.6,0.2-0.9,0.2L46,34l-8,2.3v7.8
			c0,0.2,0,0.4,0,0.7c0.1,1,0.2,1.9,0.6,2.9c0.1,0.3,0.1,0.6-0.1,0.9C38.3,48.8,38,49,37.6,49z M15,22.6V46c0,0.6,0.4,1,1,1h20.3
			c-0.2-0.7-0.2-1.4-0.3-2.1c0-0.3,0-0.5,0-0.8v-8.6c0-0.4,0.3-0.8,0.7-1l9-2.6c0.2,0,0.4,0,0.5,0l2.7,0.8V22.6l-16.5-9
			c-0.3-0.2-0.7-0.2-0.9,0L15,22.6z"/>
	</g>
</g>
<g id="Female_Insurance">
</g>
<g id="Funerals_Insurance">
</g>
<g id="Sinking">
</g>
<g id="money_Insurance">
</g>
<g id="Education_Insurance">
</g>
<g id="Employee_Insurance">
</g>
<g id="car_insurance">
</g>
<g id="_Flight_Insurance">
</g>
<g id="Dental_Insurance">
</g>
<g id="Eye_Insurance">
</g>
<g id="life_Insurance">
</g>
<g id="Health_Insurance">
</g>
<g id="Family_Insurance">
</g>
<g id="Child_Insurance">
</g>
<g id="Salesman_Insurance">
</g>
<g id="Search_Insurance">
</g>
<g id="Call_Center">
</g>
<g id="User_Insurance">
</g>
<g id="Profile_Information">
</g>
<g id="Approved_Sign_Insurance">
</g>
<g id="calendar">
</g>
<g id="World_Wide_Protection">
</g>
<g id="Shield">
</g>
</svg>
