<?xml version="1.0" encoding="utf-8"?>
<!-- Generator: Adobe Illustrator 22.0.0, SVG Export Plug-In . SVG Version: 6.00 Build 0)  -->
<svg version="1.1" xmlns="http://www.w3.org/2000/svg" xmlns:xlink="http://www.w3.org/1999/xlink" x="0px" y="0px"
	 viewBox="0 0 64 64" style="enable-background:new 0 0 64 64;" xml:space="preserve">
<style type="text/css">
	.st0{opacity:0.3;}
	.st1{fill:#FF9E1F;}
	.st2{fill:#3CC451;}
	.st3{fill:#E13455;}
	.st4{opacity:0.2;}
	.st5{fill:#2394FB;}
</style>
<g id="Layer_1">
</g>
<g id="travel_Insurance">
</g>
<g id="Home_Insurance">
</g>
<g id="Female_Insurance">
	<g class="st0">
		<path class="st3" d="M56,32c0,2.2-0.6,4.3-1.7,6.1c-0.4,0.6-0.8,1.2-1.2,1.7c-1,1.2-2.2,2.1-3.6,2.8c-0.6,0.3-1.2,0.6-1.9,0.8
			C46.5,43.8,45.3,44,44,44c-6.6,0-12-5.4-12-12c0-1.3,0.2-2.5,0.6-3.7c0.2-0.7,0.5-1.3,0.8-1.9c2-3.8,6-6.5,10.7-6.5
			C50.6,20,56,25.4,56,32z"/>
	</g>
	<g>
		<path d="M38,43h-8c-0.6,0-1-0.4-1-1v-3.2c0-0.5,0.3-0.9,0.7-1c4.4-1.2,7.6-5,7.9-9.5L38,24h-9.5c-2.6,0-4.9-1.2-6.5-3.1
			c-0.6,0.8-1.3,1.4-2.1,1.9c-1.2,0.7-2.5,1.1-3.9,1.2l0.3,4.3c0.3,4.5,3.5,8.4,7.9,9.5c0.4,0.1,0.7,0.5,0.7,1V42c0,0.6-0.4,1-1,1
			h-9c-2.8,0-5-2.2-5-5V24.4C10,14.9,17.6,7.1,26.9,7c4.6,0,8.9,1.7,12.2,5c3.2,3.2,5,7.5,5,12v10.1c0,0.4-0.3,0.8-0.7,1L39,36.3V42
			C39,42.6,38.6,43,38,43z M31,41h6v-5.4c0-0.1,0-0.2,0.1-0.3c-1.5,2-3.6,3.5-6.1,4.3V41z M27,9c0,0-0.1,0-0.1,0
			C18.7,9.1,12,16,12,24.4V38c0,1.7,1.3,3,3,3h8v-1.5c-4.8-1.6-8.3-6-8.7-11.1L14,23.7c0-0.2,0-0.5,0-0.7c0-0.6,0.4-1,1-1h0.6
			c1.2,0,2.3-0.3,3.3-0.9c1-0.6,1.8-1.5,2.3-2.5c0.2-0.3,0.5-0.5,0.9-0.5c0.4,0,0.7,0.2,0.9,0.6c1.1,2.1,3.2,3.4,5.6,3.4h10
			c0.3,0,0.5,0.1,0.7,0.3c0.2,0.2,0.3,0.3,0.5,0.5l0.1,0.1c0.2,0.2,0.3,0.5,0.3,0.8l-0.4,4.8c-0.2,2.3-1,4.5-2.3,6.3
			c0.1-0.1,0.2-0.1,0.3-0.2l4.3-1.2V24c0-4-1.6-7.8-4.4-10.6C34.8,10.6,31,9,27,9z"/>
	</g>
	<g>
		<path d="M27,40.2c-1.1,0-2.2-0.1-3.3-0.4c-5.2-1.4-9-5.9-9.4-11.3L14,23.7c0-0.2,0-0.5,0-0.7c0-0.6,0.4-1,1-1h0.6
			c1.2,0,2.3-0.3,3.3-0.9c1-0.6,1.8-1.5,2.3-2.5c0.2-0.3,0.5-0.5,0.9-0.5c0.4,0,0.7,0.2,0.9,0.6c1.1,2.1,3.2,3.4,5.6,3.4H39
			c0.6,0,1,0.4,1,1c0,0.2,0,0.4,0,0.6l-0.4,4.8c-0.4,5.4-4.2,9.9-9.4,11.3C29.2,40,28.1,40.2,27,40.2z M16,24l0.3,4.3
			c0.3,4.5,3.5,8.4,7.9,9.5c1.8,0.5,3.7,0.5,5.5,0c4.4-1.2,7.6-5,7.9-9.5L38,24h-9.5c-2.6,0-4.9-1.2-6.5-3.1
			c-0.6,0.8-1.3,1.4-2.1,1.9C18.7,23.5,17.4,23.9,16,24z"/>
	</g>
	<g>
		<path class="st3" d="M46,48c-0.3,0-0.5-0.1-0.7-0.3l-2.5-2.5c-0.4-0.4-0.4-1,0-1.4s1-0.4,1.4,0l1.8,1.8l4.3-4.3
			c0.4-0.4,1-0.4,1.4,0s0.4,1,0,1.4l-5,5C46.5,47.9,46.3,48,46,48z"/>
	</g>
	<g>
		<path d="M47,57c-0.1,0-0.2,0-0.3,0c-1.6-0.5-3.1-1.2-4.4-2.2c-0.1-0.1-0.2-0.1-0.3-0.2c-0.3-0.2-0.6-0.5-1-0.8
			c-0.9-0.9-1.7-2-2.4-3.1c-1-1.8-1.5-3.7-1.7-5.7c0-0.3,0-0.5,0-0.8v-8.6c0-0.4,0.3-0.8,0.7-1l9-2.6c0.2,0,0.4,0,0.5,0l9,2.6
			c0.4,0.1,0.7,0.5,0.7,1v8.6c0,3.2-1.2,6.3-3.3,8.7c-0.2,0.3-0.5,0.6-0.8,0.8c-1.6,1.5-3.5,2.6-5.6,3.2C47.2,57,47.1,57,47,57z
			 M39,36.3v7.8c0,0.2,0,0.4,0,0.7c0.1,1.7,0.6,3.4,1.4,4.8c0.5,1,1.2,1.9,2,2.6c0.3,0.2,0.5,0.5,0.8,0.7c0.1,0.1,0.2,0.1,0.2,0.2
			c1.1,0.8,2.2,1.4,3.5,1.8c1.7-0.5,3.3-1.5,4.5-2.7c0.2-0.2,0.5-0.5,0.7-0.7c1.8-2.1,2.8-4.7,2.8-7.4v-7.8L47,34L39,36.3z"/>
	</g>
	<g>
		<path d="M43,57H11c-0.6,0-1-0.4-1-1v-0.8c0-4.9,2.5-9.4,6.6-12c0.3-0.2,0.6-0.2,0.9-0.1c0.3,0.1,0.5,0.4,0.6,0.7
			c0.4,2.4,2.5,4.1,4.9,4.1c1.7,0,3-1.3,3-3c0-0.6,0.4-1,1-1s1,0.4,1,1c0,1.7,1.3,3,3,3c1.3,0,2.6-0.5,3.5-1.5
			c0.7-0.7,1.2-1.6,1.4-2.6c0.1-0.3,0.3-0.6,0.6-0.7c0.3-0.1,0.7-0.1,0.9,0.1c0.4,0.3,0.8,0.6,1.2,0.9c0.2,0.2,0.4,0.4,0.4,0.7
			c0.1,1.7,0.6,3.3,1.4,4.8c0.5,1,1.2,1.9,2,2.6c0.3,0.2,0.5,0.5,0.8,0.7c0.1,0.1,0.2,0.1,0.2,0.2c0.2,0.2,0.4,0.4,0.4,0.7
			c0,0.4,0.1,0.9,0.1,1.3V56C44,56.6,43.6,57,43,57z M12,55h30c0-0.2,0-0.3,0-0.5c-0.3-0.2-0.6-0.5-0.9-0.8c-0.9-0.9-1.7-2-2.4-3.1
			c-0.8-1.4-1.3-2.8-1.5-4.3c-0.3,0.6-0.7,1.2-1.2,1.7C34.6,49.3,32.9,50,31,50c-1.6,0-3.1-0.8-4-2c-0.9,1.2-2.4,2-4,2
			c-2.9,0-5.4-1.7-6.5-4.3C13.7,48,12.1,51.3,12,55z"/>
	</g>
	<g>
		<path class="st3" d="M31,50c-2.8,0-5-2.2-5-5c0-0.6,0.4-1,1-1c1.1,0,2-0.9,2-2c0-0.5,0.5-1,1-1c0.8,0,1.7,0.1,2.7,0.3l0,0
			c0,0,0.1,0,0.1,0c1.7,0.4,3.2,1,4.6,1.9c0.3,0.2,0.5,0.6,0.4,1c-0.2,1.4-0.9,2.7-1.9,3.7C34.6,49.3,32.9,50,31,50z M28.1,45.8
			c0.4,1.2,1.5,2.2,2.9,2.2c1.3,0,2.6-0.5,3.5-1.5c0.6-0.6,1-1.2,1.2-2c-1.1-0.6-2.2-1-3.4-1.3c0,0-0.1,0-0.1,0
			c-0.5-0.1-0.9-0.2-1.4-0.2C30.5,44.4,29.4,45.5,28.1,45.8z"/>
	</g>
	<g>
		<path class="st3" d="M23,50c-3.4,0-6.3-2.4-6.9-5.8c-0.1-0.4,0.1-0.8,0.4-1c1.4-0.9,3-1.6,4.7-1.9c0,0,0.1,0,0.1,0l0,0
			c0.9-0.2,1.8-0.3,2.7-0.3c0.5,0,1,0.4,1,1c0,1.1,0.9,2,2,2c0.6,0,1,0.4,1,1C28,47.8,25.8,50,23,50z M18.3,44.5
			c0.6,2,2.5,3.5,4.7,3.5c1.4,0,2.5-0.9,2.9-2.2c-1.3-0.4-2.4-1.5-2.7-2.8c-0.4,0-0.9,0.1-1.4,0.2c0,0-0.1,0-0.1,0
			C20.5,43.5,19.3,44,18.3,44.5z"/>
	</g>
	<path d="M31,38.8c0-0.3-0.1-0.6-0.4-0.8c-0.2-0.2-0.6-0.3-0.9-0.2c-1.8,0.5-3.7,0.5-5.5,0c-0.3-0.1-0.6,0-0.9,0.2
		c-0.2,0.2-0.4,0.5-0.4,0.8V42h2v-2c1.3,0.2,2.7,0.2,4,0v2c0,1.1-0.9,2-2,2s-2-0.9-2-2l-2,0c0,2.2,1.8,4,4,4s4-1.8,4-4l-1,0h1V38.8z
		"/>
</g>
<g id="Funerals_Insurance">
</g>
<g id="Sinking">
</g>
<g id="money_Insurance">
</g>
<g id="Education_Insurance">
</g>
<g id="Employee_Insurance">
</g>
<g id="car_insurance">
</g>
<g id="_Flight_Insurance">
</g>
<g id="Dental_Insurance">
</g>
<g id="Eye_Insurance">
</g>
<g id="life_Insurance">
</g>
<g id="Health_Insurance">
</g>
<g id="Family_Insurance">
</g>
<g id="Child_Insurance">
</g>
<g id="Salesman_Insurance">
</g>
<g id="Search_Insurance">
</g>
<g id="Call_Center">
</g>
<g id="User_Insurance">
</g>
<g id="Profile_Information">
</g>
<g id="Approved_Sign_Insurance">
</g>
<g id="calendar">
</g>
<g id="World_Wide_Protection">
</g>
<g id="Shield">
</g>
</svg>
