<?xml version="1.0" encoding="utf-8"?>
<!-- Generator: Adobe Illustrator 22.0.0, SVG Export Plug-In . SVG Version: 6.00 Build 0)  -->
<svg version="1.1" xmlns="http://www.w3.org/2000/svg" xmlns:xlink="http://www.w3.org/1999/xlink" x="0px" y="0px"
	 viewBox="0 0 64 64" style="enable-background:new 0 0 64 64;" xml:space="preserve">
<style type="text/css">
	.st0{opacity:0.3;}
	.st1{fill:#FF9E1F;}
	.st2{fill:#3CC451;}
	.st3{fill:#E13455;}
	.st4{opacity:0.2;}
	.st5{fill:#2394FB;}
</style>
<g id="Layer_1">
</g>
<g id="travel_Insurance">
</g>
<g id="Home_Insurance">
</g>
<g id="Female_Insurance">
</g>
<g id="Funerals_Insurance">
</g>
<g id="Sinking">
</g>
<g id="money_Insurance">
	<g class="st0">
		<path class="st2" d="M29,26c0,2.2-0.6,4.3-1.7,6.1c-0.4,0.6-0.8,1.2-1.2,1.7c-1,1.2-2.2,2.1-3.6,2.8c-0.6,0.3-1.2,0.6-1.9,0.8
			C19.5,37.8,18.3,38,17,38c-6.6,0-12-5.4-12-12c0-1.3,0.2-2.5,0.6-3.7c0.2-0.7,0.5-1.3,0.8-1.9c2-3.8,6-6.5,10.7-6.5
			C23.6,14,29,19.4,29,26z"/>
	</g>
	<g>
		<path d="M40.1,52H12c-2.5,0-4.7-1.9-5-4.4c0-0.2,0-0.4,0-0.6V27c0-2.5,1.8-4.6,4.2-4.9c0.3,0,0.5-0.1,0.8-0.1h38
			c1.3,0,2.6,0.5,3.5,1.4c0.6,0.7,1.1,1.4,1.3,2.3c0.1,0.4,0.2,0.9,0.2,1.3v8c0,0.3-0.1,0.6-0.4,0.8S54,36,53.7,36L47,34l-8,2.3v7.8
			c0,0.6,0,1.1,0.1,1.7c0.2,1.7,0.9,3.2,1.8,4.6c0.2,0.3,0.2,0.7,0.1,1C40.8,51.8,40.5,52,40.1,52z M12,24c-0.2,0-0.3,0-0.5,0
			C10.1,24.3,9,25.5,9,27v20c0,0.1,0,0.2,0,0.4c0.2,1.5,1.5,2.6,3,2.6h26.4c-0.6-1.2-1-2.5-1.2-3.9c-0.1-0.6-0.2-1.3-0.2-2v-8.6
			c0-0.4,0.3-0.8,0.7-1l9-2.6c0.2-0.1,0.4-0.1,0.5,0l5.7,1.6V27c0-0.3,0-0.5-0.1-0.8c-0.1-0.5-0.4-1-0.8-1.4
			C51.5,24.3,50.8,24,50,24H12z"/>
	</g>
	<g>
		<path d="M38.2,47H17c-0.6,0-1-0.4-1-1c0-1.7-1.3-3-3-3c-0.6,0-1-0.4-1-1V32c0-0.6,0.4-1,1-1c1.7,0,3-1.3,3-3c0-0.6,0.4-1,1-1h28
			c0.6,0,1,0.4,1,1c0,1.7,1.3,3,3,3c0.6,0,1,0.4,1,1v1.6c0,0.3-0.1,0.6-0.4,0.8c-0.3,0.2-0.6,0.2-0.9,0.2L47,34l-8,2.3v7.8
			c0,0.6,0,1.1,0.1,1.7c0,0.3,0,0.6-0.2,0.8C38.7,46.9,38.4,47,38.2,47z M17.9,45H37c0-0.3,0-0.6,0-0.9v-8.6c0-0.4,0.3-0.8,0.7-1
			l8.5-2.4c-1.1-0.7-1.9-1.9-2.1-3.2H17.9c-0.4,2-1.9,3.5-3.9,3.9v8.2C16,41.5,17.5,43,17.9,45z"/>
	</g>
	<g>
		<path d="M31,44c-3.9,0-7-3.1-7-7s3.1-7,7-7s7,3.1,7,7S34.9,44,31,44z M31,32c-2.8,0-5,2.2-5,5s2.2,5,5,5s5-2.2,5-5S33.8,32,31,32z
			"/>
	</g>
	<g>
		<path d="M40.1,52H12c-2.5,0-4.7-1.9-5-4.4c0-0.2,0-0.4,0-0.6V27c0-2.5,1.8-4.6,4.2-4.9c0.3,0,0.5-0.1,0.8-0.1h38
			c1.3,0,2.6,0.5,3.5,1.4c0.6,0.7,1.1,1.4,1.3,2.3c0.1,0.4,0.2,0.9,0.2,1.3v8c0,0.3-0.1,0.6-0.4,0.8S54,36,53.7,36L47,34l-8,2.3v7.8
			c0,0.6,0,1.1,0.1,1.7c0.2,1.7,0.9,3.2,1.8,4.6c0.2,0.3,0.2,0.7,0.1,1C40.8,51.8,40.5,52,40.1,52z M12,24c-0.2,0-0.3,0-0.5,0
			C10.1,24.3,9,25.5,9,27v20c0,0.1,0,0.2,0,0.4c0.2,1.5,1.5,2.6,3,2.6h26.4c-0.6-1.2-1-2.5-1.2-3.9c-0.1-0.6-0.2-1.3-0.2-2v-8.6
			c0-0.4,0.3-0.8,0.7-1l9-2.6c0.2-0.1,0.4-0.1,0.5,0l5.7,1.6V27c0-0.3,0-0.5-0.1-0.8c-0.1-0.5-0.4-1-0.8-1.4
			C51.5,24.3,50.8,24,50,24H12z"/>
	</g>
	<g>
		<path d="M38.2,47H17c-0.6,0-1-0.4-1-1c0-1.7-1.3-3-3-3c-0.6,0-1-0.4-1-1V32c0-0.6,0.4-1,1-1c1.7,0,3-1.3,3-3c0-0.6,0.4-1,1-1h28
			c0.6,0,1,0.4,1,1c0,1.7,1.3,3,3,3c0.6,0,1,0.4,1,1v1.6c0,0.3-0.1,0.6-0.4,0.8c-0.3,0.2-0.6,0.2-0.9,0.2L47,34l-8,2.3v7.8
			c0,0.6,0,1.1,0.1,1.7c0,0.3,0,0.6-0.2,0.8C38.7,46.9,38.4,47,38.2,47z M17.9,45H37c0-0.3,0-0.6,0-0.9v-8.6c0-0.4,0.3-0.8,0.7-1
			l8.5-2.4c-1.1-0.7-1.9-1.9-2.1-3.2H17.9c-0.4,2-1.9,3.5-3.9,3.9v8.2C16,41.5,17.5,43,17.9,45z"/>
	</g>
	<g>
		<path class="st2" d="M31,44c-3.9,0-7-3.1-7-7s3.1-7,7-7s7,3.1,7,7S34.9,44,31,44z M31,32c-2.8,0-5,2.2-5,5s2.2,5,5,5s5-2.2,5-5
			S33.8,32,31,32z"/>
	</g>
	<g>
		<path d="M52.7,25.2c-0.3,0-0.5-0.1-0.7-0.3c-0.6-0.6-1.3-0.9-2.1-0.9h-3.6c-0.4,0-0.7-0.2-0.9-0.5l-2.9-5
			c-0.9,0.3-1.9,0.3-2.9,0.1c-1-0.3-1.8-0.8-2.4-1.5l-11.8,6.8C25.2,24,25,24,24.9,24h-10c-0.5,0-0.8-0.3-1-0.7
			c-0.1-0.4,0.1-0.9,0.5-1.1l0.2-0.1L38.7,8.1c1.2-0.7,2.5-0.8,3.8-0.5c1.3,0.3,2.4,1.2,3,2.3l7.9,13.8c0.2,0.4,0.1,1-0.3,1.3
			C53.1,25.1,52.9,25.2,52.7,25.2z M46.8,22h3c0.1,0,0.3,0,0.4,0l-6.4-11.1c-0.4-0.7-1-1.2-1.8-1.4c-0.8-0.2-1.6-0.1-2.3,0.3
			L18.6,22h6l12.3-7.1c0.2-0.1,0.5-0.2,0.8-0.1c0.3,0.1,0.5,0.2,0.6,0.5c0.4,0.7,1,1.2,1.8,1.4c0.8,0.2,1.6,0.1,2.3-0.3
			c0.5-0.3,1.1-0.1,1.4,0.4L46.8,22z"/>
	</g>
	<g>
		<path d="M46.2,24H24.9c-0.5,0-0.8-0.3-1-0.7s0.1-0.9,0.5-1.1l12.6-7.3c0.2-0.1,0.5-0.2,0.8-0.1c0.3,0.1,0.5,0.2,0.6,0.5
			c0.4,0.7,1,1.2,1.8,1.4c0.8,0.2,1.6,0.1,2.3-0.3c0.5-0.3,1.1-0.1,1.4,0.4l3.3,5.8c0.2,0.3,0.2,0.7,0,1S46.6,24,46.2,24z M28.6,22
			h15.9l-2-3.5c-0.9,0.3-1.9,0.3-2.9,0.1c-1-0.3-1.8-0.8-2.4-1.5L28.6,22z"/>
	</g>
	<g>
		<path d="M47,57c-0.1,0-0.2,0-0.3,0c-1.7-0.5-3.3-1.3-4.7-2.4c-0.3-0.2-0.6-0.5-0.9-0.8c-0.6-0.5-1.1-1.2-1.6-1.9
			c-0.1-0.1-0.2-0.3-0.3-0.4c-1.1-1.6-1.8-3.4-2.1-5.4c-0.1-0.6-0.2-1.3-0.2-2v-8.6c0-0.4,0.3-0.8,0.7-1l9-2.6
			c0.2-0.1,0.4-0.1,0.5,0l9,2.6c0.4,0.1,0.7,0.5,0.7,1v8.6c0,5.9-4,11.2-9.7,12.8C47.2,57,47.1,57,47,57z M39,36.3v7.8
			c0,0.6,0,1.1,0.1,1.7c0.2,1.7,0.9,3.2,1.8,4.6c0,0,0,0.1,0.1,0.1c0,0.1,0.1,0.1,0.1,0.2c0.4,0.6,0.9,1.1,1.4,1.6
			c0.3,0.3,0.5,0.4,0.7,0.6c1.1,0.9,2.4,1.5,3.7,2c4.7-1.5,8-5.9,8-10.8v-7.8L47,34L39,36.3z"/>
	</g>
	<g>
		<path class="st2" d="M46,48c-0.3,0-0.5-0.1-0.7-0.3l-2.5-2.5c-0.4-0.4-0.4-1,0-1.4s1-0.4,1.4,0l1.8,1.8l4.3-4.3
			c0.4-0.4,1-0.4,1.4,0s0.4,1,0,1.4l-5,5C46.5,47.9,46.3,48,46,48z"/>
	</g>
</g>
<g id="Education_Insurance">
</g>
<g id="Employee_Insurance">
</g>
<g id="car_insurance">
</g>
<g id="_Flight_Insurance">
</g>
<g id="Dental_Insurance">
</g>
<g id="Eye_Insurance">
</g>
<g id="life_Insurance">
</g>
<g id="Health_Insurance">
</g>
<g id="Family_Insurance">
</g>
<g id="Child_Insurance">
</g>
<g id="Salesman_Insurance">
</g>
<g id="Search_Insurance">
</g>
<g id="Call_Center">
</g>
<g id="User_Insurance">
</g>
<g id="Profile_Information">
</g>
<g id="Approved_Sign_Insurance">
</g>
<g id="calendar">
</g>
<g id="World_Wide_Protection">
</g>
<g id="Shield">
</g>
</svg>
