<?xml version="1.0" encoding="utf-8"?>
<!-- Generator: Adobe Illustrator 22.0.0, SVG Export Plug-In . SVG Version: 6.00 Build 0)  -->
<svg version="1.1" xmlns="http://www.w3.org/2000/svg" xmlns:xlink="http://www.w3.org/1999/xlink" x="0px" y="0px"
	 viewBox="0 0 64 64" style="enable-background:new 0 0 64 64;" xml:space="preserve">
<style type="text/css">
	.st0{opacity:0.3;}
	.st1{fill:#FF9E1F;}
	.st2{fill:#3CC451;}
	.st3{fill:#E13455;}
	.st4{opacity:0.2;}
	.st5{fill:#2394FB;}
</style>
<g id="Layer_1">
</g>
<g id="travel_Insurance">
</g>
<g id="Home_Insurance">
</g>
<g id="Female_Insurance">
</g>
<g id="Funerals_Insurance">
</g>
<g id="Sinking">
</g>
<g id="money_Insurance">
</g>
<g id="Education_Insurance">
</g>
<g id="Employee_Insurance">
	<g class="st0">
		<path class="st1" d="M59,28c0,2.2-0.6,4.3-1.7,6.1c-0.4,0.6-0.8,1.2-1.2,1.7c-1,1.2-2.2,2.1-3.6,2.8c-0.6,0.3-1.2,0.6-1.9,0.8
			C49.5,39.8,48.3,40,47,40c-6.6,0-12-5.4-12-12c0-1.3,0.2-2.5,0.6-3.7c0.2-0.7,0.5-1.3,0.8-1.9c2-3.8,6-6.5,10.7-6.5
			C53.6,16,59,21.4,59,28z"/>
	</g>
	<g>
		<path d="M32,60c-0.1,0-0.2,0-0.3,0C18.9,56.3,10,44.5,10,31.2V11c0-0.4,0.3-0.8,0.7-1l21-6C31.9,4,32.1,4,32.3,4l21,6
			c0.4,0.1,0.7,0.5,0.7,1v20.2c0,13.3-8.9,25.1-21.7,28.8C32.2,60,32.1,60,32,60z M12,11.8v19.4c0,12.3,8.2,23.3,20,26.8
			c11.8-3.5,20-14.5,20-26.8V11.8L32,6L12,11.8z"/>
	</g>
	<g>
		<path d="M32,55.8c-0.1,0-0.2,0-0.3-0.1C21.1,52.2,14,42.3,14,31.2V14c0-0.4,0.3-0.8,0.7-1l17-4.9c0.2-0.1,0.4-0.1,0.5,0l17,4.9
			c0.4,0.1,0.7,0.5,0.7,1v17.1c0,11.2-7.1,21-17.7,24.6C32.2,55.8,32.1,55.8,32,55.8z M16,14.8v16.4c0,10.2,6.4,19.2,16,22.6
			c9.6-3.4,16-12.4,16-22.6V14.8l-16-4.6L16,14.8z"/>
	</g>
	<g>
		<path class="st1" d="M33,25h-2c-1.6,0-3.1-0.9-3.8-2.3l-0.8-1.5c-0.3-0.6-0.4-1.2-0.4-1.9c0-2.3,1.9-4.2,4.2-4.2h3.5
			c2.3,0,4.2,1.9,4.2,4.2c0,0.7-0.2,1.3-0.4,1.9l-0.8,1.5C36.1,24.1,34.6,25,33,25z M30.2,17C29,17,28,18,28,19.2
			c0,0.3,0.1,0.7,0.2,1l0.8,1.5c0.4,0.8,1.1,1.2,2,1.2h2c0.9,0,1.6-0.5,2-1.2l0.8-1.5c0.2-0.3,0.2-0.7,0.2-1c0-1.2-1-2.2-2.2-2.2
			H30.2z"/>
	</g>
	<g>
		<path class="st1" d="M32,50c-0.9,0-1.8-0.4-2.4-1.1l-3.3-4c-0.8-1-1.3-2.2-1.3-3.5c0-0.3,0-0.6,0.1-1l2.7-14.9
			c0.2-1.4,1.5-2.5,3-2.5h2.6c1.5,0,2.7,1.1,3,2.5l2.7,14.9c0.1,0.3,0.1,0.6,0.1,1c0,1.3-0.4,2.5-1.3,3.5l-3.3,4
			C33.8,49.6,32.9,50,32,50z M30.7,25c-0.5,0-0.9,0.4-1,0.8l-2.7,14.9c0,0.2-0.1,0.4-0.1,0.6c0,0.8,0.3,1.6,0.8,2.2l3.3,4
			c0.4,0.5,1.3,0.5,1.7,0l3.3-4c0.5-0.6,0.8-1.4,0.8-2.2c0-0.2,0-0.4-0.1-0.6l-2.7-14.9c-0.1-0.5-0.5-0.9-1-0.9H30.7z"/>
	</g>
</g>
<g id="car_insurance">
</g>
<g id="_Flight_Insurance">
</g>
<g id="Dental_Insurance">
</g>
<g id="Eye_Insurance">
</g>
<g id="life_Insurance">
</g>
<g id="Health_Insurance">
</g>
<g id="Family_Insurance">
</g>
<g id="Child_Insurance">
</g>
<g id="Salesman_Insurance">
</g>
<g id="Search_Insurance">
</g>
<g id="Call_Center">
</g>
<g id="User_Insurance">
</g>
<g id="Profile_Information">
</g>
<g id="Approved_Sign_Insurance">
</g>
<g id="calendar">
</g>
<g id="World_Wide_Protection">
</g>
<g id="Shield">
</g>
</svg>
