<?xml version="1.0" encoding="utf-8"?>
<!-- Generator: Adobe Illustrator 22.0.0, SVG Export Plug-In . SVG Version: 6.00 Build 0)  -->
<svg version="1.1" xmlns="http://www.w3.org/2000/svg" xmlns:xlink="http://www.w3.org/1999/xlink" x="0px" y="0px"
	 viewBox="0 0 64 64" style="enable-background:new 0 0 64 64;" xml:space="preserve">
<style type="text/css">
	.st0{opacity:0.3;}
	.st1{fill:#FF9E1F;}
	.st2{fill:#3CC451;}
	.st3{fill:#E13455;}
	.st4{opacity:0.2;}
	.st5{fill:#2394FB;}
</style>
<g id="Layer_1">
</g>
<g id="travel_Insurance">
</g>
<g id="Home_Insurance">
</g>
<g id="Female_Insurance">
</g>
<g id="Funerals_Insurance">
</g>
<g id="Sinking">
</g>
<g id="money_Insurance">
</g>
<g id="Education_Insurance">
</g>
<g id="Employee_Insurance">
</g>
<g id="car_insurance">
</g>
<g id="_Flight_Insurance">
</g>
<g id="Dental_Insurance">
</g>
<g id="Eye_Insurance">
</g>
<g id="life_Insurance">
</g>
<g id="Health_Insurance">
</g>
<g id="Family_Insurance">
</g>
<g id="Child_Insurance">
</g>
<g id="Salesman_Insurance">
</g>
<g id="Search_Insurance">
</g>
<g id="Call_Center">
</g>
<g id="User_Insurance">
</g>
<g id="Profile_Information">
</g>
<g id="Approved_Sign_Insurance">
</g>
<g id="calendar">
	<g class="st0">
		<path class="st3" d="M29,35c0,2.2-0.6,4.3-1.7,6.1c-0.4,0.6-0.8,1.2-1.2,1.7c-1,1.2-2.2,2.1-3.6,2.8c-0.6,0.3-1.2,0.6-1.9,0.8
			C19.5,46.8,18.3,47,17,47c-6.6,0-12-5.4-12-12c0-1.3,0.2-2.5,0.6-3.7c0.2-0.7,0.5-1.3,0.8-1.9c2-3.8,6-6.5,10.7-6.5
			C23.6,23,29,28.4,29,35z"/>
	</g>
	<g>
		<path d="M52,57H12c-2.8,0-5-2.2-5-5V21c0-0.6,0.4-1,1-1h48c0.6,0,1,0.4,1,1v31C57,54.8,54.8,57,52,57z M9,22v30c0,1.7,1.3,3,3,3
			h40c1.7,0,3-1.3,3-3V22H9z"/>
	</g>
	<g>
		<path d="M56,22H8c-0.6,0-1-0.4-1-1v-6c0-2.8,2.2-5,5-5h40c2.8,0,5,2.2,5,5v6C57,21.6,56.6,22,56,22z M9,20h46v-5c0-1.7-1.3-3-3-3
			H12c-1.7,0-3,1.3-3,3V20z"/>
	</g>
	<g>
		<g>
			<path class="st3" d="M21,15c-0.6,0-1-0.4-1-1V8c0-0.6,0.4-1,1-1s1,0.4,1,1v6C22,14.6,21.6,15,21,15z"/>
		</g>
	</g>
	<g>
		<g>
			<path class="st3" d="M43,15c-0.6,0-1-0.4-1-1V8c0-0.6,0.4-1,1-1s1,0.4,1,1v6C44,14.6,43.6,15,43,15z"/>
		</g>
	</g>
	<g>
		<g>
			<path d="M32,51c-0.1,0-0.2,0-0.3,0C26,49.3,22,44.1,22,38.1v-8.6c0-0.4,0.3-0.8,0.7-1l9-2.6c0.2-0.1,0.4-0.1,0.5,0l9,2.6
				c0.4,0.1,0.7,0.5,0.7,1v8.6c0,5.9-4,11.2-9.7,12.8C32.2,51,32.1,51,32,51z M24,30.3v7.8c0,4.9,3.3,9.3,8,10.8
				c4.7-1.5,8-5.9,8-10.8v-7.8L32,28L24,30.3z"/>
		</g>
	</g>
	<g>
		<g>
			<path class="st3" d="M31,42c-0.3,0-0.5-0.1-0.7-0.3l-2.5-2.5c-0.4-0.4-0.4-1,0-1.4s1-0.4,1.4,0l1.8,1.8l4.3-4.3
				c0.4-0.4,1-0.4,1.4,0s0.4,1,0,1.4l-5,5C31.5,41.9,31.3,42,31,42z"/>
		</g>
	</g>
</g>
<g id="World_Wide_Protection">
</g>
<g id="Shield">
</g>
</svg>
