<?xml version="1.0" encoding="utf-8"?>
<!-- Generator: Adobe Illustrator 22.0.0, SVG Export Plug-In . SVG Version: 6.00 Build 0)  -->
<svg version="1.1" xmlns="http://www.w3.org/2000/svg" xmlns:xlink="http://www.w3.org/1999/xlink" x="0px" y="0px"
	 viewBox="0 0 64 64" style="enable-background:new 0 0 64 64;" xml:space="preserve">
<style type="text/css">
	.st0{opacity:0.3;}
	.st1{fill:#FF9E1F;}
	.st2{fill:#3CC451;}
	.st3{fill:#E13455;}
	.st4{opacity:0.2;}
	.st5{fill:#2394FB;}
</style>
<g id="Layer_1">
</g>
<g id="travel_Insurance">
</g>
<g id="Home_Insurance">
</g>
<g id="Female_Insurance">
</g>
<g id="Funerals_Insurance">
</g>
<g id="Sinking">
</g>
<g id="money_Insurance">
</g>
<g id="Education_Insurance">
</g>
<g id="Employee_Insurance">
</g>
<g id="car_insurance">
</g>
<g id="_Flight_Insurance">
</g>
<g id="Dental_Insurance">
</g>
<g id="Eye_Insurance">
</g>
<g id="life_Insurance">
</g>
<g id="Health_Insurance">
</g>
<g id="Family_Insurance">
</g>
<g id="Child_Insurance">
</g>
<g id="Salesman_Insurance">
</g>
<g id="Search_Insurance">
	<g class="st0">
		<path class="st2" d="M29,29c0,2.2-0.6,4.3-1.7,6.1c-0.4,0.6-0.8,1.2-1.2,1.7c-1,1.2-2.2,2.1-3.6,2.8c-0.6,0.3-1.2,0.6-1.9,0.8
			C19.5,40.8,18.3,41,17,41c-6.6,0-12-5.4-12-12c0-1.3,0.2-2.5,0.6-3.7c0.2-0.7,0.5-1.3,0.8-1.9c2-3.8,6-6.5,10.7-6.5
			C23.6,17,29,22.4,29,29z"/>
	</g>
	<g>
		<path d="M29,57c-0.1,0-0.2,0-0.3,0C15.9,53.3,7,41.5,7,28.2V14c0-0.4,0.3-0.8,0.7-1l21-6C28.9,7,29.1,7,29.3,7l21,6
			c0.4,0.1,0.7,0.5,0.7,1v14.2c0,1.8-0.2,3.7-0.5,5.5c-0.1,0.4-0.4,0.7-0.8,0.8c-0.4,0.1-0.8-0.1-1-0.5c-0.8-1.4-1.9-2.5-3.2-3.4
			c-0.3-0.2-0.5-0.6-0.5-0.9c0-0.5,0.1-1,0.1-1.5V17.8l-16-4.6l-16,4.6v10.4c0,10.2,6.4,19.2,16,22.6c1.9-0.7,3.8-1.6,5.5-2.8
			c0.3-0.2,0.7-0.2,1-0.1c1.4,0.7,3,1.1,4.5,1.1c0.4,0,0.8,0.3,1,0.6c0.1,0.4,0.1,0.8-0.3,1.1c-3.3,2.9-7.2,5-11.4,6.2
			C29.2,57,29.1,57,29,57z M9,14.8v13.4C9,40.5,17.2,51.5,29,55c3.1-0.9,6-2.3,8.5-4.2c-0.8-0.2-1.6-0.4-2.4-0.8
			c-1.8,1.2-3.7,2.1-5.8,2.8c-0.2,0.1-0.4,0.1-0.6,0C18.1,49.2,11,39.3,11,28.2V17c0-0.4,0.3-0.8,0.7-1l17-4.9
			c0.2-0.1,0.4-0.1,0.5,0l17,4.9c0.4,0.1,0.7,0.5,0.7,1v11.1c0,0.4,0,0.7,0,1.1c0.7,0.5,1.3,1.1,1.9,1.7C49,30,49,29.1,49,28.2V14.8
			L29,9L9,14.8z"/>
	</g>
	<g>
		<path d="M29,52.8c-0.1,0-0.2,0-0.3-0.1C18.1,49.2,11,39.3,11,28.2V17c0-0.4,0.3-0.8,0.7-1l17-4.9c0.2-0.1,0.4-0.1,0.5,0l17,4.9
			c0.4,0.1,0.7,0.5,0.7,1v11.1c0,0.6,0,1.1-0.1,1.7c0,0.4-0.2,0.7-0.6,0.8c-0.3,0.2-0.7,0.1-1-0.1c-1.6-1-3.5-1.6-5.4-1.6
			c-5.5,0-10,4.5-10,10c0,3.8,2.1,7.2,5.5,8.9c0.3,0.2,0.5,0.5,0.5,0.8s-0.1,0.7-0.4,0.9c-1.9,1.3-4,2.4-6.3,3.1
			C29.2,52.8,29.1,52.8,29,52.8z M13,17.8v10.4c0,10.2,6.4,19.2,16,22.6c1.4-0.5,2.8-1.1,4.1-1.9C29.9,46.6,28,43,28,39
			c0-6.6,5.4-12,12-12c1.7,0,3.4,0.4,5,1.1V17.8l-16-4.6L13,17.8z"/>
	</g>
	<g>
		<path d="M53.6,55.6c-0.8,0-1.5-0.3-2.1-0.9l-5.4-5.4c-1.8,1.1-3.9,1.7-6,1.7c-1.9,0-3.8-0.4-5.5-1.3C30.5,47.6,28,43.5,28,39
			c0-6.6,5.4-12,12-12c2.3,0,4.5,0.7,6.5,1.9c1.6,1,2.9,2.4,3.9,4.1c1.1,1.8,1.6,3.9,1.6,6c0,2.2-0.6,4.3-1.7,6.1l5.4,5.4
			c1.2,1.2,1.2,3.1,0,4.2c0,0,0,0,0,0C55.1,55.3,54.4,55.6,53.6,55.6z M55,54L55,54L55,54z M46.2,47.1c0.3,0,0.5,0.1,0.7,0.3
			l5.9,5.9c0.4,0.4,1,0.4,1.4,0c0.4-0.4,0.4-1,0-1.4l-5.9-5.9c-0.3-0.3-0.4-0.9-0.1-1.3C49.4,43,50,41,50,39c0-1.8-0.5-3.5-1.4-5
			c-0.8-1.4-1.9-2.5-3.2-3.4c-1.6-1-3.5-1.6-5.4-1.6c-5.5,0-10,4.5-10,10c0,3.8,2.1,7.2,5.5,8.9c1.4,0.7,3,1.1,4.5,1.1
			c2.1,0,4-0.6,5.7-1.8C45.8,47.1,46,47.1,46.2,47.1z"/>
	</g>
	<g>
		<path class="st2" d="M40,47c-4.4,0-8-3.6-8-8s3.6-8,8-8s8,3.6,8,8S44.4,47,40,47z M40,33c-3.3,0-6,2.7-6,6s2.7,6,6,6s6-2.7,6-6
			S43.3,33,40,33z"/>
	</g>
</g>
<g id="Call_Center">
</g>
<g id="User_Insurance">
</g>
<g id="Profile_Information">
</g>
<g id="Approved_Sign_Insurance">
</g>
<g id="calendar">
</g>
<g id="World_Wide_Protection">
</g>
<g id="Shield">
</g>
</svg>
