<?xml version="1.0" encoding="utf-8"?>
<!-- Generator: Adobe Illustrator 22.0.0, SVG Export Plug-In . SVG Version: 6.00 Build 0)  -->
<svg version="1.1" xmlns="http://www.w3.org/2000/svg" xmlns:xlink="http://www.w3.org/1999/xlink" x="0px" y="0px"
	 viewBox="0 0 64 64" style="enable-background:new 0 0 64 64;" xml:space="preserve">
<style type="text/css">
	.st0{opacity:0.3;}
	.st1{fill:#FF9E1F;}
	.st2{fill:#3CC451;}
	.st3{fill:#E13455;}
	.st4{opacity:0.2;}
	.st5{fill:#2394FB;}
</style>
<g id="Layer_1">
</g>
<g id="travel_Insurance">
</g>
<g id="Home_Insurance">
</g>
<g id="Female_Insurance">
</g>
<g id="Funerals_Insurance">
</g>
<g id="Sinking">
</g>
<g id="money_Insurance">
</g>
<g id="Education_Insurance">
</g>
<g id="Employee_Insurance">
</g>
<g id="car_insurance">
</g>
<g id="_Flight_Insurance">
</g>
<g id="Dental_Insurance">
</g>
<g id="Eye_Insurance">
</g>
<g id="life_Insurance">
</g>
<g id="Health_Insurance">
</g>
<g id="Family_Insurance">
</g>
<g id="Child_Insurance">
	<g class="st4">
		<path class="st5" d="M59,17c0,2.2-0.6,4.3-1.7,6.1c-0.4,0.6-0.8,1.2-1.2,1.7c-1,1.2-2.2,2.1-3.6,2.8c-0.6,0.3-1.2,0.6-1.9,0.8
			C49.5,28.8,48.3,29,47,29c-6.6,0-12-5.4-12-12c0-1.3,0.2-2.5,0.6-3.7c0.2-0.7,0.5-1.3,0.8-1.9c2-3.8,6-6.5,10.7-6.5
			C53.6,5,59,10.4,59,17z"/>
	</g>
	<g>
		<path d="M26,60c-3.8,0-7.6-1.3-10.6-3.7c-3-2.3-5.1-5.7-5.9-9.4C7.9,39.2,7,31.2,7,23.2v-0.7c0-4.9,2-9.6,5.6-13.1
			C16.2,5.9,20.9,4,26,4c10.5,0,19,8.3,19,18.5v0.3c0,4.5-0.3,9.1-0.8,13.6c0,0.4-0.3,0.7-0.7,0.8L36,39.3v7.8
			c0,2.4,0.7,4.7,2.1,6.6c0.3,0.4,0.2,0.9-0.1,1.3C34.9,58.2,30.5,60,26,60z M26,6c-4.5,0-8.8,1.7-12,4.8c-3.2,3.1-5,7.3-5,11.7v0.7
			c0,7.8,0.8,15.7,2.5,23.3c0.7,3.2,2.5,6.1,5.2,8.2c2.6,2.1,6,3.2,9.4,3.2c3.7,0,7.3-1.4,10-3.8c-1.3-2.1-2-4.5-2-7v-8.6
			c0-0.4,0.3-0.8,0.7-1l7.5-2.1C42.8,31.3,43,27,43,22.8v-0.3C43,13.4,35.4,6,26,6z M43.2,36.2L43.2,36.2L43.2,36.2z"/>
	</g>
	<g>
		<path d="M26,36c-7.7,0-14-6.3-14-14S18.3,8,26,8s14,6.3,14,14S33.7,36,26,36z M26,10c-6.6,0-12,5.4-12,12s5.4,12,12,12
			s12-5.4,12-12S32.6,10,26,10z"/>
	</g>
	<g>
		<path d="M13,53.4c-0.6,0-1-0.4-1-1V48c0-7.7,6.3-14,14-14c0.6,0,1,0.4,1,1s-0.4,1-1,1c-6.6,0-12,5.4-12,12v4.4
			C14,52.9,13.6,53.4,13,53.4z"/>
	</g>
	<g>
		<path d="M27,16h-2.5c-1.4,0-2.5-1.1-2.5-2.5s1.1-2.5,2.5-2.5H26c0.6,0,1,0.4,1,1s-0.4,1-1,1h-1.5c-0.3,0-0.5,0.2-0.5,0.5
			s0.2,0.5,0.5,0.5H27c1.1,0,2-0.9,2-2s-0.9-2-2-2h-1c-0.6,0-1-0.4-1-1s0.4-1,1-1h1c2.2,0,4,1.8,4,4S29.2,16,27,16z"/>
	</g>
	<g>
		<path class="st5" d="M26,36c-3.3,0-6-2.7-6-6s2.7-6,6-6s6,2.7,6,6S29.3,36,26,36z M26,26c-2.2,0-4,1.8-4,4s1.8,4,4,4s4-1.8,4-4
			S28.2,26,26,26z"/>
	</g>
	<g>
		<path class="st5" d="M26,36c-2.2,0-4-1.8-4-4s1.8-4,4-4s4,1.8,4,4S28.2,36,26,36z M26,30c-1.1,0-2,0.9-2,2s0.9,2,2,2s2-0.9,2-2
			S27.1,30,26,30z"/>
	</g>
	<g>
		<path d="M44,60c-0.1,0-0.2,0-0.3,0c-1.7-0.5-3.3-1.3-4.7-2.4c-0.9-0.7-1.8-1.6-2.5-2.6C34.9,52.7,34,50,34,47.1v-8.6
			c0-0.4,0.3-0.8,0.7-1l9-2.6c0.2-0.1,0.4-0.1,0.5,0l9,2.6c0.4,0.1,0.7,0.5,0.7,1v8.6c0,5.9-4,11.2-9.7,12.8C44.2,60,44.1,60,44,60z
			 M36,39.3v7.8c0,2.4,0.7,4.7,2.1,6.6c0.6,0.9,1.3,1.6,2.1,2.2c1.1,0.9,2.4,1.6,3.7,2c4.7-1.5,8-5.9,8-10.8v-7.8L44,37L36,39.3z"/>
	</g>
	<g>
		<path class="st5" d="M43,51c-0.3,0-0.5-0.1-0.7-0.3l-2.5-2.5c-0.4-0.4-0.4-1,0-1.4s1-0.4,1.4,0l1.8,1.8l4.3-4.3
			c0.4-0.4,1-0.4,1.4,0s0.4,1,0,1.4l-5,5C43.5,50.9,43.3,51,43,51z"/>
	</g>
	<g>
		<circle class="st5" cx="17" cy="45" r="1"/>
	</g>
	<g>
		<circle class="st5" cx="17" cy="50" r="1"/>
	</g>
</g>
<g id="Salesman_Insurance">
</g>
<g id="Search_Insurance">
</g>
<g id="Call_Center">
</g>
<g id="User_Insurance">
</g>
<g id="Profile_Information">
</g>
<g id="Approved_Sign_Insurance">
</g>
<g id="calendar">
</g>
<g id="World_Wide_Protection">
</g>
<g id="Shield">
</g>
</svg>
