<?xml version="1.0" encoding="utf-8"?>
<!-- Generator: Adobe Illustrator 22.0.0, SVG Export Plug-In . SVG Version: 6.00 Build 0)  -->
<svg version="1.1" xmlns="http://www.w3.org/2000/svg" xmlns:xlink="http://www.w3.org/1999/xlink" x="0px" y="0px"
	 viewBox="0 0 64 64" style="enable-background:new 0 0 64 64;" xml:space="preserve">
<style type="text/css">
	.st0{opacity:0.3;}
	.st1{fill:#FF9E1F;}
	.st2{fill:#3CC451;}
	.st3{fill:#E13455;}
	.st4{opacity:0.2;}
	.st5{fill:#2394FB;}
</style>
<g id="Layer_1">
</g>
<g id="travel_Insurance">
</g>
<g id="Home_Insurance">
</g>
<g id="Female_Insurance">
</g>
<g id="Funerals_Insurance">
</g>
<g id="Sinking">
</g>
<g id="money_Insurance">
</g>
<g id="Education_Insurance">
</g>
<g id="Employee_Insurance">
</g>
<g id="car_insurance">
</g>
<g id="_Flight_Insurance">
</g>
<g id="Dental_Insurance">
</g>
<g id="Eye_Insurance">
	<g class="st4">
		<path class="st5" d="M29,41c0,2.2-0.6,4.3-1.7,6.1c-0.4,0.6-0.8,1.2-1.2,1.7c-1,1.2-2.2,2.1-3.6,2.8c-0.6,0.3-1.2,0.6-1.9,0.8
			C19.5,52.8,18.3,53,17,53c-6.6,0-12-5.4-12-12c0-1.3,0.2-2.5,0.6-3.7c0.2-0.7,0.5-1.3,0.8-1.9c2-3.8,6-6.5,10.7-6.5
			C23.6,29,29,34.4,29,41z"/>
	</g>
	<g>
		<path class="st5" d="M32,42c-7.7,0-14-6.3-14-14c0-4.3,1.9-8.3,5.3-10.9c0.1-0.1,0.3-0.2,0.4-0.2c5.3-1.1,11.3-1.1,16.6,0
			c0.2,0,0.3,0.1,0.4,0.2C44.1,19.7,46,23.7,46,28c0,1.3-0.2,2.6-0.5,3.8c-0.1,0.3-0.4,0.6-0.7,0.7L42,33.3v4.1
			c0,0.3-0.1,0.5-0.3,0.7C39.1,40.6,35.6,42,32,42z M24.3,18.8C21.6,21,20,24.4,20,28c0,6.6,5.4,12,12,12c3,0,5.8-1.1,8-3.1v-4.4
			c0-0.4,0.3-0.8,0.7-1l3-0.8c0.2-0.9,0.3-1.8,0.3-2.8c0-3.6-1.6-7-4.3-9.2C34.7,17.7,29.3,17.7,24.3,18.8z M44.5,31.6L44.5,31.6
			L44.5,31.6z"/>
	</g>
	<g>
		<path class="st5" d="M49,45c-0.3,0-0.5-0.1-0.7-0.3l-2.5-2.5c-0.4-0.4-0.4-1,0-1.4s1-0.4,1.4,0l1.8,1.8l4.3-4.3
			c0.4-0.4,1-0.4,1.4,0s0.4,1,0,1.4l-5,5C49.5,44.9,49.3,45,49,45z"/>
	</g>
	<g>
		<path d="M32,52C19.1,52,7.9,43.7,4,31.3C4,31.1,4,30.9,4,30.7C7.9,18.3,19.1,10,32,10s24.1,8.3,28,20.7c0.1,0.2,0.1,0.4,0,0.6
			c-0.2,0.5-0.3,1-0.5,1.5c-0.2,0.5-0.7,0.7-1.2,0.6l-1-0.3L50,31l-8,2.3v7.8c0,0.8,0.1,1.7,0.3,2.5c0.2,1.1,0.6,2.1,1.1,3
			c0.2,0.4,0.5,0.8,0.8,1.3c0.2,0.2,0.2,0.6,0.2,0.9s-0.3,0.5-0.6,0.7C40.1,51.1,36.1,52,32,52z M6,31c3.7,11.4,14.1,19,26,19
			c3.5,0,6.8-0.6,10-1.9c-0.1-0.2-0.2-0.3-0.3-0.5c-0.6-1.1-1.1-2.3-1.4-3.5c-0.2-0.9-0.3-1.9-0.3-3v-8.6c0-0.4,0.3-0.8,0.7-1l9-2.6
			c0.2-0.1,0.4-0.1,0.5,0l7.6,2.2c0-0.1,0-0.1,0.1-0.2c-3.7-11.4-14.1-19-26-19S9.7,19.6,6,31z"/>
	</g>
	<g>
		<path d="M32,52C19.1,52,7.9,43.7,4,31.3C4,31.1,4,30.9,4,30.7C7.9,18.3,19.1,10,32,10s24.1,8.3,28,20.7c0.1,0.2,0.1,0.4,0,0.6
			c-0.2,0.5-0.3,1-0.5,1.5c-0.2,0.5-0.7,0.7-1.2,0.6l-1-0.3L50,31l-8,2.3v7.8c0,0.8,0.1,1.7,0.3,2.5c0.2,1.1,0.6,2.1,1.1,3
			c0.2,0.4,0.5,0.8,0.8,1.3c0.2,0.2,0.2,0.6,0.2,0.9s-0.3,0.5-0.6,0.7C40.1,51.1,36.1,52,32,52z M6,31c3.7,11.4,14.1,19,26,19
			c3.5,0,6.8-0.6,10-1.9c-0.1-0.2-0.2-0.3-0.3-0.5c-0.6-1.1-1.1-2.3-1.4-3.5c-0.2-0.9-0.3-1.9-0.3-3v-8.6c0-0.4,0.3-0.8,0.7-1l9-2.6
			c0.2-0.1,0.4-0.1,0.5,0l7.6,2.2c0-0.1,0-0.1,0.1-0.2c-3.7-11.4-14.1-19-26-19S9.7,19.6,6,31z"/>
	</g>
	<g>
		<path d="M32,46C19.2,46,8,40.1,4.1,31.4c-0.1-0.3-0.1-0.6,0-0.8C7,24,14.4,18.8,23.7,16.9c5.3-1.1,11.3-1.1,16.6,0
			c9.3,2,16.7,7.1,19.6,13.7c0.1,0.3,0.1,0.6,0,0.8c-0.2,0.4-0.4,1-0.7,1.5c-0.2,0.4-0.7,0.6-1.1,0.5L50,31l-8,2.3v7.8
			c0,0.8,0.1,1.7,0.3,2.5c0.1,0.5-0.2,1.1-0.7,1.2C38.5,45.6,35.3,46,32,46z M6.1,31C9.8,38.7,20.3,44,32,44c2.8,0,5.5-0.3,8.2-0.9
			c-0.1-0.7-0.2-1.3-0.2-2v-8.6c0-0.4,0.3-0.8,0.7-1l9-2.6c0.2-0.1,0.4-0.1,0.5,0l7.5,2.1c0-0.1,0.1-0.1,0.1-0.2
			c-2.8-5.9-9.5-10.4-18-12.2c-5.1-1.1-10.7-1.1-15.8,0C15.6,20.6,8.9,25.1,6.1,31z"/>
	</g>
	<g>
		<path d="M32,46C19.2,46,8,40.1,4.1,31.4c-0.1-0.3-0.1-0.6,0-0.8C7,24,14.4,18.8,23.7,16.9c5.3-1.1,11.3-1.1,16.6,0
			c9.3,2,16.7,7.1,19.6,13.7c0.1,0.3,0.1,0.6,0,0.8c-0.2,0.4-0.4,1-0.7,1.5c-0.2,0.4-0.7,0.6-1.1,0.5L50,31l-8,2.3v7.8
			c0,0.8,0.1,1.7,0.3,2.5c0.1,0.5-0.2,1.1-0.7,1.2C38.5,45.6,35.3,46,32,46z M6.1,31C9.8,38.7,20.3,44,32,44c2.8,0,5.5-0.3,8.2-0.9
			c-0.1-0.7-0.2-1.3-0.2-2v-8.6c0-0.4,0.3-0.8,0.7-1l9-2.6c0.2-0.1,0.4-0.1,0.5,0l7.5,2.1c0-0.1,0.1-0.1,0.1-0.2
			c-2.8-5.9-9.5-10.4-18-12.2c-5.1-1.1-10.7-1.1-15.8,0C15.6,20.6,8.9,25.1,6.1,31z"/>
	</g>
	<g>
		<path d="M32,35c-3.9,0-7-3.1-7-7c0-0.8,0.1-1.5,0.4-2.2c0.1-0.3,0.3-0.5,0.6-0.6c0.3-0.1,0.6-0.1,0.9,0.1c0.3,0.2,0.6,0.3,0.9,0.3
			c1,0,1.8-0.8,1.8-1.8c0-0.3-0.1-0.6-0.3-0.9c-0.2-0.3-0.2-0.6-0.1-0.9c0.1-0.3,0.3-0.5,0.6-0.6c0.7-0.2,1.5-0.4,2.2-0.4
			c3.9,0,7,3.1,7,7S35.9,35,32,35z M27,27.4c0,0.2,0,0.4,0,0.6c0,2.8,2.2,5,5,5s5-2.2,5-5s-2.2-5-5-5c-0.2,0-0.4,0-0.6,0
			c0,0.2,0.1,0.5,0.1,0.7c0,2.1-1.7,3.8-3.8,3.8C27.5,27.5,27.3,27.5,27,27.4z"/>
	</g>
	<g>
		<path d="M27.8,27.5c-0.7,0-1.4-0.2-2-0.6c-1.1-0.7-1.8-1.9-1.8-3.2c0-2.1,1.7-3.8,3.8-3.8c1.3,0,2.5,0.7,3.2,1.8
			c0.4,0.6,0.6,1.3,0.6,2C31.5,25.8,29.8,27.5,27.8,27.5z M27.8,22c-1,0-1.8,0.8-1.8,1.8c0,0.6,0.3,1.2,0.8,1.5
			c0.3,0.2,0.6,0.3,0.9,0.3c1,0,1.8-0.8,1.8-1.8c0-0.3-0.1-0.6-0.3-0.9C28.9,22.3,28.4,22,27.8,22z"/>
	</g>
	<g>
		<path d="M50,54c-0.1,0-0.2,0-0.3,0c-1.7-0.5-3.3-1.3-4.7-2.4c-0.9-0.7-1.7-1.5-2.3-2.4c-0.4-0.5-0.7-1-1-1.5
			c-0.6-1.1-1.1-2.3-1.4-3.5c-0.2-0.9-0.3-1.9-0.3-3v-8.6c0-0.4,0.3-0.8,0.7-1l9-2.6c0.2-0.1,0.4-0.1,0.5,0l9,2.6
			c0.4,0.1,0.7,0.5,0.7,1v8.6c0,5.9-4,11.2-9.7,12.8C50.2,54,50.1,54,50,54z M42,33.3v7.8c0,0.8,0.1,1.7,0.3,2.5
			c0.2,1.1,0.6,2.1,1.1,3c0.2,0.4,0.5,0.8,0.8,1.3c0.6,0.8,1.2,1.5,2,2c1.1,0.9,2.4,1.6,3.7,2c4.7-1.5,8-5.9,8-10.8v-7.8L50,31
			L42,33.3z"/>
	</g>
</g>
<g id="life_Insurance">
</g>
<g id="Health_Insurance">
</g>
<g id="Family_Insurance">
</g>
<g id="Child_Insurance">
</g>
<g id="Salesman_Insurance">
</g>
<g id="Search_Insurance">
</g>
<g id="Call_Center">
</g>
<g id="User_Insurance">
</g>
<g id="Profile_Information">
</g>
<g id="Approved_Sign_Insurance">
</g>
<g id="calendar">
</g>
<g id="World_Wide_Protection">
</g>
<g id="Shield">
</g>
</svg>
