<?xml version="1.0" encoding="utf-8"?>
<!-- Generator: Adobe Illustrator 22.0.0, SVG Export Plug-In . SVG Version: 6.00 Build 0)  -->
<svg version="1.1" xmlns="http://www.w3.org/2000/svg" xmlns:xlink="http://www.w3.org/1999/xlink" x="0px" y="0px"
	 viewBox="0 0 64 64" style="enable-background:new 0 0 64 64;" xml:space="preserve">
<style type="text/css">
	.st0{opacity:0.3;}
	.st1{fill:#FF9E1F;}
	.st2{fill:#3CC451;}
	.st3{fill:#E13455;}
	.st4{opacity:0.2;}
	.st5{fill:#2394FB;}
</style>
<g id="Layer_1">
</g>
<g id="travel_Insurance">
</g>
<g id="Home_Insurance">
</g>
<g id="Female_Insurance">
</g>
<g id="Funerals_Insurance">
</g>
<g id="Sinking">
</g>
<g id="money_Insurance">
</g>
<g id="Education_Insurance">
</g>
<g id="Employee_Insurance">
</g>
<g id="car_insurance">
</g>
<g id="_Flight_Insurance">
</g>
<g id="Dental_Insurance">
	<g class="st4">
		<path class="st5" d="M55,17c0,2.2-0.6,4.3-1.7,6.1c-0.4,0.6-0.8,1.2-1.2,1.7c-1,1.2-2.2,2.1-3.6,2.8c-0.6,0.3-1.2,0.6-1.9,0.8
			C45.5,28.8,44.3,29,43,29c-6.6,0-12-5.4-12-12c0-1.3,0.2-2.5,0.6-3.7c0.2-0.7,0.5-1.3,0.8-1.9c2-3.8,6-6.5,10.7-6.5
			C49.6,5,55,10.4,55,17z"/>
	</g>
	<g>
		<path d="M38,57c-1.6,0-3-1.3-3.1-2.9c-0.4-6.4-2.2-11.8-4.5-13.6c-1-0.7-1.9-0.7-2.8,0c-2.4,1.8-4.2,7.2-4.5,13.6
			C23,55.7,21.6,57,20,57c-4.6,0-8-8-8-18.5c0-2.9-0.9-5.7-2.5-8.3c-1.7-2.5-2.5-5.5-2.5-8.5C7.1,13.6,13.8,7,21.9,7c0,0,0,0,0.1,0
			c2.5,0,4.9,0.6,7,1.7C31.2,7.6,33.6,7,36.1,7c8.1,0,14.8,6.6,14.9,14.7l0,0c0.1,3-0.8,6-2.5,8.5c-0.7,1.1-1.3,2.2-1.7,3.4
			c-0.1,0.3-0.4,0.5-0.7,0.6l-7.2,2v7.8c0,2.4,0.7,4.7,2.1,6.6c0.4,0.6,0.9,1.1,1.4,1.6c0.3,0.3,0.4,0.8,0.2,1.2
			C41,56.4,39.2,57,38,57z M29,38c0.9,0,1.8,0.3,2.6,1c2.9,2.2,4.9,7.9,5.3,15c0,0.6,0.5,1,1.1,1c1.1,0,2-0.9,2.6-1.8
			c-0.4-0.4-0.7-0.8-1.1-1.3C37.9,49.7,37,47,37,44.1v-8.6c0-0.4,0.3-0.8,0.7-1l7.4-2.1c0.5-1.2,1-2.3,1.7-3.4
			c1.4-2.2,2.2-4.7,2.1-7.4C48.9,14.8,43.1,9,36.1,9c-2.3,0-4.6,0.6-6.6,1.7c-0.3,0.2-0.7,0.2-1,0c-2-1.2-4.3-1.8-6.6-1.7
			C14.9,9,9.1,14.8,9,21.8c0,2.6,0.7,5.2,2.1,7.4C13,32,14,35.2,14,38.4c0,9.8,3.2,16.6,6,16.6c0.6,0,1-0.4,1.1-1
			c0.4-7.1,2.4-12.9,5.3-15.1C27.2,38.3,28.1,38,29,38z"/>
	</g>
	<g>
		<path d="M24.7,14.7c-0.2,0-0.4-0.1-0.6-0.2c-0.4-0.3-0.5-1-0.2-1.4C26.7,9.3,31.2,7,36,7c0.6,0,1,0.4,1,1s-0.4,1-1,1
			c-4.1,0-8,2-10.5,5.3C25.3,14.6,25,14.7,24.7,14.7z"/>
	</g>
	<g>
		<path d="M47,57c-0.1,0-0.2,0-0.3,0c-1.7-0.5-3.3-1.3-4.7-2.4c-0.3-0.2-0.6-0.5-0.9-0.8c-0.6-0.5-1.1-1.2-1.6-1.9
			C37.9,49.7,37,47,37,44.1v-8.6c0-0.4,0.3-0.8,0.7-1l9-2.6c0.2-0.1,0.4-0.1,0.5,0l9,2.6c0.4,0.1,0.7,0.5,0.7,1v8.6
			c0,5.9-4,11.2-9.7,12.8C47.2,57,47.1,57,47,57z M39,36.3v7.8c0,2.4,0.7,4.7,2.1,6.6c0.4,0.6,0.9,1.1,1.4,1.6
			c0.3,0.3,0.5,0.4,0.7,0.6c1.1,0.9,2.4,1.5,3.7,2c4.7-1.5,8-5.9,8-10.8v-7.8L47,34L39,36.3z"/>
	</g>
	<g>
		<path class="st5" d="M46,48c-0.3,0-0.5-0.1-0.7-0.3l-2.5-2.5c-0.4-0.4-0.4-1,0-1.4s1-0.4,1.4,0l1.8,1.8l4.3-4.3
			c0.4-0.4,1-0.4,1.4,0s0.4,1,0,1.4l-5,5C46.5,47.9,46.3,48,46,48z"/>
	</g>
</g>
<g id="Eye_Insurance">
</g>
<g id="life_Insurance">
</g>
<g id="Health_Insurance">
</g>
<g id="Family_Insurance">
</g>
<g id="Child_Insurance">
</g>
<g id="Salesman_Insurance">
</g>
<g id="Search_Insurance">
</g>
<g id="Call_Center">
</g>
<g id="User_Insurance">
</g>
<g id="Profile_Information">
</g>
<g id="Approved_Sign_Insurance">
</g>
<g id="calendar">
</g>
<g id="World_Wide_Protection">
</g>
<g id="Shield">
</g>
</svg>
