<?xml version="1.0" encoding="utf-8"?>
<!-- Generator: Adobe Illustrator 22.0.0, SVG Export Plug-In . SVG Version: 6.00 Build 0)  -->
<svg version="1.1" xmlns="http://www.w3.org/2000/svg" xmlns:xlink="http://www.w3.org/1999/xlink" x="0px" y="0px"
	 viewBox="0 0 64 64" style="enable-background:new 0 0 64 64;" xml:space="preserve">
<style type="text/css">
	.st0{opacity:0.3;}
	.st1{fill:#FF9E1F;}
	.st2{fill:#3CC451;}
	.st3{fill:#E13455;}
	.st4{opacity:0.2;}
	.st5{fill:#2394FB;}
</style>
<g id="Layer_1">
</g>
<g id="travel_Insurance">
</g>
<g id="Home_Insurance">
</g>
<g id="Female_Insurance">
</g>
<g id="Funerals_Insurance">
</g>
<g id="Sinking">
</g>
<g id="money_Insurance">
</g>
<g id="Education_Insurance">
</g>
<g id="Employee_Insurance">
</g>
<g id="car_insurance">
</g>
<g id="_Flight_Insurance">
</g>
<g id="Dental_Insurance">
</g>
<g id="Eye_Insurance">
</g>
<g id="life_Insurance">
</g>
<g id="Health_Insurance">
</g>
<g id="Family_Insurance">
</g>
<g id="Child_Insurance">
</g>
<g id="Salesman_Insurance">
</g>
<g id="Search_Insurance">
</g>
<g id="Call_Center">
</g>
<g id="User_Insurance">
</g>
<g id="Profile_Information">
</g>
<g id="Approved_Sign_Insurance">
</g>
<g id="calendar">
</g>
<g id="World_Wide_Protection">
	<g class="st4">
		<path class="st5" d="M47,5c-4.6,0-8.7,2.6-10.7,6.5c-0.3,0.6-0.6,1.2-0.8,1.9C35.2,14.5,35,15.7,35,17c0,6.6,5.4,12,12,12
			c1.3,0,2.5-0.2,3.7-0.6c0.7-0.2,1.3-0.5,1.9-0.8c1.4-0.7,2.6-1.7,3.6-2.8c0.5-0.5,0.9-1.1,1.2-1.7c1-1.8,1.7-3.9,1.7-6.1
			C59,10.4,53.6,5,47,5z M50.2,24.6l-0.1-2c0.2,0,0.5,0,0.7,0c0.3,0.6,0.6,1.3,0.9,2C51.2,24.5,50.7,24.6,50.2,24.6z"/>
	</g>
	<path d="M53,30.8c0-0.7-0.1-1.4-0.2-2.1c0-0.3-0.1-0.7-0.2-1c-0.2-1.1-0.5-2.1-0.9-3.1c-0.3-0.7-0.5-1.3-0.9-2
		c-2.8-5.6-8.1-9.8-14.4-11.1C35,11.2,33.5,11,32,11c-4.3,0-8.2,1.3-11.5,3.5c-0.6,0.4-1.2,0.8-1.7,1.3c-1.1,0.9-2.1,1.9-3,3
		c-0.4,0.5-0.9,1.1-1.3,1.7C12.3,23.8,11,27.8,11,32c0,0.4,0,0.8,0,1.2c0,0.7,0.1,1.4,0.2,2.1c0.2,1.4,0.6,2.8,1.1,4.1
		c0.3,0.7,0.5,1.3,0.9,2C16.7,48.3,23.8,53,32,53c4.3,0,8.2-1.3,11.5-3.5c0.6-0.4,1.2-0.8,1.7-1.3c1.1-0.9,2.1-1.9,3-3
		c0.4-0.5,0.9-1.1,1.3-1.7C51.7,40.2,53,36.3,53,32C53,31.6,53,31.2,53,30.8z M43.5,47.1c-0.6,0.4-1.2,0.8-1.8,1.2
		C38.9,50,35.5,51,32,51c-7.1,0-13.3-3.9-16.6-9.7c-0.4-0.6-0.7-1.3-1-1.9C13.5,37.1,13,34.6,13,32c0-3.5,1-6.9,2.7-9.7
		c0.4-0.6,0.8-1.2,1.2-1.8C20.3,16,25.8,13,32,13c1.2,0,2.4,0.1,3.6,0.3c7.6,1.4,13.6,7.5,15.1,15.1c0.1,0.4,0.1,0.8,0.2,1.2
		c0.1,0.7,0.1,1.4,0.1,2.1c0,0.1,0,0.2,0,0.3C51,38.2,48,43.7,43.5,47.1z"/>
	<g>
		<path class="st5" d="M53,30.8c-0.2,0.1-0.4,0.2-0.6,0.3c-0.4,0.2-0.9,0.4-1.4,0.6c-2.7,1.3-6,2.5-9.7,3.7l-0.6-1.9
			c3.9-1.3,7.4-2.6,10.2-4c0.2-0.1,0.4-0.2,0.6-0.3c0.5-0.2,0.9-0.4,1.3-0.7c4.3-2.3,4.4-3.4,4.4-3.4c0,0-0.2-0.2-1-0.4
			c-0.6-0.2-1.7-0.3-3.4-0.3c-0.3,0-0.7,0-1.1,0c-0.3-0.7-0.5-1.3-0.9-2c3.4-0.2,5.4,0.1,6.6,0.5c1.2,0.5,1.6,1.1,1.7,1.6
			C59.3,25.9,59,27.7,53,30.8z"/>
	</g>
	<g>
		<path class="st5" d="M23.8,40c-3,0.6-5.9,1-8.4,1.2c-0.5,0-1,0.1-1.5,0.1c-0.2,0-0.5,0-0.7,0c-0.7,0-1.4,0-2,0
			c-5.1,0-6.1-1.2-6.3-2.2c-0.3-1.1,0-3,6.1-6c0,0.7,0.1,1.4,0.2,2.1c-4.3,2.3-4.4,3.4-4.4,3.4c0,0,0.5,0.8,4.4,0.8
			c0.3,0,0.7,0,1.1,0c0.4,0,0.9,0,1.4-0.1c0.2,0,0.5,0,0.7-0.1c2.6-0.2,5.7-0.6,9-1.3L23.8,40z"/>
	</g>
	<path class="st5" d="M53,30.8c-0.2,0.1-0.4,0.2-0.6,0.3c-0.4,0.2-0.9,0.4-1.4,0.6c-2.7,1.3-6,2.5-9.7,3.7l-0.6-1.9
		c3.9-1.3,7.4-2.6,10.2-4c0.2-0.1,0.4-0.2,0.6-0.3c0.5-0.2,0.9-0.4,1.3-0.7c4.3-2.3,4.4-3.4,4.4-3.4c0,0-0.2-0.2-1-0.4
		c-0.6-0.2-1.7-0.3-3.4-0.3c-0.3,0-0.7,0-1.1,0c-0.3-0.7-0.5-1.3-0.9-2c3.4-0.2,5.4,0.1,6.6,0.5c1.2,0.5,1.6,1.1,1.7,1.6
		C59.3,25.9,59,27.7,53,30.8z"/>
	<path class="st5" d="M23.8,40c-3,0.6-5.9,1-8.4,1.2c-0.5,0-1,0.1-1.5,0.1c-0.2,0-0.5,0-0.7,0c-0.7,0-1.4,0-2,0
		c-5.1,0-6.1-1.2-6.3-2.2c-0.3-1.1,0-3,6.1-6c0,0.7,0.1,1.4,0.2,2.1c-4.3,2.3-4.4,3.4-4.4,3.4c0,0,0.5,0.8,4.4,0.8
		c0.3,0,0.7,0,1.1,0c0.4,0,0.9,0,1.4-0.1c0.2,0,0.5,0,0.7-0.1c2.6-0.2,5.7-0.6,9-1.3L23.8,40z"/>
	<path class="st5" d="M51.8,51.8c-0.3,0.3-0.8,0.6-1.6,0.6c-1.2,0-3.2-0.7-6.6-2.9c-0.2-0.1-0.4-0.2-0.6-0.4
		c-0.4-0.3-0.8-0.5-1.3-0.8c-1.5-1-3.1-2.3-4.9-3.8l1.3-1.5c2,1.6,3.8,3,5.4,4.1c0.2,0.1,0.4,0.3,0.6,0.4c0.4,0.3,0.8,0.5,1.2,0.8
		c4.1,2.6,5.1,2.1,5.1,2.1c0,0,0-0.1,0-0.3c0-0.5-0.3-1.8-2.1-4.9c0.4-0.5,0.9-1.1,1.3-1.7C53.3,49.2,52.6,51,51.8,51.8z"/>
	<path class="st5" d="M23.8,29.1l-1.5,1.3c-2.6-2.9-4.8-5.7-6.6-8.1c-0.3-0.4-0.6-0.8-0.8-1.3c-0.1-0.2-0.3-0.4-0.4-0.6
		c-3.7-5.7-3.1-7.5-2.3-8.3c0.8-0.8,2.6-1.5,8.3,2.3c-0.6,0.4-1.2,0.8-1.7,1.3c-4.1-2.6-5.1-2.1-5.1-2.1c0,0,0,0.1,0,0.3
		c0,0.5,0.3,1.8,2.1,4.9c0.2,0.4,0.5,0.8,0.8,1.2c0.1,0.2,0.3,0.4,0.4,0.6C18.6,23,21,26,23.8,29.1z"/>
	<g>
		<path d="M32,48c-0.1,0-0.2,0-0.3,0C26,46.3,22,41.1,22,35.1v-8.6c0-0.4,0.3-0.8,0.7-1l9-2.6c0.2-0.1,0.4-0.1,0.5,0l9,2.6
			c0.4,0.1,0.7,0.5,0.7,1v8.6c0,5.9-4,11.2-9.7,12.8C32.2,48,32.1,48,32,48z M24,27.3v7.8c0,4.9,3.3,9.3,8,10.8
			c4.7-1.5,8-5.9,8-10.8v-7.8L32,25L24,27.3z"/>
	</g>
	<g>
		<path class="st5" d="M31,39c-0.3,0-0.5-0.1-0.7-0.3l-2.5-2.5c-0.4-0.4-0.4-1,0-1.4s1-0.4,1.4,0l1.8,1.8l4.3-4.3
			c0.4-0.4,1-0.4,1.4,0s0.4,1,0,1.4l-5,5C31.5,38.9,31.3,39,31,39z"/>
	</g>
</g>
<g id="Shield">
</g>
</svg>
