<?xml version="1.0" encoding="utf-8"?>
<!-- Generator: Adobe Illustrator 22.0.0, SVG Export Plug-In . SVG Version: 6.00 Build 0)  -->
<svg version="1.1" xmlns="http://www.w3.org/2000/svg" xmlns:xlink="http://www.w3.org/1999/xlink" x="0px" y="0px"
	 viewBox="0 0 64 64" style="enable-background:new 0 0 64 64;" xml:space="preserve">
<style type="text/css">
	.st0{opacity:0.3;}
	.st1{fill:#FF9E1F;}
	.st2{fill:#3CC451;}
	.st3{fill:#E13455;}
	.st4{opacity:0.2;}
	.st5{fill:#2394FB;}
</style>
<g id="Layer_1">
</g>
<g id="travel_Insurance">
</g>
<g id="Home_Insurance">
</g>
<g id="Female_Insurance">
</g>
<g id="Funerals_Insurance">
</g>
<g id="Sinking">
</g>
<g id="money_Insurance">
</g>
<g id="Education_Insurance">
</g>
<g id="Employee_Insurance">
</g>
<g id="car_insurance">
</g>
<g id="_Flight_Insurance">
</g>
<g id="Dental_Insurance">
</g>
<g id="Eye_Insurance">
</g>
<g id="life_Insurance">
</g>
<g id="Health_Insurance">
</g>
<g id="Family_Insurance">
</g>
<g id="Child_Insurance">
</g>
<g id="Salesman_Insurance">
</g>
<g id="Search_Insurance">
</g>
<g id="Call_Center">
	<g class="st0">
		<path class="st3" d="M37,47c0,2.2-0.6,4.3-1.7,6.1c-0.4,0.6-0.8,1.2-1.2,1.7c-1,1.2-2.2,2.1-3.6,2.8c-0.6,0.3-1.2,0.6-1.9,0.8
			C27.5,58.8,26.3,59,25,59c-6.6,0-12-5.4-12-12c0-1.3,0.2-2.5,0.6-3.7c0.2-0.7,0.5-1.3,0.8-1.9c2-3.8,6-6.5,10.7-6.5
			C31.6,35,37,40.4,37,47z"/>
	</g>
	<g>
		<path d="M14,43h-2c-2.8,0-5-2.2-5-5v-6c0-2.8,2.2-5,5-5h2c0.6,0,1,0.4,1,1v14C15,42.6,14.6,43,14,43z M12,29c-1.7,0-3,1.3-3,3v6
			c0,1.7,1.3,3,3,3h1V29H12z"/>
	</g>
	<g>
		<path d="M52,43h-2c-0.6,0-1-0.4-1-1V28c0-0.6,0.4-1,1-1h2c2.8,0,5,2.2,5,5v6C57,40.8,54.8,43,52,43z M51,41h1c1.7,0,3-1.3,3-3v-6
			c0-1.7-1.3-3-3-3h-1V41z"/>
	</g>
	<g>
		<path d="M15,28h-2v-2c0-4,1.2-7.8,3.5-11l1.6,1.2C16.1,19,15,22.4,15,26V28z"/>
	</g>
	<g>
		<path d="M51,28h-2v-2c0-3.6-1.1-7-3.2-9.9l1.6-1.2c2.3,3.2,3.5,7,3.5,11V28z"/>
	</g>
	<g>
		<path d="M20,17.7c-1.2,0-2.4-0.5-3.4-1.4c-0.3-0.3-0.4-0.9-0.1-1.3c3.5-5,9.3-8,15.5-8c5.1,0,9.8,2,13.4,5.6
			c0.8,0.8,1.4,1.6,2,2.4c0.3,0.4,0.2,0.9-0.1,1.3c-1.8,1.8-4.7,1.9-6.5,0.2C38.4,14.2,35.3,13,32,13s-6.4,1.2-8.8,3.4
			C22.3,17.3,21.2,17.7,20,17.7z M18.8,15.4c1,0.5,2.2,0.4,3.1-0.4c2.8-2.6,6.4-4,10.2-4s7.4,1.4,10.2,4c0.8,0.8,2.1,0.9,3.1,0.4
			c-0.4-0.5-0.8-0.9-1.2-1.4c-3.2-3.2-7.5-5-12-5C26.8,9,22,11.4,18.8,15.4z"/>
	</g>
	<g>
		<path d="M38,55h-3v-2h3c6.1,0,11-4.9,11-11h2C51,49.2,45.2,55,38,55z"/>
	</g>
	<g>
		<path class="st3" d="M33,57h-2c-1.7,0-3-1.3-3-3s1.3-3,3-3h2c1.7,0,3,1.3,3,3S34.7,57,33,57z M31,53c-0.6,0-1,0.4-1,1s0.4,1,1,1h2
			c0.6,0,1-0.4,1-1s-0.4-1-1-1H31z"/>
	</g>
	<g>
		<path d="M32,47c-0.1,0-0.2,0-0.3,0C26,45.3,22,40.1,22,34.1v-8.6c0-0.4,0.3-0.8,0.7-1l9-2.6c0.2-0.1,0.4-0.1,0.5,0l9,2.6
			c0.4,0.1,0.7,0.5,0.7,1v8.6c0,5.9-4,11.2-9.7,12.8C32.2,47,32.1,47,32,47z M24,26.3v7.8c0,4.9,3.3,9.3,8,10.8
			c4.7-1.5,8-5.9,8-10.8v-7.8L32,24L24,26.3z"/>
	</g>
	<g>
		<path class="st3" d="M31,38c-0.3,0-0.5-0.1-0.7-0.3l-2.5-2.5c-0.4-0.4-0.4-1,0-1.4s1-0.4,1.4,0l1.8,1.8l4.3-4.3
			c0.4-0.4,1-0.4,1.4,0s0.4,1,0,1.4l-5,5C31.5,37.9,31.3,38,31,38z"/>
	</g>
	<g>
		<path class="st3" d="M16,45c-1.7,0-3-1.3-3-3V28c0-1.7,1.3-3,3-3s3,1.3,3,3v14C19,43.7,17.7,45,16,45z M16,27c-0.6,0-1,0.4-1,1v14
			c0,0.6,0.4,1,1,1s1-0.4,1-1V28C17,27.4,16.6,27,16,27z"/>
	</g>
	<g>
		<path class="st3" d="M48,45c-1.7,0-3-1.3-3-3V28c0-1.7,1.3-3,3-3s3,1.3,3,3v14C51,43.7,49.7,45,48,45z M48,27c-0.6,0-1,0.4-1,1v14
			c0,0.6,0.4,1,1,1s1-0.4,1-1V28C49,27.4,48.6,27,48,27z"/>
	</g>
</g>
<g id="User_Insurance">
</g>
<g id="Profile_Information">
</g>
<g id="Approved_Sign_Insurance">
</g>
<g id="calendar">
</g>
<g id="World_Wide_Protection">
</g>
<g id="Shield">
</g>
</svg>
