<?xml version="1.0" encoding="utf-8"?>
<!-- Generator: Adobe Illustrator 22.0.0, SVG Export Plug-In . SVG Version: 6.00 Build 0)  -->
<svg version="1.1" xmlns="http://www.w3.org/2000/svg" xmlns:xlink="http://www.w3.org/1999/xlink" x="0px" y="0px"
	 viewBox="0 0 64 64" style="enable-background:new 0 0 64 64;" xml:space="preserve">
<style type="text/css">
	.st0{opacity:0.3;}
	.st1{fill:#FF9E1F;}
	.st2{fill:#3CC451;}
	.st3{fill:#E13455;}
	.st4{opacity:0.2;}
	.st5{fill:#2394FB;}
</style>
<g id="Layer_1">
</g>
<g id="travel_Insurance">
</g>
<g id="Home_Insurance">
</g>
<g id="Female_Insurance">
</g>
<g id="Funerals_Insurance">
</g>
<g id="Sinking">
	<g class="st0">
		<path class="st3" d="M59,25c0,2.2-0.6,4.3-1.7,6.1c-0.4,0.6-0.8,1.2-1.2,1.7c-1,1.2-2.2,2.1-3.6,2.8c-0.6,0.3-1.2,0.6-1.9,0.8
			C49.5,36.8,48.3,37,47,37c-6.6,0-12-5.4-12-12c0-1.3,0.2-2.5,0.6-3.7c0.2-0.7,0.5-1.3,0.8-1.9c2-3.8,6-6.5,10.7-6.5
			C53.6,13,59,18.4,59,25z"/>
	</g>
	<g>
		<path d="M41.8,54H10c-1.7,0-3-1.3-3-3V20.9c0.1-1.7,1.4-2.9,3-2.9h34c1.7,0,3,1.3,3,3v12.3c0,0.4-0.3,0.8-0.7,1L39,36.3v7.8
			c0,1.9,0.5,3.8,1.4,5.5c0.5,1,1.2,1.9,2,2.6c0.3,0.3,0.4,0.7,0.2,1.1C42.6,53.8,42.2,54,41.8,54z M10,20c-0.5,0-1,0.4-1,1l0,30
			c0,0.6,0.4,1,1,1h29.6c-0.3-0.4-0.6-0.9-0.9-1.4c-1.1-2-1.7-4.2-1.7-6.5v-8.6c0-0.4,0.3-0.8,0.7-1l7.3-2.1V21c0-0.6-0.4-1-1-1H10z
			 M46,33.3L46,33.3L46,33.3z"/>
	</g>
	<g>
		<path d="M46,22c-0.6,0-1-0.4-1-1c0-0.6-0.4-1-1-1H10c-0.5,0-1,0.4-1,1c0,0.5-0.5,0.9-1,1c-0.5,0-1-0.5-1-1c0-2,0.3-4.1,0.9-6
			l1.7-5.8C10,7.9,11.2,7,12.5,7h29c1.3,0,2.5,0.9,2.9,2.1l1.8,5.9C46.7,17,47,19,47,21C47,21.6,46.6,22,46,22z M12.5,9
			c-0.4,0-0.8,0.3-1,0.7l-1.7,5.8c-0.3,0.9-0.5,1.7-0.6,2.6C9.5,18,9.7,18,10,18h34c0.3,0,0.5,0,0.8,0.1c-0.1-0.8-0.3-1.6-0.6-2.4
			l-1.8-5.9c-0.1-0.4-0.5-0.7-1-0.7H12.5z"/>
	</g>
	<g>
		<path class="st3" d="M31,20h-8c-0.6,0-1-0.4-1-1V8c0-0.6,0.4-1,1-1h8c0.6,0,1,0.4,1,1v11C32,19.6,31.6,20,31,20z M24,18h6V9h-6V18
			z"/>
	</g>
	<g>
		<path class="st3" d="M23,29c-0.2,0-0.4,0-0.5-0.1C22.2,28.7,22,28.3,22,28v-9c0-0.6,0.4-1,1-1h8c0.6,0,1,0.4,1,1v9
			c0,0.3-0.2,0.7-0.5,0.9c-0.3,0.2-0.7,0.2-1,0L29,28.1l-1.6,0.8c-0.3,0.1-0.6,0.1-0.9,0L25,28.1l-1.5,0.8C23.3,29,23.2,29,23,29z
			 M25,26c0.2,0,0.3,0,0.4,0.1l1.6,0.8l1.6-0.8c0.3-0.1,0.6-0.1,0.9,0l0.5,0.3V20h-6v6.4l0.5-0.3C24.6,26,24.8,26,25,26z"/>
	</g>
	<g>
		<path class="st3" d="M46,48c-0.3,0-0.5-0.1-0.7-0.3l-2.5-2.5c-0.4-0.4-0.4-1,0-1.4s1-0.4,1.4,0l1.8,1.8l4.3-4.3
			c0.4-0.4,1-0.4,1.4,0s0.4,1,0,1.4l-5,5C46.5,47.9,46.3,48,46,48z"/>
	</g>
	<g>
		<path d="M47,57c-0.1,0-0.2,0-0.3,0c-1.7-0.5-3.3-1.3-4.7-2.4c-0.3-0.2-0.6-0.5-1-0.8c-0.9-0.9-1.7-2-2.4-3.1
			c-1.1-2-1.7-4.2-1.7-6.5v-8.6c0-0.4,0.3-0.8,0.7-1l9-2.6c0.2,0,0.4,0,0.5,0l9,2.6c0.4,0.1,0.7,0.5,0.7,1v8.6
			c0,5.9-4,11.2-9.7,12.8C47.2,57,47.1,57,47,57z M39,36.3v7.8c0,1.9,0.5,3.8,1.4,5.5c0.5,1,1.2,1.9,2,2.6c0.3,0.2,0.5,0.5,0.8,0.7
			c1.1,0.9,2.4,1.6,3.7,2c4.7-1.5,8-5.9,8-10.8v-7.8L47,34L39,36.3z"/>
	</g>
	<g>
		<path class="st3" d="M21,44h-8c-0.6,0-1-0.4-1-1s0.4-1,1-1h8c0.6,0,1,0.4,1,1S21.6,44,21,44z"/>
	</g>
	<g>
		<path class="st3" d="M21,49h-8c-0.6,0-1-0.4-1-1s0.4-1,1-1h8c0.6,0,1,0.4,1,1S21.6,49,21,49z"/>
	</g>
</g>
<g id="money_Insurance">
</g>
<g id="Education_Insurance">
</g>
<g id="Employee_Insurance">
</g>
<g id="car_insurance">
</g>
<g id="_Flight_Insurance">
</g>
<g id="Dental_Insurance">
</g>
<g id="Eye_Insurance">
</g>
<g id="life_Insurance">
</g>
<g id="Health_Insurance">
</g>
<g id="Family_Insurance">
</g>
<g id="Child_Insurance">
</g>
<g id="Salesman_Insurance">
</g>
<g id="Search_Insurance">
</g>
<g id="Call_Center">
</g>
<g id="User_Insurance">
</g>
<g id="Profile_Information">
</g>
<g id="Approved_Sign_Insurance">
</g>
<g id="calendar">
</g>
<g id="World_Wide_Protection">
</g>
<g id="Shield">
</g>
</svg>
