<?xml version="1.0" encoding="utf-8"?>
<!-- Generator: Adobe Illustrator 22.0.0, SVG Export Plug-In . SVG Version: 6.00 Build 0)  -->
<svg version="1.1" xmlns="http://www.w3.org/2000/svg" xmlns:xlink="http://www.w3.org/1999/xlink" x="0px" y="0px"
	 viewBox="0 0 64 64" style="enable-background:new 0 0 64 64;" xml:space="preserve">
<style type="text/css">
	.st0{opacity:0.3;}
	.st1{fill:#FF9E1F;}
	.st2{fill:#3CC451;}
	.st3{fill:#E13455;}
	.st4{opacity:0.2;}
	.st5{fill:#2394FB;}
</style>
<g id="Layer_1">
</g>
<g id="travel_Insurance">
</g>
<g id="Home_Insurance">
</g>
<g id="Female_Insurance">
</g>
<g id="Funerals_Insurance">
</g>
<g id="Sinking">
</g>
<g id="money_Insurance">
</g>
<g id="Education_Insurance">
	<g class="st0">
		<path class="st1" d="M35,44c0,2.2-0.6,4.3-1.7,6.1c-0.4,0.6-0.8,1.2-1.2,1.7c-1,1.2-2.2,2.1-3.6,2.8c-0.6,0.3-1.2,0.6-1.9,0.8
			C25.5,55.8,24.3,56,23,56c-6.6,0-12-5.4-12-12c0-1.3,0.2-2.5,0.6-3.7c0.2-0.7,0.5-1.3,0.8-1.9c2-3.8,6-6.5,10.7-6.5
			C29.6,32,35,37.4,35,44z"/>
	</g>
	<g>
		<path d="M55.9,24.8c-0.1,0-0.1,0-0.2,0c-0.5-0.1-0.8-0.6-0.8-1.1c0.1-0.5,0.1-1,0.1-1.5c0-0.6,0.4-1,1-1s1,0.4,1,1V23
			c0,0.4-0.1,0.8-0.2,1.1C56.7,24.6,56.3,24.8,55.9,24.8z"/>
	</g>
	<g>
		<path d="M29,44c-0.7,0-1.4-0.1-2.1-0.4L5.6,36.3C4.7,35.9,4,35,4,34c0-1,0.6-1.9,1.5-2.3l21.1-8.3c1.5-0.6,3.2-0.6,4.7,0l8.3,3.3
			c0.2,0.1,0.4,0.3,0.5,0.5c0.1,0.1,0.1,0.3,0.2,0.4c0.2,0.4,0.5,0.8,0.9,1.3c0.6,0.8,1.2,1.5,2,2c1.1,0.9,2.4,1.6,3.7,2
			c1.2-0.4,2.3-0.9,3.3-1.6c0.3-0.2,0.6-0.2,1-0.1l1.3,0.5C53.4,32.1,54,33,54,34c0,1-0.7,2-1.6,2.3l-21.3,7.4
			C30.5,43.9,29.8,44,29,44z M29,25c-0.5,0-1.1,0.1-1.6,0.3L6.3,33.6C6.1,33.6,6,33.8,6,34c0,0.2,0.1,0.3,0.3,0.4l21.3,7.4
			c0.9,0.3,2,0.3,2.9,0l21.3-7.4c0.2-0.1,0.3-0.2,0.3-0.4s-0.1-0.3-0.3-0.4L51,33.3c-1.1,0.7-2.4,1.3-3.7,1.7
			c-0.2,0.1-0.4,0.1-0.5,0c-1.7-0.5-3.3-1.3-4.7-2.4c-0.9-0.7-1.7-1.5-2.3-2.4c-0.4-0.5-0.7-1-1-1.5c0-0.1-0.1-0.1-0.1-0.2l-8-3.1
			C30.1,25.1,29.5,25,29,25z"/>
	</g>
	<g>
		<path d="M29,54c-0.1,0-0.2,0-0.3,0l-13-4c-0.4-0.1-0.7-0.5-0.7-1V38.8c0-0.3,0.2-0.6,0.4-0.8s0.6-0.2,0.9-0.1l11.3,3.9
			c0.9,0.3,2,0.3,2.9,0l11.2-3.9c0.3-0.1,0.6-0.1,0.9,0.1c0.3,0.2,0.4,0.5,0.4,0.8V49c0,0.4-0.3,0.8-0.7,1l-13,4
			C29.2,54,29.1,54,29,54z M17,48.3L29,52l12-3.7v-8l-9.9,3.4c-1.3,0.5-2.8,0.5-4.2,0L17,40.2V48.3z"/>
	</g>
	<g>
		<path class="st1" d="M46,48c-0.6,0-1-0.4-1-1v-9.3L28.7,33c-0.5-0.2-0.8-0.7-0.7-1.2c0.2-0.5,0.7-0.8,1.2-0.7l17,5
			c0.4,0.1,0.7,0.5,0.7,1v10C47,47.6,46.6,48,46,48z"/>
	</g>
	<g>
		<path class="st1" d="M46,26c-0.3,0-0.5-0.1-0.7-0.3l-2.5-2.5c-0.4-0.4-0.4-1,0-1.4s1-0.4,1.4,0l1.8,1.8l4.3-4.3
			c0.4-0.4,1-0.4,1.4,0s0.4,1,0,1.4l-5,5C46.5,25.9,46.3,26,46,26z"/>
	</g>
	<g>
		<path d="M47,35c-0.1,0-0.2,0-0.3,0c-1.7-0.5-3.3-1.3-4.7-2.4c-0.9-0.7-1.7-1.5-2.3-2.4c-0.4-0.5-0.7-1-1-1.5
			c-0.1-0.2-0.2-0.4-0.3-0.5c-0.3-0.6-0.5-1.2-0.7-1.8c-0.1-0.4-0.2-0.8-0.3-1.2c-0.2-0.9-0.3-1.9-0.3-2.9v-8.6c0-0.4,0.3-0.8,0.7-1
			l9-2.6c0.2-0.1,0.4-0.1,0.5,0l9,2.6c0.4,0.1,0.7,0.5,0.7,1v8.6c0,0.6,0,1.2-0.1,1.8c-0.5,3.6-2.5,6.9-5.4,9
			c-1.2,0.9-2.6,1.6-4.1,2C47.2,35,47.1,35,47,35z M39,14.3v7.8c0,0.8,0.1,1.7,0.3,2.5c0.1,0.4,0.2,0.7,0.3,1c0.2,0.5,0.4,1,0.6,1.5
			c0.1,0.2,0.2,0.3,0.2,0.4c0.2,0.4,0.5,0.8,0.9,1.3c0.6,0.8,1.2,1.5,2,2c1.1,0.9,2.4,1.6,3.7,2c1.2-0.4,2.3-0.9,3.3-1.6
			c2.5-1.8,4.2-4.6,4.6-7.6c0.1-0.5,0.1-1,0.1-1.6v-7.8L47,12L39,14.3z"/>
	</g>
</g>
<g id="Employee_Insurance">
</g>
<g id="car_insurance">
</g>
<g id="_Flight_Insurance">
</g>
<g id="Dental_Insurance">
</g>
<g id="Eye_Insurance">
</g>
<g id="life_Insurance">
</g>
<g id="Health_Insurance">
</g>
<g id="Family_Insurance">
</g>
<g id="Child_Insurance">
</g>
<g id="Salesman_Insurance">
</g>
<g id="Search_Insurance">
</g>
<g id="Call_Center">
</g>
<g id="User_Insurance">
</g>
<g id="Profile_Information">
</g>
<g id="Approved_Sign_Insurance">
</g>
<g id="calendar">
</g>
<g id="World_Wide_Protection">
</g>
<g id="Shield">
</g>
</svg>
