<?xml version="1.0" encoding="utf-8"?>
<!-- Generator: Adobe Illustrator 22.0.0, SVG Export Plug-In . SVG Version: 6.00 Build 0)  -->
<svg version="1.1" xmlns="http://www.w3.org/2000/svg" xmlns:xlink="http://www.w3.org/1999/xlink" x="0px" y="0px"
	 viewBox="0 0 64 64" style="enable-background:new 0 0 64 64;" xml:space="preserve">
<style type="text/css">
	.st0{opacity:0.3;}
	.st1{fill:#FF9E1F;}
	.st2{fill:#3CC451;}
	.st3{fill:#E13455;}
	.st4{opacity:0.2;}
	.st5{fill:#2394FB;}
</style>
<g id="Layer_1">
</g>
<g id="travel_Insurance">
</g>
<g id="Home_Insurance">
</g>
<g id="Female_Insurance">
</g>
<g id="Funerals_Insurance">
</g>
<g id="Sinking">
</g>
<g id="money_Insurance">
</g>
<g id="Education_Insurance">
</g>
<g id="Employee_Insurance">
</g>
<g id="car_insurance">
</g>
<g id="_Flight_Insurance">
	<g class="st0">
		<path class="st2" d="M45,27c0,2.2-0.6,4.3-1.7,6.1c-0.4,0.6-0.8,1.2-1.2,1.7c-1,1.2-2.2,2.1-3.6,2.8c-0.6,0.3-1.2,0.6-1.9,0.8
			C35.5,38.8,34.3,39,33,39c-6.6,0-12-5.4-12-12c0-1.3,0.2-2.5,0.6-3.7c0.2-0.7,0.5-1.3,0.8-1.9c2-3.8,6-6.5,10.7-6.5
			C39.6,15,45,20.4,45,27z"/>
	</g>
	<g>
		<path class="st2" d="M46,48c-0.3,0-0.5-0.1-0.7-0.3l-2.5-2.5c-0.4-0.4-0.4-1,0-1.4s1-0.4,1.4,0l1.8,1.8l4.3-4.3
			c0.4-0.4,1-0.4,1.4,0s0.4,1,0,1.4l-5,5C46.5,47.9,46.3,48,46,48z"/>
	</g>
	<g>
		<path d="M47,57c-0.1,0-0.2,0-0.3,0c-1.7-0.5-3.3-1.3-4.7-2.4c-1.4-1.1-2.5-2.4-3.3-3.9c-1.1-2-1.7-4.2-1.7-6.5v-8.6
			c0-0.4,0.3-0.8,0.7-1l9-2.6c0.2-0.1,0.4-0.1,0.5,0l9,2.6c0.4,0.1,0.7,0.5,0.7,1v8.6c0,5.9-4,11.2-9.7,12.8C47.2,57,47.1,57,47,57z
			 M39,36.3v7.8c0,1.9,0.5,3.8,1.4,5.5c0.7,1.3,1.7,2.4,2.8,3.3c1.1,0.9,2.4,1.6,3.7,2c4.7-1.5,8-5.9,8-10.8v-7.8L47,34L39,36.3z"/>
	</g>
	<g>
		<path d="M14.3,44c-0.2,0-0.4-0.1-0.6-0.2l-5.9-4.5c-0.2-0.2-0.4-0.4-0.4-0.7s0.1-0.6,0.3-0.8l2.1-2.1c0.3-0.3,0.7-0.4,1-0.2
			l6.5,2.2c0.3,0.1,0.5,0.3,0.6,0.6c0.1,0.3,0.1,0.6-0.1,0.9l-2.7,4.4c-0.1,0.2-0.4,0.4-0.7,0.5C14.4,44,14.3,44,14.3,44z M9.9,38.4
			l4.1,3.1l1.5-2.4l-4.7-1.6L9.9,38.4z"/>
	</g>
	<g>
		<path d="M22.5,53.6C22.5,53.6,22.5,53.6,22.5,53.6c-0.4,0-0.6-0.2-0.8-0.4l-4.5-5.9c-0.2-0.2-0.2-0.5-0.2-0.8
			c0.1-0.3,0.2-0.5,0.5-0.7l4.4-2.7c0.3-0.2,0.6-0.2,0.9-0.1c0.3,0.1,0.5,0.3,0.6,0.6l2.2,6.5c0.1,0.4,0,0.8-0.2,1l-2.1,2.1
			C23,53.5,22.8,53.6,22.5,53.6z M19.5,47l3.1,4.1l0.9-0.9l-1.6-4.7L19.5,47z"/>
	</g>
	<g>
		<path d="M26,28.9c-0.2,0-0.4-0.1-0.6-0.2L7.1,16c-0.2-0.2-0.4-0.4-0.4-0.7c0-0.3,0.1-0.6,0.3-0.8l4.2-4.2c0.3-0.3,0.8-0.4,1.1-0.2
			l21.2,9.9c0.3,0.1,0.5,0.4,0.6,0.7s0,0.7-0.3,0.9l-7.1,7.1C26.6,28.8,26.3,28.9,26,28.9z M9.2,15l16.7,11.6l5.5-5.5l-19.3-9
			L9.2,15z"/>
	</g>
	<g>
		<path d="M18.7,15.1c-0.3,0-0.5-0.1-0.7-0.3c-0.4-0.4-0.4-1,0-1.4l1-1c0.4-0.4,1-0.4,1.4,0s0.4,1,0,1.4l-1,1
			C19.2,15,18.9,15.1,18.7,15.1z"/>
	</g>
	<g>
		<path d="M24.4,17.8c-0.3,0-0.5-0.1-0.7-0.3c-0.4-0.4-0.4-1,0-1.4l0.9-0.9c0.4-0.4,1-0.4,1.4,0s0.4,1,0,1.4l-0.9,0.9
			C25,17.7,24.7,17.8,24.4,17.8z"/>
	</g>
	<g>
		<path d="M38,43c-0.3,0-0.6-0.2-0.8-0.4l-4.9-7c-0.3-0.4-0.2-0.9,0.1-1.3l7.1-7.1c0.2-0.2,0.6-0.3,0.9-0.3c0.3,0.1,0.6,0.3,0.7,0.6
			l2.9,6.2c0.1,0.3,0.1,0.6,0,0.8c-0.1,0.3-0.4,0.5-0.6,0.5L39,36.3V42c0,0.4-0.3,0.8-0.7,1C38.2,43,38.1,43,38,43z M34.4,35.1
			l2.6,3.7v-3.2c0-0.4,0.3-0.8,0.7-1l4-1.1l-1.8-3.9L34.4,35.1z"/>
	</g>
	<g>
		<path class="st2" d="M15.8,48.7c-0.9,0-1.8-0.3-2.4-1c-1.1-1.1-1.3-2.9-0.5-4.3l6-9.7c0-0.1,0.1-0.1,0.1-0.2L37.5,15
			c2.8-2.8,6.9-3.9,10.7-3c0.4,0.1,0.6,0.4,0.7,0.7c0.5,1.9,0.4,3.9-0.1,5.8c-0.5,1.9-1.5,3.6-2.9,5L27.5,42
			c-0.1,0.1-0.1,0.1-0.2,0.1l-9.7,6C17,48.5,16.4,48.7,15.8,48.7z M20.5,34.9l-5.9,9.6c-0.4,0.6-0.3,1.3,0.2,1.8
			c0.5,0.5,1.2,0.6,1.8,0.2l9.6-5.9l18.4-18.4l0,0c1.1-1.1,2-2.5,2.4-4.1c0.4-1.3,0.4-2.8,0.2-4.1c-3-0.5-6.1,0.4-8.2,2.6L20.5,34.9
			z"/>
	</g>
</g>
<g id="Dental_Insurance">
</g>
<g id="Eye_Insurance">
</g>
<g id="life_Insurance">
</g>
<g id="Health_Insurance">
</g>
<g id="Family_Insurance">
</g>
<g id="Child_Insurance">
</g>
<g id="Salesman_Insurance">
</g>
<g id="Search_Insurance">
</g>
<g id="Call_Center">
</g>
<g id="User_Insurance">
</g>
<g id="Profile_Information">
</g>
<g id="Approved_Sign_Insurance">
</g>
<g id="calendar">
</g>
<g id="World_Wide_Protection">
</g>
<g id="Shield">
</g>
</svg>
