<svg xmlns="http://www.w3.org/2000/svg" id="Illustration" viewBox="0 0 388.04 539.25"><defs><style>.cls-1{fill:#ffd9b9}.cls-2{fill:#fc9c97}.cls-3{fill:#47b4ac}.cls-4{fill:#1c3074}.cls-5{fill:#000d39}.cls-6{fill:#72381f}.cls-7{fill:#597bf1}.cls-8{fill:#142663}.cls-9{fill:#4563cd}.cls-10{fill:none;stroke:#4563cd;stroke-linecap:round;stroke-linejoin:round}.cls-11{fill:#fff}.cls-12{fill:#10868a}.cls-13{fill:#ff9e1f}</style></defs><title>head</title><path d="M723.84,250.63l-23.6,40.29-9.47-5.29L706,245l-5.74-10.28-.88-1.58,1.4-.24,20.62-3.44.28.53,2.58,5A16.29,16.29,0,0,1,723.84,250.63Z" class="cls-1" transform="translate(-338.04 0.01)"/><path d="M721.7,230c-.49.35-11.47,8-15.68,15l-5.74-10.28.52-1.82,20.62-3.44Z" class="cls-2" transform="translate(-338.04 0.01)"/><path d="M703.77,536.43a3.13,3.13,0,0,1-.42,1.55,2.46,2.46,0,0,1-2.12,1.26h-38a5,5,0,0,1-3-1,6,6,0,0,1-1.65-2,6.28,6.28,0,0,1-.7-3,5.83,5.83,0,0,1,.23-1.71l1.86-6.85V512.74l21.74-.19-1.34,9a3.88,3.88,0,0,0,2.19,4.2l19.55,8a2.79,2.79,0,0,1,1.65,2.44A1.93,1.93,0,0,1,703.77,536.43Z" class="cls-1" transform="translate(-338.04 0.01)"/><path d="M703.77,536.43a3.13,3.13,0,0,1-.42,1.55,2.46,2.46,0,0,1-2.12,1.26h-38a5,5,0,0,1-3-1,6,6,0,0,1-1.65-2h45.18A1.21,1.21,0,0,1,703.77,536.43Z" class="cls-2" transform="translate(-338.04 0.01)"/><path d="M580.09,536.43a3.13,3.13,0,0,0,.42,1.55,2.46,2.46,0,0,0,2.12,1.26h38a5,5,0,0,0,3-1,6.18,6.18,0,0,0,1.66-2,6.38,6.38,0,0,0,.69-3,5.83,5.83,0,0,0-.23-1.71l-1.85-6.85,1.63-11.95-21.74-.19-.29,9a3.89,3.89,0,0,1-2.2,4.2l-19.55,8a2.79,2.79,0,0,0-1.65,2.44A2.09,2.09,0,0,0,580.09,536.43Z" class="cls-1" transform="translate(-338.04 0.01)"/><path d="M580.09,536.43a3.13,3.13,0,0,0,.42,1.55,2.46,2.46,0,0,0,2.12,1.26h38a5,5,0,0,0,3-1,6.18,6.18,0,0,0,1.66-2H580.1A1.21,1.21,0,0,0,580.09,536.43Z" class="cls-2" transform="translate(-338.04 0.01)"/><path d="M615.43,313.47,600.43,515s20.94,2,27.13,0l21.71-163.1,8.59,162.58s14.24,4.66,25.82,0l5.4-194.26Z" class="cls-3" transform="translate(-338.04 0.01)"/><path d="M692.68,319.73s-47.52,23.42-81-4l7.6-59.19V201.73l4.86-33.18,16.79-4.64,2.44-.68,22.13,1.48,2.37.6,17.25,4.33Z" class="cls-4" transform="translate(-338.04 0.01)"/><path d="M624.18,168.56l-6.1,1.73a12.2,12.2,0,0,0-8.33,8.1l-16.17,51.72L617,241l8.4-21.27Z" class="cls-4" transform="translate(-338.04 0.01)"/><path d="M685.16,169.63l5.76,1.2a11.76,11.76,0,0,1,8.39,6.87l22.12,51.71L703.24,242,683.3,215.82Z" class="cls-4" transform="translate(-338.04 0.01)"/><path d="M615.35,244h0a11.28,11.28,0,0,1-19.25,1.83l-36.23-49.09,9.21-11.22L602,220.72l10,10.41A10.28,10.28,0,0,1,615.35,244Z" class="cls-1" transform="translate(-338.04 0.01)"/><path d="M667.91,165.31a13.48,13.48,0,0,1-11.33,12.5,13.15,13.15,0,0,1-2.17.18A13.49,13.49,0,0,1,641,164.44c0-.18,0-.35,0-.53l2.44-.68,22.13,1.48Z" class="cls-3" transform="translate(-338.04 0.01)"/><path d="M631.22,119.56h0c-8-3.08-9.6-13.82-2.72-18.87,4.3-3.15,10.56-5.57,19.68-5.55,26,.06,28.08,18.78,28.08,18.78s8.06,4.07,4.29,15.88-16.86,29.83-16.86,29.83Z" class="cls-5" transform="translate(-338.04 0.01)"/><path d="M630.89,118.25l-1.55,18.19a18.86,18.86,0,0,0,14.87,19.82h0l-.8,7a11.1,11.1,0,0,0,12.79,12.22h0a11.1,11.1,0,0,0,9.34-10.73l.37-18.08s7.13-2.62,6.36-9.68-7.35-4-8.15-1.66v2.21a3.06,3.06,0,0,1-3,3h0a2.87,2.87,0,0,1-2.45-1.34c-1.42-2.27-3.5-7.59-.82-17.13C657.8,122.09,641,123.22,630.89,118.25Z" class="cls-1" transform="translate(-338.04 0.01)"/><path d="M644.21,156.26s7.43,1.06,12.56-4.45c0,0-4.18,8.21-13.18,9.87Z" class="cls-2" transform="translate(-338.04 0.01)"/><path d="M648.67,133.46a1.33,1.33,0,1,1-1.46-1.2,1.33,1.33,0,0,1,1.46,1.2Z" class="cls-5" transform="translate(-338.04 0.01)"/><path d="M652.67,131.28a.65.65,0,0,1-.38-.13A8.11,8.11,0,0,0,644,130a.59.59,0,0,1-.79-.28h0a.6.6,0,0,1,.28-.8,9.33,9.33,0,0,1,9.52,1.33.61.61,0,0,1,.09.84A.62.62,0,0,1,652.67,131.28Z" class="cls-6" transform="translate(-338.04 0.01)"/><path d="M634.17,131.34a1.33,1.33,0,1,1-1.46-1.2,1.33,1.33,0,0,1,1.46,1.2Z" class="cls-5" transform="translate(-338.04 0.01)"/><path d="M638.17,129.16a.62.62,0,0,1-.37-.13,8.13,8.13,0,0,0-8.26-1.18.59.59,0,0,1-.79-.28h0a.6.6,0,0,1,.28-.8,9.33,9.33,0,0,1,9.52,1.33.6.6,0,0,1,.07.85A.59.59,0,0,1,638.17,129.16Z" class="cls-6" transform="translate(-338.04 0.01)"/><path d="M641.67,146.63a6.76,6.76,0,0,1-4.84-1.89.45.45,0,0,1,.62-.65c3.08,3,7.73.92,7.78.9a.45.45,0,0,1,.59.24.46.46,0,0,1-.22.58A10.4,10.4,0,0,1,641.67,146.63Z" class="cls-2" transform="translate(-338.04 0.01)"/><path d="M692.68,280.57h-6.61l-3.91,1.6a2.37,2.37,0,0,0-1.44,2.48l.22,1.67-3.28,2.92a2.62,2.62,0,0,0-.7,2.91c1.21,3.08,4,9.57,7.65,13.19a3.11,3.11,0,0,0,4.15.2l9.77-7.91,1.73-6.7Z" class="cls-1" transform="translate(-338.04 0.01)"/><path d="M561.81,126.93l-3,2v3.7S533,159.52,497.94,176a18.67,18.67,0,0,1-18.65-1.49l-40.65-27.9V96.44l10.19,3.19,45.6,46.87s25.49-18.47,51.13-30.38l5.06,1.1L554.4,115S560.24,121.22,561.81,126.93Z" class="cls-7" transform="translate(-338.04 0.01)"/><path d="M417.14,536.1a3.29,3.29,0,0,1-.47,1.73,1.27,1.27,0,0,1-.18.27,2.69,2.69,0,0,1-2.17,1.14H372a5.87,5.87,0,0,1-5.2-3.37,7.17,7.17,0,0,1-.53-5.22l2.08-7.63V509.69l22.52-.2.23,10.06a4.33,4.33,0,0,0,2.45,4.68l20.36,8.34,1.42.58a3.06,3.06,0,0,1,1.84,2.72A1.77,1.77,0,0,1,417.14,536.1Z" class="cls-1" transform="translate(-338.04 0.01)"/><path d="M464.14,536.11a3.47,3.47,0,0,1-.47,1.72,2.78,2.78,0,0,1-2.36,1.41H419a5.58,5.58,0,0,1-3.38-1.14,6.59,6.59,0,0,1-1.83-2.23,7,7,0,0,1-.79-3.3,7.34,7.34,0,0,1,.26-1.92l2.08-7.63V509.69l24.25-.22L438,519.55a4.33,4.33,0,0,0,2.45,4.68l21.8,8.92a3.09,3.09,0,0,1,1.83,2.72A1,1,0,0,1,464.14,536.11Z" class="cls-2" transform="translate(-338.04 0.01)"/><path d="M347.89,276.38l11.72,119.38,7.71,117.36s15.1,2.41,23.86-.19l3-118.23,7.8-85.36,8.26,86.42,5.4,118.09s12.06,2.91,23.47,0l8.54-236.75Z" class="cls-8" transform="translate(-338.04 0.01)"/><path d="M435.61,95.5s16.33-19.57,8-42.46-3.9-25.36-10.76-31.55c0,0-21.48-23.89-47.54.07a22.65,22.65,0,0,0-6.78,12.38c-1.3,6.74-4,17.2-9.2,22.82-8,8.75-8.91,31.59,4.28,42.85C373.53,99.63,400,123.63,435.61,95.5Z" class="cls-6" transform="translate(-338.04 0.01)"/><path d="M431.53,33.89c-12,10.41-25.77,13.19-32.78,14.82,0,0-1.52,15.35-11.48,26.94l-.08.09-1.35,19.39,27.35-2.74-1.49-14.9C438.58,77.4,431.53,33.89,431.53,33.89Z" class="cls-1" transform="translate(-338.04 0.01)"/><path d="M411.66,77.49s-7.91-.56-11.92-7c0,0,5,11.23,12.44,12.27Z" class="cls-2" transform="translate(-338.04 0.01)"/><path d="M481.63,175.94a18.43,18.43,0,0,1-2.39-1.4l-40.6-27.91v-2.2L447,134.12Z" class="cls-9" transform="translate(-338.04 0.01)"/><path d="M451.2,155.14c-9.22,31.34-10.6,53.14-6.51,75.5a198.78,198.78,0,0,1,3,46.46c-47.45,16.81-99.75-.72-99.75-.72.17-22.31,7.17-33.06,13.69-58.33.79-3.1,1.59-6.43,2.36-10,3.83-17.78,5-49.2,5.23-74.27.22-21.21-.21-37.87-.21-37.87l15.77-5.65.67-4.13a3.14,3.14,0,0,1,3.11-2.63h22.33a2.72,2.72,0,0,1,2.72,2.58l.2,3.71,24.87,6.68,3,24.44,6,9.42A30.3,30.3,0,0,1,451.2,155.14Z" class="cls-7" transform="translate(-338.04 0.01)"/><path d="M361.59,218.05c.79-3.1,1.59-6.43,2.36-10,3.83-17.78,5-49.2,5.23-74.27,2.24,4.29,5.14,11,5.68,17.75C375.79,162.71,379.4,161.79,361.59,218.05Z" class="cls-9" transform="translate(-338.04 0.01)"/><path d="M413.77,89.77c-14.62,6.86-29,.47-29,.47l.67-4.13a3.14,3.14,0,0,1,3.11-2.63h22.33a2.72,2.72,0,0,1,2.72,2.58Z" class="cls-9" transform="translate(-338.04 0.01)"/><path d="M416.33,146.69l-3.12,3.66-.78,4.41A7.58,7.58,0,0,1,411,158c-14.38,18.4-34.7,32-50.51,40.68a15.16,15.16,0,0,1-22.34-15.2c3.25-25.7,9.87-58.48,13.08-73.81a15.28,15.28,0,0,1,10.2-11.34L369,95.89c5.54,5.44,5.91,48.1,5.91,48.1l-8.35,19.58,27-20.82a9.82,9.82,0,0,1,3.26-1.68l4.52-1.34,4.67-5.6,10.27,10.38A1.61,1.61,0,0,1,416.33,146.69Z" class="cls-7" transform="translate(-338.04 0.01)"/><path d="M413.21,150.35l-.78,4.41s-20.49,27.85-54.37,45" class="cls-10" transform="translate(-338.04 0.01)"/><polyline points="63.26 139.74 56.2 142.25 24.63 166.46" class="cls-10"/><path d="M412.53,50.85a1.45,1.45,0,1,1-1.59-1.3,1.45,1.45,0,0,1,1.59,1.3Z" class="cls-5" transform="translate(-338.04 0.01)"/><path d="M426.89,51.49a1.45,1.45,0,1,1-1.59-1.3A1.45,1.45,0,0,1,426.89,51.49Z" class="cls-5" transform="translate(-338.04 0.01)"/><path d="M416,47.82a.55.55,0,0,1-.28-.07,10.65,10.65,0,0,0-9.28-.38.6.6,0,1,1-.55-1.07h0a11.75,11.75,0,0,1,10.39.39.61.61,0,0,1,.25.81A.59.59,0,0,1,416,47.82Z" class="cls-6" transform="translate(-338.04 0.01)"/><path d="M421.66,48.63a.6.6,0,0,1-.36-1.08,10.07,10.07,0,0,1,10.37-.61.6.6,0,0,1-.56,1.06,9,9,0,0,0-9.1.51A.55.55,0,0,1,421.66,48.63Z" class="cls-6" transform="translate(-338.04 0.01)"/><path d="M419.7,66c-1.43,1.17-6.46,4.39-11.18-3.18a.15.15,0,0,1,0-.21.15.15,0,0,1,.18,0c1.94,1.11,7.75,3.12,10.85,3.07a.19.19,0,0,1,.19.19A.2.2,0,0,1,419.7,66Z" class="cls-11" transform="translate(-338.04 0.01)"/><path d="M406,134.13l9.34-10.39,13.3-12.34a.85.85,0,0,1,1.21.07.83.83,0,0,1,.18.3l.44,1.44-9.23,26.52-4.5,2.51L413,145.37Z" class="cls-1" transform="translate(-338.04 0.01)"/><path d="M416.33,146.69l-3.12,3.66L401.3,139.73l4.67-5.6,10.27,10.38A1.61,1.61,0,0,1,416.33,146.69Z" class="cls-9" transform="translate(-338.04 0.01)"/><path d="M552.53,535.9a3.75,3.75,0,0,1-.5,1.85,3,3,0,0,1-2.52,1.49H504.44a5.89,5.89,0,0,1-3.59-1.21,7.29,7.29,0,0,1-2-2.38,7.57,7.57,0,0,1-.83-3.52,6.76,6.76,0,0,1,.28-2l2.2-8.13V507.79l25.8-.23-1.59,10.72a4.62,4.62,0,0,0,2.61,5l23.19,9.49a3.3,3.3,0,0,1,2,2.9A1.79,1.79,0,0,1,552.53,535.9Z" class="cls-1" transform="translate(-338.04 0.01)"/><path d="M552.53,535.9a3.75,3.75,0,0,1-.5,1.85,3,3,0,0,1-2.52,1.49H504.44a5.89,5.89,0,0,1-3.59-1.21,7.29,7.29,0,0,1-2-2.38h53.68Z" class="cls-2" transform="translate(-338.04 0.01)"/><path d="M401.43,535.9a3.65,3.65,0,0,0,.51,1.85,2.94,2.94,0,0,0,2.51,1.49h45.08a5.89,5.89,0,0,0,3.59-1.21,7.29,7.29,0,0,0,2-2.38,7.56,7.56,0,0,0,.82-3.52,7.48,7.48,0,0,0-.27-2l-2.2-8.13V507.79l-25.81-.23,1.59,10.72a4.61,4.61,0,0,1-2.61,5l-23.19,9.49a3.3,3.3,0,0,0-2,2.9A1.79,1.79,0,0,0,401.43,535.9Z" class="cls-1" transform="translate(-338.04 0.01)"/><path d="M401.43,535.9a3.65,3.65,0,0,0,.51,1.85,2.94,2.94,0,0,0,2.51,1.49h45.08a5.89,5.89,0,0,0,3.59-1.21,7.29,7.29,0,0,0,2-2.38H401.49A1,1,0,0,0,401.43,535.9Z" class="cls-2" transform="translate(-338.04 0.01)"/><path d="M444.22,253.43l-20.87,260.3c10.61,2.61,21.51,3.15,32.93,0l36.25-207.41,6.2,207.41c9.92,2.92,20.27,2.85,31,0l11-257.6Z" class="cls-4" transform="translate(-338.04 0.01)"/><path d="M543.33,261.18c-45,13.59-101.78,0-101.78,0,2.71-40,12.54-177.79,12.54-177.79l22.74-6.65,4.74-1.38h34l4.77,1.19,17.22,4.31,5.37,67.22Z" class="cls-3" transform="translate(-338.04 0.01)"/><path d="M454.1,83.38l-7.6,2.45a17.13,17.13,0,0,0-11,11.08L416,157.63a3.43,3.43,0,0,0,2.23,4.31,3.37,3.37,0,0,0,1,.16h30.82Z" class="cls-3" transform="translate(-338.04 0.01)"/><path d="M415.07,162.09S423.75,212,458.23,241l13.08-7.74-30-75.54a10.92,10.92,0,0,0-9.57-6.88l-5.21-.25A10.92,10.92,0,0,0,415,160.94a11.42,11.42,0,0,0,0,1.17Z" class="cls-1" transform="translate(-338.04 0.01)"/><path d="M537.61,80.87l7.59,2.45A17.11,17.11,0,0,1,556.26,94.4l19.61,61.23a3,3,0,0,1-1.83,3.83,3,3,0,0,1-1.06.17H541.61Z" class="cls-3" transform="translate(-338.04 0.01)"/><path d="M576.64,159.63s-8.69,49.94-43.16,78.94l-13.08-7.73,30-75.55a11,11,0,0,1,9.58-6.88l5.13-.27a10.93,10.93,0,0,1,11.5,10.33,11.22,11.22,0,0,1,0,1.16Z" class="cls-1" transform="translate(-338.04 0.01)"/><path d="M520.39,76.55a21.82,21.82,0,0,1-43.56.19l4.74-1.38h34Z" class="cls-12" transform="translate(-338.04 0.01)"/><path d="M515.62,61.09V75.36a17,17,0,1,1-34,0h0V61.09Z" class="cls-1" transform="translate(-338.04 0.01)"/><path d="M562.78,105.29a2,2,0,0,0-2.74-.7l-.08,0-10.63,7.12a2.72,2.72,0,0,0-.87,3.55l4.22,7.33a3.22,3.22,0,0,0,3,1.61l10.52-.62a1.73,1.73,0,0,0,1.62-1.83c0-.06,0-.12,0-.17C567.22,118,565.7,110.13,562.78,105.29Z" class="cls-1" transform="translate(-338.04 0.01)"/><path d="M515.62,61.09v7.18a24.28,24.28,0,0,1-34,0V61.08Z" class="cls-2" transform="translate(-338.04 0.01)"/><path d="M470.07,37.27l-1.6-22.2A6.52,6.52,0,0,1,474.36,8a6.38,6.38,0,0,1,1.85.09h0s5.6-9,24.12-8C514.8.85,519,6.76,525.71,8.94a4.6,4.6,0,0,1,3.06,5.74,4.73,4.73,0,0,1-.53,1.14v0l-3.9,21.4Z" class="cls-5" transform="translate(-338.04 0.01)"/><path d="M528.86,39c-2.11,9.08-5.2,8.38-6,7.86a24.23,24.23,0,0,1-48.42.11c-.79.45-3.4,2.22-6-6.19-1.38-4.57-.3-10.42,3.37-10.42a5.42,5.42,0,0,1,2.55.67l1.28,5.36,2.26-7.25,1.63-4.67c8.55,1.66,25.94,4.12,38.08-.24l1.71,4.91,2.26,7.25L522.86,31v.1a5.39,5.39,0,0,1,2.74-.77C529.26,30.31,530,34.3,528.86,39Z" class="cls-1" transform="translate(-338.04 0.01)"/><path d="M489.26,38.83a1.73,1.73,0,1,1-1.89-1.55h0A1.73,1.73,0,0,1,489.26,38.83Z" class="cls-5" transform="translate(-338.04 0.01)"/><path d="M511.53,39.34a1.73,1.73,0,1,1-1.89-1.55h0A1.73,1.73,0,0,1,511.53,39.34Z" class="cls-5" transform="translate(-338.04 0.01)"/><path d="M493.36,35.11a.64.64,0,0,1-.27-.07,12.87,12.87,0,0,0-11.15-.46.6.6,0,1,1-.55-1.07,13.82,13.82,0,0,1,12.25.47.6.6,0,0,1,.26.81h0A.62.62,0,0,1,493.36,35.11Z" class="cls-6" transform="translate(-338.04 0.01)"/><path d="M505.33,35.87a.59.59,0,0,1-.61-.57.6.6,0,0,1,.25-.5,11.84,11.84,0,0,1,12.22-.72.59.59,0,0,1,.26.79h0a.6.6,0,0,1-.81.26h0a10.67,10.67,0,0,0-10.95.62A.66.66,0,0,1,505.33,35.87Z" class="cls-6" transform="translate(-338.04 0.01)"/><path d="M499.23,58.57a8.58,8.58,0,0,1-6.17-2.39.45.45,0,0,1-.1-.63.46.46,0,0,1,.63-.1l.09.09c4,4,10.15,1.21,10.21,1.19a.45.45,0,0,1,.37.81A13.15,13.15,0,0,1,499.23,58.57Z" class="cls-2" transform="translate(-338.04 0.01)"/><path d="M496,275c-1.46-.73-19.64-10-37.77-29.85a144.83,144.83,0,0,1-19.82-27.41,138.74,138.74,0,0,1-10-22.29A141.12,141.12,0,0,1,423,175.14,160.46,160.46,0,0,1,422,125.41s24,5.84,48.92,1.88a77.67,77.67,0,0,0,25-8.14H496c1.89,1,3.84,2,5.83,2.81a88.45,88.45,0,0,0,26.07,6.19,143.11,143.11,0,0,0,42-2.74q.45,3.63.75,7.14C579.28,232.37,496,275,496,275Z" class="cls-13" transform="translate(-338.04 0.01)"/><polygon points="192.19 186.58 166.29 186.58 166.29 160.68 149.66 160.68 149.66 186.58 123.76 186.58 123.76 203.21 149.66 203.21 149.66 229.11 166.29 229.11 166.29 203.21 192.19 203.21 192.19 186.58" class="cls-11"/></svg>