<?xml version="1.0" encoding="utf-8"?>
<!-- Generator: Adobe Illustrator 22.0.0, SVG Export Plug-In . SVG Version: 6.00 Build 0)  -->
<svg version="1.1" xmlns="http://www.w3.org/2000/svg" xmlns:xlink="http://www.w3.org/1999/xlink" x="0px" y="0px"
	 viewBox="0 0 64 64" style="enable-background:new 0 0 64 64;" xml:space="preserve">
<style type="text/css">
	.st0{opacity:0.3;}
	.st1{fill:#FF9E1F;}
	.st2{fill:#3CC451;}
	.st3{fill:#E13455;}
	.st4{opacity:0.2;}
	.st5{fill:#2394FB;}
</style>
<g id="Layer_1">
</g>
<g id="travel_Insurance">
</g>
<g id="Home_Insurance">
</g>
<g id="Female_Insurance">
</g>
<g id="Funerals_Insurance">
</g>
<g id="Sinking">
</g>
<g id="money_Insurance">
</g>
<g id="Education_Insurance">
</g>
<g id="Employee_Insurance">
</g>
<g id="car_insurance">
</g>
<g id="_Flight_Insurance">
</g>
<g id="Dental_Insurance">
</g>
<g id="Eye_Insurance">
</g>
<g id="life_Insurance">
</g>
<g id="Health_Insurance">
	<g class="st0">
		<path class="st3" d="M44,20c0,2.2-0.6,4.3-1.7,6.1c-0.4,0.6-0.8,1.2-1.2,1.7c-1,1.2-2.2,2.1-3.6,2.8c-0.6,0.3-1.2,0.6-1.9,0.8
			C34.5,31.8,33.3,32,32,32c-6.6,0-12-5.4-12-12c0-1.3,0.2-2.5,0.6-3.7c0.2-0.7,0.5-1.3,0.8-1.9c2-3.8,6-6.5,10.7-6.5
			C38.6,8,44,13.4,44,20z"/>
	</g>
	<g>
		<path class="st3" d="M49,45c-0.3,0-0.5-0.1-0.7-0.3l-2.5-2.5c-0.4-0.4-0.4-1,0-1.4s1-0.4,1.4,0l1.8,1.8l4.3-4.3
			c0.4-0.4,1-0.4,1.4,0s0.4,1,0,1.4l-5,5C49.5,44.9,49.3,45,49,45z"/>
	</g>
	<g>
		<path d="M50,54c-0.1,0-0.2,0-0.3,0c-1.7-0.5-3.3-1.3-4.7-2.4c-1.4-1.1-2.5-2.4-3.3-3.9c-1.1-2-1.7-4.2-1.7-6.5v-8.6
			c0-0.4,0.3-0.8,0.7-1l9-2.6c0.2-0.1,0.4-0.1,0.5,0l9,2.6c0.4,0.1,0.7,0.5,0.7,1v8.6c0,5.9-4,11.2-9.7,12.8C50.2,54,50.1,54,50,54z
			 M42,33.3v7.8c0,1.9,0.5,3.8,1.4,5.5c0.7,1.3,1.7,2.4,2.8,3.3c1.1,0.9,2.4,1.6,3.7,2c4.7-1.5,8-5.9,8-10.8v-7.8L50,31L42,33.3z"/>
	</g>
	<g>
		<path d="M31.9,54.7c0,0-0.1,0-0.1,0c-0.1,0-0.3,0-0.4-0.1c-0.8-0.4-19-10.6-23.7-17.7C5,33,3.7,29.2,3.7,25.6
			c0-4.3,1.9-8.4,5.6-12.1c2.6-2.6,5.9-4,9.5-4c0,0,0.1,0,0.1,0c3.6,0,7,1.4,9.5,4l3.4,3.4l3.4-3.4c2.6-2.6,5.9-4,9.5-4
			c0,0,0.1,0,0.1,0c3.6,0,7,1.4,9.5,4c5.7,5.7,7,12.1,4,19.1c-0.2,0.5-0.7,0.7-1.2,0.6L50,31l-8,2.3v7.8c0,1.9,0.5,3.8,1.4,5.5
			c0.3,0.5,0.1,1-0.3,1.3c-5.5,3.7-10.7,6.6-10.8,6.6C32.2,54.6,32.1,54.7,31.9,54.7z M18.8,11.5c-3.1,0-6,1.2-8.1,3.4
			c-3.3,3.3-5,6.9-5,10.7c0,3.2,1.2,6.6,3.6,10.2c4,6.1,19.7,15.1,22.6,16.8c1.3-0.7,5.2-3,9.4-5.8C40.4,45,40,43.1,40,41.1v-8.6
			c0-0.4,0.3-0.8,0.7-1l9-2.6c0.2-0.1,0.4-0.1,0.5,0l6.7,1.9c2.2-5.9,0.9-11.3-3.9-16.1c-2.2-2.2-5.1-3.4-8.1-3.4c0,0,0,0-0.1,0
			c-3.1,0-6,1.2-8.1,3.4L32.6,19c-0.4,0.4-1,0.4-1.4,0l-4.1-4.1C24.9,12.7,22,11.5,18.8,11.5C18.9,11.5,18.9,11.5,18.8,11.5z"/>
	</g>
	<g>
		<path class="st3" d="M46,15.6c0,0-0.1,0-0.1,0c-0.4,0-0.7-0.1-1.1-0.1c-0.6,0-1-0.4-1-1s0.4-1,1-1c0.4,0,0.9,0,1.3,0.1
			c0.5,0.1,0.9,0.6,0.9,1.1C46.9,15.2,46.5,15.6,46,15.6z"/>
	</g>
	<g>
		<path class="st3" d="M54.9,28.2c-0.1,0-0.1,0-0.2,0c-0.5-0.1-0.9-0.6-0.8-1.1c0.5-3.3-0.7-6.3-3.7-9.4c-0.5-0.5-1-0.8-1.5-1.2
			l-0.1-0.1c-0.5-0.3-0.6-0.9-0.4-1.4c0.3-0.5,0.9-0.6,1.4-0.4l0.2,0.1c0.7,0.4,1.3,0.9,1.9,1.5c3.5,3.5,4.9,7.1,4.3,11.1
			C55.8,27.9,55.4,28.2,54.9,28.2z"/>
	</g>
	<g>
		<path class="st3" d="M22,35h-6c-0.6,0-1-0.4-1-1v-5h-5c-0.6,0-1-0.4-1-1v-6c0-0.6,0.4-1,1-1h5v-5c0-0.6,0.4-1,1-1h6
			c0.6,0,1,0.4,1,1v5h5c0.6,0,1,0.4,1,1v6c0,0.6-0.4,1-1,1h-5v5C23,34.6,22.6,35,22,35z M17,33h4v-5c0-0.6,0.4-1,1-1h5v-4h-5
			c-0.6,0-1-0.4-1-1v-5h-4v5c0,0.6-0.4,1-1,1h-5v4h5c0.6,0,1,0.4,1,1V33z"/>
	</g>
</g>
<g id="Family_Insurance">
</g>
<g id="Child_Insurance">
</g>
<g id="Salesman_Insurance">
</g>
<g id="Search_Insurance">
</g>
<g id="Call_Center">
</g>
<g id="User_Insurance">
</g>
<g id="Profile_Information">
</g>
<g id="Approved_Sign_Insurance">
</g>
<g id="calendar">
</g>
<g id="World_Wide_Protection">
</g>
<g id="Shield">
</g>
</svg>
