<?xml version="1.0" encoding="utf-8"?>
<!-- Generator: Adobe Illustrator 23.0.5, SVG Export Plug-In . SVG Version: 6.00 Build 0)  -->
<svg version="1.1" id="Capa_1" xmlns="http://www.w3.org/2000/svg" xmlns:xlink="http://www.w3.org/1999/xlink" x="0px" y="0px"
	 viewBox="0 0 64 64" style="enable-background:new 0 0 64 64;" xml:space="preserve">
<style type="text/css">
	.st0{opacity:0.3;}
	.st1{fill:#2394FB;}
</style>
<g id="Layer_1">
</g>
<g id="travel_Insurance">
</g>
<g id="Home_Insurance">
</g>
<g id="Female_Insurance">
</g>
<g id="Funerals_Insurance">
</g>
<g id="Sinking">
</g>
<g id="money_Insurance">
</g>
<g id="Education_Insurance">
</g>
<g id="Employee_Insurance">
</g>
<g id="car_insurance">
</g>
<g id="_Flight_Insurance">
</g>
<g id="Dental_Insurance">
</g>
<g id="Eye_Insurance">
</g>
<g id="life_Insurance">
</g>
<g id="Health_Insurance">
</g>
<g id="Family_Insurance">
</g>
<g id="Child_Insurance">
</g>
<g id="Salesman_Insurance">
</g>
<g id="Search_Insurance">
</g>
<g id="Call_Center">
</g>
<g id="User_Insurance">
</g>
<g id="Profile_Information">
	<g class="st0">
		<path class="st1" d="M29,48c0,2.2-0.6,4.3-1.7,6.1c-0.4,0.6-0.8,1.2-1.2,1.7c-1,1.2-2.2,2.1-3.6,2.8c-0.6,0.3-1.2,0.6-1.9,0.8
			C19.5,59.8,18.3,60,17,60c-6.6,0-12-5.4-12-12c0-1.3,0.2-2.5,0.6-3.7c0.2-0.7,0.5-1.3,0.8-1.9c2-3.8,6-6.5,10.7-6.5
			C23.6,36,29,41.4,29,48z"/>
	</g>
	<g>
		<path d="M48.9,60H15.1c-2.8,0-5.1-2.3-5.1-5.1V13.1c0-2.8,2.3-5.1,5.1-5.1H24c0.6,0,1,0.4,1,1v0.5c0,1.4,1.1,2.5,2.5,2.5h9.1
			c1.4,0,2.5-1.1,2.5-2.5V9c0-0.6,0.4-1,1-1H49c2.8,0,5.1,2.3,5.1,5.1v41.8C54,57.7,51.7,60,48.9,60z M15.1,10
			c-1.7,0-3.1,1.4-3.1,3.1v41.8c0,1.7,1.4,3.1,3.1,3.1h33.8c1.7,0,3.1-1.4,3.1-3.1V13.1c0-1.7-1.4-3.1-3.1-3.1H41
			c-0.2,2.2-2.1,4-4.4,4h-9.1c-2.3,0-4.2-1.8-4.4-4H15.1z"/>
	</g>
	<g>
		<path d="M45,55H19c-1.7,0-3-1.3-3-3V15c0-1.7,1.3-3,3-3h26c1.7,0,3,1.3,3,3v37C48,53.7,46.7,55,45,55z M19,14c-0.6,0-1,0.4-1,1v37
			c0,0.6,0.4,1,1,1h26c0.6,0,1-0.4,1-1V15c0-0.6-0.4-1-1-1H19z"/>
	</g>
	<g>
		<path d="M36.5,14h-9.1C25,14,23,12,23,9.5v-1C23,6,25,4,27.5,4h9.1C39,4,41,6,41,8.5v1.1C41,12,39,14,36.5,14z M27.5,6
			C26.1,6,25,7.1,25,8.5v1.1c0,1.4,1.1,2.5,2.5,2.5h9.1c1.4,0,2.5-1.1,2.5-2.5V8.5C39,7.1,37.9,6,36.5,6H27.5z"/>
	</g>
	<g>
		<path class="st1" d="M41,45H23c-0.6,0-1-0.4-1-1s0.4-1,1-1h18c0.6,0,1,0.4,1,1S41.6,45,41,45z"/>
	</g>
	<g>
		<path class="st1" d="M41,50H23c-0.6,0-1-0.4-1-1s0.4-1,1-1h18c0.6,0,1,0.4,1,1S41.6,50,41,50z"/>
	</g>
	<g>
		<path class="st1" d="M32,31c-2.8,0-5-2.2-5-5s2.2-5,5-5s5,2.2,5,5S34.8,31,32,31z M32,23c-1.7,0-3,1.3-3,3s1.3,3,3,3s3-1.3,3-3
			S33.7,23,32,23z"/>
	</g>
	<g>
		<path class="st1" d="M32,41c-0.1,0-0.2,0-0.3,0c-3-0.8-5.6-2.7-7.3-5.2c-0.2-0.2-0.2-0.5-0.1-0.8c0.9-3.5,4.1-6,7.7-6
			c2.1,0,4.1,0.8,5.7,2.3c1,1,1.7,2.3,2.1,3.6c0.1,0.3,0,0.6-0.1,0.8c-1.7,2.5-4.3,4.3-7.3,5.2C32.2,41,32.1,41,32,41z M26.3,35
			c1.4,1.9,3.4,3.2,5.7,3.9c2.3-0.7,4.2-2.1,5.7-3.9c-0.3-0.8-0.8-1.6-1.4-2.3C35.1,31.6,33.6,31,32,31C29.4,31,27.2,32.6,26.3,35z"
			/>
	</g>
	<g>
		<path d="M32,41c-0.1,0-0.2,0-0.3,0c-3-0.8-5.6-2.7-7.3-5.2c-1.6-2.3-2.4-4.9-2.4-7.6v-8.6c0-0.4,0.3-0.8,0.7-1l9-2.6
			c0.2-0.1,0.4-0.1,0.5,0l9,2.6c0.4,0.1,0.7,0.5,0.7,1v8.6c0,2.7-0.8,5.4-2.4,7.6c-1.7,2.5-4.3,4.3-7.3,5.2C32.2,41,32.1,41,32,41z
			 M24,20.3v7.8c0,2.3,0.7,4.6,2.1,6.5c1.4,2,3.5,3.6,5.9,4.3c2.4-0.8,4.5-2.3,5.9-4.3c1.3-1.9,2.1-4.2,2.1-6.5v-7.8L32,18L24,20.3z
			"/>
	</g>
</g>
<g id="Approved_Sign_Insurance">
</g>
<g id="calendar">
</g>
<g id="World_Wide_Protection">
</g>
<g id="Shield">
</g>
</svg>
