<svg xmlns="http://www.w3.org/2000/svg" xmlns:xlink="http://www.w3.org/1999/xlink" x="0" y="0" version="1.1" viewBox="0 0 64 64" xml:space="preserve" style="enable-background:new 0 0 64 64"><style type="text/css">.st0{opacity:.3}.st3{fill:#e13455}</style><g id="car_insurance"><g class="st0"><path d="M45,17c0,2.2-0.6,4.3-1.7,6.1c-0.4,0.6-0.8,1.2-1.2,1.7c-1,1.2-2.2,2.1-3.6,2.8c-0.6,0.3-1.2,0.6-1.9,0.8 C35.5,28.8,34.3,29,33,29c-6.6,0-12-5.4-12-12c0-1.3,0.2-2.5,0.6-3.7c0.2-0.7,0.5-1.3,0.8-1.9c2-3.8,6-6.5,10.7-6.5 C39.6,5,45,10.4,45,17z" class="st3"/></g><g><path d="M17.7,54h-4.5c-1.8,0-3.3-1.5-3.3-3.3V45c0-0.6,0.4-1,1-1h9c0.6,0,1,0.4,1,1v5.7C21,52.5,19.5,54,17.7,54z M12,46v4.7 c0,0.7,0.6,1.3,1.3,1.3h4.5c0.7,0,1.3-0.6,1.3-1.3V46H12z"/></g><g><path d="M41.6,46H39c-0.3,0-0.5-0.1-0.7-0.3L37.6,45H26.4l-0.7,0.7C25.5,45.9,25.3,46,25,46H11c-2.2,0-4-1.8-4-4v-9.6 c0-1.1,0.4-2.2,1.1-3.1l3-3.8l3.6-10.7c1-2.9,3.6-4.8,6.6-4.8h21.4c3,0,5.7,1.9,6.6,4.8l3.6,10.7l3,3.8c0.5,0.6,0.9,1.4,1,2.2 c0.1,0.3-0.1,0.7-0.3,0.9c-0.3,0.2-0.6,0.3-0.9,0.2L50,31l-8,2.3v7.8c0,1.2,0.2,2.4,0.6,3.5c0.1,0.3,0,0.6-0.1,0.9 S41.9,46,41.6,46z M39.4,44h0.9c-0.2-0.9-0.3-1.9-0.3-2.9v-8.6c0-0.4,0.3-0.8,0.7-1l9-2.6c0.2-0.1,0.4-0.1,0.5,0l3.7,1.1l-2.8-3.5 c-0.1-0.1-0.1-0.2-0.2-0.3l-3.6-10.9c-0.7-2-2.6-3.4-4.7-3.4H21.3c-2.2,0-4.1,1.4-4.7,3.4l-3.6,10.9c0,0.1-0.1,0.2-0.2,0.3 l-3.1,3.9C9.2,31.1,9,31.7,9,32.4V42c0,1.1,0.9,2,2,2h13.6l0.7-0.7c0.2-0.2,0.4-0.3,0.7-0.3h12c0.3,0,0.5,0.1,0.7,0.3L39.4,44z"/></g><g><path d="M20,41h-6c-1.7,0-3-1.3-3-3v-2c0-1.7,1.3-3,3-3h1c0,0,0.1,0,0.1,0l5.2,0.8c1.5,0.2,2.6,1.5,2.6,3V38 C23,39.7,21.7,41,20,41z M14,35c-0.6,0-1,0.4-1,1v2c0,0.6,0.4,1,1,1h6c0.6,0,1-0.4,1-1v-1.2c0-0.5-0.4-0.9-0.9-1L14.9,35H14z" class="st3"/></g><g><path d="M37.2,41H26.8c-1,0-1.8-0.7-2-1.6l-0.6-3c-0.1-0.6,0-1.2,0.4-1.7c0.4-0.5,0.9-0.7,1.5-0.7h11.6 c0.6,0,1.2,0.3,1.5,0.7c0.4,0.5,0.5,1.1,0.4,1.7l-0.6,3C39,40.3,38.1,41,37.2,41z M37.2,39v1V39L37.2,39z M26.2,36l0.6,3h10.4 l0.6-3H26.2z" class="st3"/></g><g><path d="M45,30H19c-1.3,0-2.4-0.6-3.2-1.6c-0.8-1-0.9-2.4-0.5-3.6l3.3-8.9c0.4-1.2,1.5-2,2.8-2h21.1c1.3,0,2.4,0.8,2.8,2l3.3,8.8 c0.5,1.4,0.2,3-0.8,4C47.1,29.6,46.1,30,45,30z M21.4,16c-0.4,0-0.8,0.3-0.9,0.7l-3.3,8.9c-0.2,0.6-0.2,1.3,0.2,1.7 c0.4,0.5,1,0.8,1.6,0.8h26c0.5,0,1-0.2,1.4-0.6c0.5-0.5,0.6-1.2,0.3-1.9l0,0l-3.3-8.8C43.3,16.3,43,16,42.6,16H21.4z"/></g><g><path d="M56.5,27h-2c-1.9,0-3.5-1.6-3.5-3.5s1.6-3.5,3.5-3.5h2c1.9,0,3.5,1.6,3.5,3.5S58.4,27,56.5,27z M54.5,22 c-0.8,0-1.5,0.7-1.5,1.5s0.7,1.5,1.5,1.5h2c0.8,0,1.5-0.7,1.5-1.5S57.3,22,56.5,22H54.5z"/></g><g><path d="M9.5,27h-2C5.6,27,4,25.4,4,23.5S5.6,20,7.5,20h2c1.9,0,3.5,1.6,3.5,3.5S11.4,27,9.5,27z M7.5,22C6.7,22,6,22.7,6,23.5 S6.7,25,7.5,25h2c0.8,0,1.5-0.7,1.5-1.5S10.3,22,9.5,22H7.5z"/></g><g><path d="M49,45c-0.3,0-0.5-0.1-0.7-0.3l-2.5-2.5c-0.4-0.4-0.4-1,0-1.4s1-0.4,1.4,0l1.8,1.8l4.3-4.3 c0.4-0.4,1-0.4,1.4,0s0.4,1,0,1.4l-5,5C49.5,44.9,49.3,45,49,45z" class="st3"/></g><g><path d="M50,54c-0.1,0-0.2,0-0.3,0c-1.7-0.5-3.3-1.3-4.7-2.4c-0.6-0.5-1.2-1.1-1.8-1.7c-0.6-0.7-1.1-1.4-1.5-2.2 c-0.4-0.8-0.8-1.5-1-2.3C40.2,44,40,42.6,40,41.1v-8.6c0-0.4,0.3-0.8,0.7-1l9-2.6c0.2-0.1,0.4-0.1,0.5,0l9,2.6 c0.4,0.1,0.7,0.5,0.7,1v8.6c0,4.8-2.6,9.3-6.8,11.6c-0.9,0.5-1.9,0.9-2.9,1.2C50.2,54,50.1,54,50,54z M42,33.3v7.8 c0,1.2,0.2,2.4,0.6,3.5c0.2,0.7,0.5,1.3,0.9,2c0.4,0.7,0.8,1.3,1.3,1.9c0.5,0.6,1,1.1,1.5,1.5c1.1,0.9,2.4,1.6,3.7,2 c0.8-0.2,1.5-0.6,2.2-0.9c3.6-2,5.8-5.8,5.8-9.9v-7.8L50,31L42,33.3z"/></g></g></svg>