<svg xmlns="http://www.w3.org/2000/svg" xmlns:xlink="http://www.w3.org/1999/xlink" x="0" y="0" version="1.1" viewBox="0 0 64 64" xml:space="preserve" style="enable-background:new 0 0 64 64"><style type="text/css">.st0{opacity:.3}.st1{fill:#ff9e1f}</style><g id="life_Insurance"><g class="st0"><path d="M59,39c0,2.2-0.6,4.3-1.7,6.1c-0.4,0.6-0.8,1.2-1.2,1.7c-1,1.2-2.2,2.1-3.6,2.8c-0.6,0.3-1.2,0.6-1.9,0.8 C49.5,50.8,48.3,51,47,51c-6.6,0-12-5.4-12-12c0-1.3,0.2-2.5,0.6-3.7c0.2-0.7,0.5-1.3,0.8-1.9c2-3.8,6-6.5,10.7-6.5 C53.6,27,59,32.4,59,39z" class="st1"/></g><g><path d="M36,54c-1.7,0-3-1.3-3-3V41c0-0.6-0.4-1-1-1s-1,0.4-1,1v10c0,1.7-1.3,3-3,3s-3-1.3-3-3V28h-8 c-1.7,0-3-1.3-3-3s1.3-3,3-3h30c1.7,0,3,1.3,3,3s-1.3,3-3,3h-8v23C39,52.7,37.7,54,36,54z M32,38c1.7,0,3,1.3,3,3v10 c0,0.6,0.4,1,1,1s1-0.4,1-1V27c0-0.6,0.4-1,1-1h9c0.6,0,1-0.4,1-1s-0.4-1-1-1H17c-0.6,0-1,0.4-1,1s0.4,1,1,1h9c0.6,0,1,0.4,1,1v24 c0,0.6,0.4,1,1,1s1-0.4,1-1V41C29,39.3,30.3,38,32,38z" class="st1"/></g><g><path d="M32,60c-0.1,0-0.2,0-0.3,0C18.9,56.3,10,44.5,10,31.2V11c0-0.4,0.3-0.8,0.7-1l21-6C31.9,4,32.1,4,32.3,4l21,6 c0.4,0.1,0.7,0.5,0.7,1v20.2c0,13.3-8.9,25.1-21.7,28.8C32.2,60,32.1,60,32,60z M12,11.8v19.4c0,12.3,8.2,23.3,20,26.8 c11.8-3.5,20-14.5,20-26.8V11.8L32,6L12,11.8z"/></g><g><path d="M32,23c-0.9,0-1.7-0.2-2.5-0.6c-1.6-0.8-2.7-2.5-2.9-4.3l-0.2-2.2c-0.2-1.8,0.6-3.5,2-4.7 c1-0.8,2.2-1.2,3.4-1.2h0.4c2.3,0,4.3,1.5,5.1,3.6c0.3,0.7,0.3,1.5,0.3,2.2v0l-0.2,2.2c-0.2,1.8-1.3,3.4-2.9,4.3 C33.7,22.8,32.9,23,32,23z M31.8,12c-0.8,0-1.5,0.3-2.1,0.8c-0.9,0.7-1.3,1.8-1.2,2.9l0.2,2.2c0.1,1.2,0.8,2.2,1.8,2.7 c0.9,0.5,2.1,0.5,3.1,0c1-0.5,1.7-1.5,1.8-2.7l0.2-2.2c0-0.5,0-0.9-0.2-1.4c-0.5-1.4-1.8-2.3-3.2-2.3H31.8z" class="st1"/></g></g></svg>