<?xml version="1.0" encoding="utf-8"?>
<!-- Generator: Adobe Illustrator 22.0.0, SVG Export Plug-In . SVG Version: 6.00 Build 0)  -->
<svg version="1.1" xmlns="http://www.w3.org/2000/svg" xmlns:xlink="http://www.w3.org/1999/xlink" x="0px" y="0px"
	 viewBox="0 0 64 64" style="enable-background:new 0 0 64 64;" xml:space="preserve">
<style type="text/css">
	.st0{opacity:0.3;}
	.st1{fill:#FF9E1F;}
	.st2{fill:#3CC451;}
	.st3{fill:#E13455;}
	.st4{opacity:0.2;}
	.st5{fill:#2394FB;}
</style>
<g id="Layer_1">
</g>
<g id="travel_Insurance">
</g>
<g id="Home_Insurance">
</g>
<g id="Female_Insurance">
</g>
<g id="Funerals_Insurance">
</g>
<g id="Sinking">
</g>
<g id="money_Insurance">
</g>
<g id="Education_Insurance">
</g>
<g id="Employee_Insurance">
</g>
<g id="car_insurance">
</g>
<g id="_Flight_Insurance">
</g>
<g id="Dental_Insurance">
</g>
<g id="Eye_Insurance">
</g>
<g id="life_Insurance">
</g>
<g id="Health_Insurance">
</g>
<g id="Family_Insurance">
</g>
<g id="Child_Insurance">
</g>
<g id="Salesman_Insurance">
	<g class="st0">
		<path class="st1" d="M59,36c0,2.2-0.6,4.3-1.7,6.1c-0.4,0.6-0.8,1.2-1.2,1.7c-1,1.2-2.2,2.1-3.6,2.8c-0.6,0.3-1.2,0.6-1.9,0.8
			C49.5,47.8,48.3,48,47,48c-6.6,0-12-5.4-12-12c0-1.3,0.2-2.5,0.6-3.7c0.2-0.7,0.5-1.3,0.8-1.9c2-3.8,6-6.5,10.7-6.5
			C53.6,24,59,29.4,59,36z"/>
	</g>
	<g>
		<path class="st1" d="M35,42h-6c-0.4,0-0.8-0.2-0.9-0.6l-2-5c-0.1-0.3-0.1-0.7,0.1-0.9c0.2-0.3,0.5-0.4,0.8-0.4h10
			c0.3,0,0.6,0.2,0.8,0.4c0.2,0.3,0.2,0.6,0.1,0.9l-2,5C35.8,41.8,35.4,42,35,42z M29.7,40h4.6l1.2-3h-7L29.7,40z"/>
	</g>
	<g>
		<path d="M53,60H11c-0.6,0-1-0.4-1-1V48.9C10,41.2,16.2,35,23.9,35h16.2C47.8,35,54,41.2,54,48.9V59C54,59.6,53.6,60,53,60z M12,58
			h40v-9.1C52,42.3,46.7,37,40.1,37H23.9C17.3,37,12,42.3,12,48.9V58z"/>
	</g>
	<g>
		<path d="M32,37c-0.1,0-0.2,0-0.3,0c-2.4-0.7-4.6-1.7-6.6-3.2c-4.5-3.4-7.1-8.5-7.1-14V9.6c0-0.4,0.3-0.8,0.7-0.9l13-4.6
			c0.2-0.1,0.5-0.1,0.7,0l13,4.6C45.7,8.8,46,9.2,46,9.6v10.1c0,8-5.6,15.1-13.7,17.3C32.2,37,32.1,37,32,37z M20,10.3v9.4
			c0,4.9,2.3,9.4,6.3,12.4c1.7,1.3,3.6,2.2,5.7,2.8c7.1-2,12-8.3,12-15.3v-9.4L32,6.1L20,10.3z"/>
	</g>
	<g>
		<path class="st1" d="M31,25c-0.3,0-0.5-0.1-0.7-0.3l-4-4c-0.4-0.4-0.4-1,0-1.4s1-0.4,1.4,0l3.3,3.3l7.3-7.3c0.4-0.4,1-0.4,1.4,0
			s0.4,1,0,1.4l-8,8C31.5,24.9,31.3,25,31,25z"/>
	</g>
	<g>
		<path class="st1" d="M32,60c-0.2,0-0.4-0.1-0.6-0.2l-5-4c-0.3-0.2-0.4-0.6-0.4-0.9l2-14c0.1-0.5,0.5-0.9,1-0.9h6
			c0.5,0,0.9,0.4,1,0.9l2,14c0,0.4-0.1,0.7-0.4,0.9l-5,4C32.4,59.9,32.2,60,32,60z M28.1,54.6l3.9,3.1l4-3.1L34.1,42h-4.3L28.1,54.6
			z"/>
	</g>
</g>
<g id="Search_Insurance">
</g>
<g id="Call_Center">
</g>
<g id="User_Insurance">
</g>
<g id="Profile_Information">
</g>
<g id="Approved_Sign_Insurance">
</g>
<g id="calendar">
</g>
<g id="World_Wide_Protection">
</g>
<g id="Shield">
</g>
</svg>
